<svg fill="none" height="24" viewBox="0 0 24 24" width="24" xmlns="http://www.w3.org/2000/svg"><g clip-rule="evenodd" fill="#0f0f0f" fill-rule="evenodd"><path d="m8 9c0-1.65685 1.34315-3 3-3h1c.2117.0001.4248.02575.6332.06049.3467.05779.8243.17524 1.314.42009.4936.24682 1.0177.63274 1.4161 1.23034.4026.60386.6367 1.36407.6367 2.28904 0 .92494-.2341 1.68514-.6367 2.28904-.3984.5976-.9224.9835-1.4161 1.2304-.4897.2448-.9673.3623-1.314.4201-.2072.0345-.4183.0592-.6287.0605h-2.0045v3c0 .5523-.44771 1-1 1-.55228 0-1-.4477-1-1zm2 0v3l2.0003-.0002c.36-.012.7315-.1088 1.0525-.2693.2563-.1282.4823-.3047.6464-.5509.1599-.2399.3008-.6046.3008-1.17964 0-.57499-.1409-.93975-.3008-1.17963-.1641-.24613-.39-.42271-.6464-.55089-.321-.16051-.6925-.25726-1.0524-.26926l-1.0004-.00018c-.5523 0-1 .44772-1 1z"/><path d="m12 23c6.0751 0 11-4.9249 11-11 0-6.07513-4.9249-11-11-11-6.07513 0-11 4.92487-11 11 0 6.0751 4.92487 11 11 11zm0-2.0068c-4.96679 0-8.99317-4.0264-8.99317-8.9932 0-4.96679 4.02638-8.99317 8.99317-8.99317 4.9668 0 8.9932 4.02638 8.9932 8.99317 0 4.9668-4.0264 8.9932-8.9932 8.9932z"/></g></svg>