<?xml version="1.0" encoding="UTF-8"?>
<svg version="1.1" xmlns="http://www.w3.org/2000/svg" width="512" height="512">
<path d="M0 0 C4.00794874 2.96041668 7.49967867 6.46716794 11 10 C11.969375 9.649375 12.93875 9.29875 13.9375 8.9375 C27.02075383 5.37406904 41.05223358 14.39087891 52.35620117 20.24609375 C55.98637516 22.09759418 59.40376028 23.55570683 63.375 24.5625 C69.11754685 26.03220267 73.32513559 29.49385169 78 33 C78.66 33.33 79.32 33.66 80 34 C80.226875 34.845625 80.45375 35.69125 80.6875 36.5625 C81.95083703 39.87123983 82.90075184 41.17819318 85.25 43.6875 C100.77914809 60.54171806 113.7038262 92.85193833 113 116 C111.79079019 131.16024244 105.26558129 141.74994389 93.9765625 151.640625 C89.37419686 155.28869435 84.47866473 158.44775586 79.5625 161.65234375 C70.65079769 167.47832214 63.77913999 173.51284431 58.125 182.5625 C54.09109439 188.77746744 48.37969539 192.41142135 42 196 C42.36209976 198.38830276 42.36209976 198.38830276 44 201 C46.21143634 202.40649082 48.49522299 203.5609716 50.83203125 204.74609375 C53.60114763 206.34769079 55.0229746 208.5127745 57 211 C58.85661543 212.03210448 58.85661543 212.03210448 60.9375 212.9375 C66.39810804 215.48038055 69.19545231 219.0556764 71.5 224.625 C74.41884834 230.82902987 80.27566206 235.02283103 85.31591797 239.49169922 C117.93078809 268.7022918 128.84662637 304.92218496 134.71490479 346.97003174 C135.23271106 350.65697645 135.76339937 354.34207348 136.29296875 358.02734375 C137.24817475 364.67999279 138.20199722 371.33283226 139.1431427 377.98748779 C139.61493671 381.3194657 140.09467651 384.64987161 140.59277344 387.97802734 C140.77614258 389.21633301 140.95951172 390.45463867 141.1484375 391.73046875 C141.31263184 392.82125732 141.47682617 393.9120459 141.64599609 395.03588867 C142 398 142 398 142 403 C68.41 403 -5.18 403 -81 403 C-84.66088296 384.69558519 -82.08168665 365.0227899 -78 347 C-77.78569336 346.03674805 -77.57138672 345.07349609 -77.35058594 344.08105469 C-73.45700496 326.88015471 -68.686856 309.59924709 -62.12109375 293.2109375 C-58.33790673 283.70147273 -56.31458242 275.20458681 -59 265 C-60.50919638 262.81032346 -62.20265273 260.97736327 -64 259 C-64.68960962 257.00779443 -65.36079057 255.00894394 -66 253 C-66.99 252.34 -67.98 251.68 -69 251 C-68.67 248.69 -68.34 246.38 -68 244 C-68.99 243.67 -69.98 243.34 -71 243 C-71.60846506 239.17024931 -71.01668037 238.02313729 -68.69921875 234.80859375 C-67.7076231 233.67401769 -66.70320291 232.55054644 -65.6875 231.4375 C-63.78899277 229.29402409 -61.89455448 227.14696942 -60 225 C-59.05060547 223.92685547 -59.05060547 223.92685547 -58.08203125 222.83203125 C-57.72496094 222.22746094 -57.36789063 221.62289062 -57 221 C-57.83672174 217.86229348 -58.84520379 215.02466197 -60 212 C-63.27750869 202.36146978 -65.70581996 193.13120737 -67 183 C-68.57552876 171.94184951 -71.69502594 160.98439522 -80.70703125 153.6015625 C-84.76459776 150.91929748 -89.12527874 149.03177136 -93.5625 147.0625 C-100.15822113 144.07417212 -104.92739415 141.1423379 -108.9375 135.0625 C-110.21316372 131.38558693 -110.48368594 128.86948755 -110 125 C-107.49469281 119.88045921 -103.48820456 116.57042101 -99.21875 112.9296875 C-96.16120379 110.27048357 -93.44196594 107.56250211 -90.9375 104.375 C-89 102 -89 102 -86 100 C-85.61936779 97.6739143 -85.28730055 95.33944736 -85 93 C-84.34 92.01 -83.68 91.02 -83 90 C-82.34 90 -81.68 90 -81 90 C-81.66 89.05125 -82.32 88.1025 -83 87.125 C-85.59402913 82.55058304 -86.00225459 78.14200181 -85 73 C-80.76722701 67.02432049 -74.99542468 66.08578222 -68.078125 64.90429688 C-66.69332866 64.67653432 -65.30790208 64.45257091 -63.921875 64.23242188 C-59.4918832 63.46731833 -55.77108026 62.48936869 -52 60 C-51.00740429 57.74001836 -51.00740429 57.74001836 -50.625 55.125 C-48.03857885 46.76630846 -40.71786299 42.54492427 -34.01220703 37.52172852 C-31.9868815 35.99007915 -29.97892306 34.44768937 -28.00390625 32.8515625 C-27.43099854 32.39475098 -26.85809082 31.93793945 -26.26782227 31.46728516 C-24.60481767 29.8406691 -24.60481767 29.8406691 -24.75 26.1875 C-24.80800781 25.50945312 -24.86601562 24.83140625 -24.92578125 24.1328125 C-25.17295357 17.02986057 -21.1850365 11.2130569 -16.83984375 5.94921875 C-12.04691352 0.87135849 -7.02174595 -2.11977236 0 0 Z " fill="#FCC23F" transform="translate(251,109)"/>
<path d="M0 0 C0.88602402 0.0377504 1.77204803 0.07550079 2.68492126 0.11439514 C3.68588333 0.15451218 4.6868454 0.19462921 5.71813965 0.23596191 C7.35093117 0.30932518 7.35093117 0.30932518 9.01670837 0.38417053 C10.12509567 0.42997757 11.23348297 0.47578461 12.37545776 0.52297974 C15.93187891 0.67107983 19.48794522 0.82638034 23.04405212 0.98182678 C25.44832911 1.08321098 27.85262582 1.1841287 30.25694275 1.28456116 C36.16538573 1.53239456 42.07355268 1.7861476 47.98155212 2.04432678 C49.74352002 6.7396808 50.53077819 11.29946532 51.05186462 16.25917053 C51.13781891 17.03313675 51.22377319 17.80710297 51.31233215 18.60452271 C51.49183972 20.233772 51.66814618 21.86337685 51.84141541 23.49330139 C52.10545537 25.97153286 52.38057229 28.44834651 52.65733337 30.92518616 C52.83116838 32.51560918 53.00436656 34.10610195 53.17686462 35.69667053 C53.25808563 36.42917526 53.33930664 37.16167999 53.42298889 37.91638184 C53.8855849 42.31977573 54.05632222 46.61655777 53.98155212 51.04432678 C54.64155212 50.71432678 55.30155212 50.38432678 55.98155212 50.04432678 C61.99159644 49.98422634 66.27236628 51.13914828 70.98155212 55.04432678 C73.30904557 58.53556695 73.48454529 59.93654929 72.98155212 64.04432678 C70.86753713 67.17306897 69.34439151 67.9326839 65.73155212 69.04432678 C59.82772325 69.04432678 55.94837887 66.80411913 51.60655212 62.91932678 C47.37757792 55.43729549 47.47878688 45.81439573 46.85655212 37.41932678 C46.77018494 36.31975647 46.68381775 35.22018616 46.59483337 34.08729553 C46.38504549 31.40667254 46.18072205 28.72575596 45.98155212 26.04432678 C44.68604431 26.05592834 43.3905365 26.06752991 42.05577087 26.07948303 C29.99242505 26.15255962 18.01987302 25.81477932 5.98155212 25.04432678 C6.12592712 26.19030334 6.27030212 27.33627991 6.41905212 28.51698303 C6.60677248 30.04690393 6.7942601 31.57685339 6.98155212 33.10682678 C7.07694275 33.85899475 7.17233337 34.61116272 7.27061462 35.38612366 C7.82727115 39.97853996 8.07984241 44.41854029 7.98155212 49.04432678 C8.99217712 48.81745178 10.00280212 48.59057678 11.04405212 48.35682678 C16.55998374 47.91905443 19.96044569 49.55509047 24.35655212 52.79432678 C26.59887631 55.89908335 26.91366418 58.24260217 26.98155212 62.04432678 C26.10655212 64.41932678 26.10655212 64.41932678 23.98155212 66.04432678 C19.1770637 67.54512033 15.18042814 67.49581131 10.60655212 65.35682678 C7.54652967 63.72607408 5.87666736 61.94356076 3.98155212 59.04432678 C3.34336853 56.76478577 3.34336853 56.76478577 2.95811462 54.10292053 C2.80246033 53.04186096 2.64680603 51.98080139 2.48643494 50.8875885 C2.31982361 49.61931213 2.15321228 48.35103577 1.98155212 47.04432678 C1.83260498 45.914534 1.83260498 45.914534 1.6806488 44.76191711 C0.98936998 39.47695782 0.33407227 34.18805982 -0.30555725 28.8966217 C-0.64573995 26.08790225 -0.99201366 23.27997698 -1.33876038 20.47206116 C-1.557874 18.6745794 -1.77663673 16.87705483 -1.99501038 15.07948303 C-2.09810516 14.24610916 -2.20119995 13.41273529 -2.30741882 12.55410767 C-3.24931975 4.69147848 -3.24931975 4.69147848 -3.01844788 1.04432678 C-2.01844788 0.04432678 -2.01844788 0.04432678 0 0 Z M3.98155212 10.04432678 C3.98155212 11.69432678 3.98155212 13.34432678 3.98155212 15.04432678 C17.51155212 15.70432678 31.04155212 16.36432678 44.98155212 17.04432678 C44.48655212 14.56932678 44.48655212 14.56932678 43.98155212 12.04432678 C39.90370277 10.91882541 35.92289633 10.8196106 31.71592712 10.72792053 C30.9225293 10.70713943 30.12913147 10.68635834 29.31169128 10.66494751 C26.78506369 10.59972706 24.25833491 10.54069534 21.73155212 10.48182678 C20.01539596 10.43861538 18.29924991 10.39500026 16.58311462 10.35096741 C12.38269666 10.24407395 8.18217723 10.14272949 3.98155212 10.04432678 Z " fill="#D29900" transform="translate(292.01844787597656,38.95567321777344)"/>
<path d="M0 0 C5.2381522 0.44580019 8.58777241 3.23848631 12.6875 6.25 C13.78396851 7.0395105 13.78396851 7.0395105 14.90258789 7.8449707 C17.27433689 9.55525771 19.63726314 11.27728965 22 13 C24.50688327 14.81598313 27.01543698 16.6296318 29.5246582 18.44238281 C31.11355101 19.59156887 32.70067745 20.74320172 34.28588867 21.89746094 C35.36447144 22.6810498 35.36447144 22.6810498 36.46484375 23.48046875 C37.100271 23.94348389 37.73569824 24.40649902 38.39038086 24.88354492 C40.01420782 26.0663936 40.01420782 26.0663936 42 27 C42.20625 26.4225 42.4125 25.845 42.625 25.25 C44.85448506 21.60175171 47.88667609 19.61207816 51.99609375 18.421875 C55.48320003 17.81542173 57.69637098 17.86433597 60.9375 19.3125 C63.59197505 21.48434322 63.93347345 22.40126102 64.3125 25.8125 C63.90514841 29.96748626 63.10284819 31.19266116 60 34 C55.53701105 36.52255897 51.95102894 38.28545889 46.76953125 37.52734375 C41.69842768 35.84110378 37.67198712 32.36109111 33.5 29.125 C31.86730644 27.87404206 30.23193479 26.62657077 28.59375 25.3828125 C27.87896484 24.82996582 27.16417969 24.27711914 26.42773438 23.70751953 C23.39340175 21.57335598 20.24120282 19.80433525 17 18 C13.16991176 21.80540739 9.34309049 25.61405864 5.51928711 29.42578125 C4.21745106 30.72258213 2.91471977 32.01848492 1.61108398 33.31347656 C-0.26032661 35.17278598 -2.12851582 37.0352794 -3.99609375 38.8984375 C-4.87423988 39.76884171 -4.87423988 39.76884171 -5.77012634 40.65682983 C-8.75162234 43.5495463 -8.75162234 43.5495463 -11 47 C-10.31550781 47.22429687 -9.63101563 47.44859375 -8.92578125 47.6796875 C-5.23047338 49.34726301 -2.34515067 51.61155231 0.8125 54.125 C1.40998047 54.59292969 2.00746094 55.06085938 2.62304688 55.54296875 C4.08616792 56.69005565 5.54366297 57.84431234 7 59 C9.81550299 57.70655311 11.41749659 56.61096909 13.75 54.4375 C17.39647386 51.32645775 20.23253129 51 25 51 C28.62090756 52.57430764 29.79255284 53.68882926 32 57 C32.07276623 60.27448043 31.70008009 62.22650997 29.47265625 64.6875 C25.06484751 68.56413517 21.45885485 70.56501769 15.359375 70.46484375 C7.25198436 68.86752672 -0.1156733 61.50201641 -6.53515625 56.609375 C-11.57251182 52.7872041 -16.7246867 49.12120236 -21.85766602 45.42919922 C-22.59557373 44.8982666 -23.33348145 44.36733398 -24.09375 43.8203125 C-25.07891602 43.11285889 -25.07891602 43.11285889 -26.08398438 42.39111328 C-26.71626953 41.9320459 -27.34855469 41.47297852 -28 41 C-29.11084961 40.32493408 -29.11084961 40.32493408 -30.24414062 39.63623047 C-32 38 -32 38 -32.67163086 35.76245117 C-31.591468 31.31968752 -28.48982586 28.89793686 -25.25390625 25.80078125 C-24.56820053 25.12452194 -23.88249481 24.44826263 -23.17601013 23.75151062 C-20.98298451 21.5930903 -18.77353648 19.45245287 -16.5625 17.3125 C-14.35857169 15.15848101 -12.15813022 13.00098532 -9.95970154 10.84135437 C-8.59033228 9.49845528 -7.21710257 8.15947957 -5.83973694 6.82478333 C-4.90888527 5.91825264 -4.90888527 5.91825264 -3.95922852 4.9934082 C-3.41073746 4.46221878 -2.8622464 3.93102936 -2.2971344 3.38374329 C-0.88649163 2.01084204 -0.88649163 2.01084204 0 0 Z M2.20263672 11.5703125 C1.02317771 12.75008943 -0.15076195 13.93539979 -1.3203125 15.125 C-1.93897186 15.74648926 -2.55763123 16.36797852 -3.19503784 17.00830078 C-5.17641731 19.00090523 -7.15074349 21.00034033 -9.125 23 C-10.46438602 24.34941282 -11.80422401 25.69837718 -13.14453125 27.046875 C-16.4349611 30.35939595 -19.71908006 33.67806068 -23 37 C-22.01 37.99 -21.02 38.98 -20 40 C-15.80374091 38.36221955 -13.01323215 35.26676818 -9.921875 32.1171875 C-9.06471893 31.25578659 -9.06471893 31.25578659 -8.19024658 30.37698364 C-6.37207055 28.5476419 -4.56098508 26.71145807 -2.75 24.875 C-1.51608671 23.63105226 -0.28171678 22.3875573 0.953125 21.14453125 C3.97406743 18.10157633 6.98867092 15.05246746 10 12 C8.62514468 10.45833358 8.62514468 10.45833358 7 9 C4.61230056 8.77446954 4.61230056 8.77446954 2.20263672 11.5703125 Z " fill="#DCA000" transform="translate(68,83)"/>
<path d="M0 0 C0.8144458 0.04374756 1.6288916 0.08749512 2.46801758 0.13256836 C13.6541965 0.81692627 24.7664416 2.30377862 35.875 3.75 C35.24159884 9.90608992 34.00033715 15.70497761 32.4375 21.6875 C32.00011936 23.38381007 31.56391352 25.0804235 31.12890625 26.77734375 C30.91766113 27.59831543 30.70641602 28.41928711 30.48876953 29.26513672 C29.68808781 32.50671927 28.99337274 35.76717202 28.32006836 39.03735352 C27.875 40.75 27.875 40.75 26.875 41.75 C15.11489376 42.42424609 3.53214912 41.1691312 -8.125 39.75 C-8.50809326 40.57056885 -8.50809326 40.57056885 -8.89892578 41.40771484 C-9.2442334 42.12652832 -9.58954102 42.8453418 -9.9453125 43.5859375 C-10.28320801 44.2979834 -10.62110352 45.0100293 -10.96923828 45.74365234 C-12.79914501 48.92028384 -14.80791773 50.2904838 -18.125 51.75 C-23.17261905 50.70238095 -23.17261905 50.70238095 -25.125 48.75 C-25.81587003 41.95644468 -25.81587003 41.95644468 -24.078125 38.921875 C-22.29498077 36.76112375 -20.64753812 35.01126906 -18.125 33.75 C-9.6116649 33.14691366 -1.19489016 34.03931907 7.24975586 35.03833008 C8.40809937 35.17404419 8.40809937 35.17404419 9.58984375 35.3125 C10.27167725 35.39628906 10.95351074 35.48007813 11.65600586 35.56640625 C14.38702239 35.79236339 17.13465186 35.75 19.875 35.75 C23.34 21.89 23.34 21.89 26.875 7.75 C22.585 7.75 18.295 7.75 13.875 7.75 C11.09699673 7.48293016 8.3226238 7.16272879 5.5625 6.75 C4.28761719 6.564375 3.01273437 6.37875 1.69921875 6.1875 C0.76722656 6.043125 -0.16476562 5.89875 -1.125 5.75 C-1.25648438 6.68199219 -1.38796875 7.61398438 -1.5234375 8.57421875 C-2.25597357 12.44143841 -3.23358695 14.0868564 -6.125 16.75 C-9.625 17.8125 -9.625 17.8125 -13.125 17.75 C-15.625 16.25 -15.625 16.25 -17.125 13.75 C-17.20457828 9.45277289 -16.37679392 6.69641724 -13.75 3.375 C-9.46889209 -0.90610791 -5.67729988 -0.32192984 0 0 Z " fill="#E6A801" transform="translate(413.125,128.25)"/>
<path d="M0 0 C0.27537598 0.5249707 0.55075195 1.04994141 0.83447266 1.59082031 C4.79930073 8.95476123 9.51336498 15.72564937 14.35546875 22.53515625 C14.96777344 23.42589844 15.58007812 24.31664063 16.2109375 25.234375 C17.05084229 26.42885254 17.05084229 26.42885254 17.90771484 27.64746094 C19.27523383 30.59279239 19.0549635 31.96686118 18 35 C15.77734375 37.17578125 15.77734375 37.17578125 12.9375 39.3125 C8.44528582 42.79864538 4.44499268 46.42145272 0.55859375 50.56640625 C-1 52 -1 52 -3 52 C-3 52.66 -3 53.32 -3 54 C-4.5 55.625 -4.5 55.625 -6 57 C-5.51402344 57.55558594 -5.02804688 58.11117187 -4.52734375 58.68359375 C-2.74967197 61.3796535 -2.56732419 62.86406386 -2.5625 66.0625 C-2.54316406 66.91972656 -2.52382812 67.77695313 -2.50390625 68.66015625 C-3 71 -3 71 -4.8359375 72.8125 C-7 74 -7 74 -10.0625 73.9375 C-13 73 -13 73 -14.8125 71.4375 C-16.48904586 67.99616903 -17.10763339 64.82867328 -17 61 C-14.22052274 53.87758952 -6.46721714 48.43193787 -0.796875 43.578125 C1.01968133 42.03198806 1.01968133 42.03198806 2.609375 40.296875 C4 39 4 39 6 39 C6 38.34 6 37.68 6 37 C8 35.375 8 35.375 10 34 C8.72802138 30.55992741 7.25736851 27.66311953 5.1796875 24.64453125 C4.64472656 23.85755859 4.10976562 23.07058594 3.55859375 22.25976562 C2.72521484 21.04836914 2.72521484 21.04836914 1.875 19.8125 C0.76402983 18.19689006 -0.34295861 16.57853244 -1.4453125 14.95703125 C-1.93531738 14.24522705 -2.42532227 13.53342285 -2.93017578 12.80004883 C-4 11 -4 11 -4 9 C-10.71976092 14.33628073 -17.06643465 19.79875501 -23 26 C-23.66 26.66 -24.32 27.32 -25 28 C-24.51273438 28.55558594 -24.02546875 29.11117187 -23.5234375 29.68359375 C-21.74237032 32.39172924 -21.59596721 33.85437654 -21.625 37.0625 C-21.61726562 37.91972656 -21.60953125 38.77695313 -21.6015625 39.66015625 C-22 42 -22 42 -23.3046875 43.8125 C-25 45 -25 45 -28.5 44.9375 C-32 44 -32 44 -33.875 42.4375 C-35.43758896 39.05189058 -36.46868011 35.70983412 -36 32 C-33.09107458 26.65085071 -28.96792647 22.88206977 -24.5 18.8125 C-23.79456055 18.16337646 -23.08912109 17.51425293 -22.36230469 16.84545898 C-20.92899444 15.52705342 -19.49378648 14.21070783 -18.05664062 12.89648438 C-16.15689239 11.14467475 -14.28460501 9.36913042 -12.421875 7.578125 C-11.88240234 7.06531982 -11.34292969 6.55251465 -10.78710938 6.02416992 C-9.33844923 4.64660825 -7.89559311 3.26295037 -6.453125 1.87890625 C-4 0 -4 0 0 0 Z " fill="#D69B00" transform="translate(212,64)"/>
<path d="M0 0 C2.75 -0.375 2.75 -0.375 6 0 C10.43477673 4.55463556 11.05518093 9.86388088 11 16 C10.67 16.66 10.34 17.32 10 18 C10.88945312 18.40605469 10.88945312 18.40605469 11.796875 18.8203125 C15.53220029 20.82043349 17.98937397 23.25674446 20 27 C20.91625413 31.78630652 21.09382286 36.50051882 19.109375 41.03515625 C16.11744339 45.09421013 12.69679667 46.07905948 8 47 C8 47.99 8 48.98 8 50 C8.391875 49.484375 8.78375 48.96875 9.1875 48.4375 C11 47 11 47 13.5625 47.1875 C16 48 16 48 18 50 C17.86628937 53.67704228 17.77513533 56.11002981 15.3125 58.9375 C12.17816119 60.37760162 10.41375407 60.62701605 7 60 C3.24793887 56.88658757 3.24793887 56.88658757 2 54 C1.88870093 50.88868506 2.31975009 48.03081643 3 45 C2.38125 44.731875 1.7625 44.46375 1.125 44.1875 C-1 43 -1 43 -3 40 C-3.35042485 36.21541159 -3.26916315 33.65165816 -1.8125 30.125 C0.37496702 27.5603835 1.69866765 27.2676756 5 27 C4.65035591 23.85320318 4.37830948 22.36610595 2.0625 20.125 C-0.75846244 17.21855385 -1.28321672 14.97488909 -2 11 C-1.88739759 7.18402946 -1.72295368 3.44590736 0 0 Z M4 9 C5 12 5 12 5 12 Z M13 30 C14 32 14 32 14 32 Z M14 32 C14 33.98 14 35.96 14 38 C14.33 38 14.66 38 15 38 C15 36.02 15 34.04 15 32 C14.67 32 14.34 32 14 32 Z M3 35 C3 36.65 3 38.3 3 40 C3.33 40 3.66 40 4 40 C4 38.35 4 36.7 4 35 C3.67 35 3.34 35 3 35 Z M8 35 C9 38 9 38 9 38 Z " fill="#D29900" transform="translate(133,17)"/>
<path d="M0 0 C1 1 1 1 1.4375 4.0625 C0.8606452 9.25419324 -1.33701018 12.34541154 -5 16 C-7.203125 17.23046875 -7.203125 17.23046875 -9 18 C-8.89300781 18.556875 -8.78601563 19.11375 -8.67578125 19.6875 C-7.76904075 25.45943956 -7.96242518 29.89502635 -11 35 C-15.60019279 39.37579314 -18.63785966 40.27407176 -24.80078125 40.234375 C-27.58556551 39.93759515 -29.07329053 39.01047945 -31 37 C-32.32 37.66 -33.64 38.32 -35 39 C-33.824375 38.938125 -33.824375 38.938125 -32.625 38.875 C-30 39 -30 39 -28 41 C-27.625 43.9375 -27.625 43.9375 -28 47 C-29.625 48.9375 -29.625 48.9375 -32 50 C-35.5705812 49.92561289 -37.46049054 49.38333567 -40.375 47.3125 C-42.52675145 44.25039216 -42.60011905 42.67572916 -42 39 C-40.20006226 36.30009338 -38.916227 34.4581135 -36 33 C-35.49782647 31.04340367 -35.49782647 31.04340367 -35.1875 28.75 C-34.2278802 24.15701055 -33.02003234 21.70915223 -29 19 C-26.1945293 18.58356294 -23.87011207 18.76853935 -21 19 C-20.01 19 -19.02 19 -18 19 C-17.34 19 -16.68 19 -16 19 C-16.12375 17.845 -16.2475 16.69 -16.375 15.5 C-16.3846839 10.04796249 -13.68149921 6.79491032 -10 3 C-6.60453515 0.34988109 -4.30200495 -0.47800055 0 0 Z M-7 7 C-7.66 8.65 -8.32 10.3 -9 12 C-8.01 11.01 -7.02 10.02 -6 9 C-6.33 8.34 -6.66 7.68 -7 7 Z M-17 24 C-16 26 -16 26 -16 26 Z M-30 27 C-29.67 27.66 -29.34 28.32 -29 29 C-28.67 28.34 -28.34 27.68 -28 27 C-28.66 27 -29.32 27 -30 27 Z M-17 29 C-16 31 -16 31 -16 31 Z M-18 31 C-17 33 -17 33 -17 33 Z M-37 40 C-36 42 -36 42 -36 42 Z " fill="#D29900" transform="translate(434,45)"/>
<path d="M0 0 C0.234375 2.3046875 0.234375 2.3046875 0 5 C-1.546875 6.6328125 -1.546875 6.6328125 -3.75 8.125 C-7.80430885 11.04742768 -11.4782716 14.15946021 -15.125 17.5625 C-19.33748366 21.47608904 -23.59887394 25.29905309 -28 29 C-27.34 29.825 -26.68 30.65 -26 31.5 C-23.37152998 35.46147982 -23.39578705 38.31734962 -24 43 C-25.625 45.5 -25.625 45.5 -28 47 C-31 47.5 -31 47.5 -34 47 C-36.30275556 45.1329009 -37.67823871 43.64352259 -39 41 C-39.36553458 35.4255977 -39.31800593 32.6623704 -36 28 C-34.30533728 26.29724176 -32.54982878 24.65368941 -30.75 23.0625 C-29.77675781 22.20011719 -28.80351562 21.33773437 -27.80078125 20.44921875 C-26.41439453 19.23685547 -26.41439453 19.23685547 -25 18 C-24.27167969 17.34644531 -23.54335938 16.69289063 -22.79296875 16.01953125 C-18.25786817 12 -18.25786817 12 -16 12 C-16 11.34 -16 10.68 -16 10 C-23.5829402 10.36307238 -23.5829402 10.36307238 -30 14 C-31.86441825 16.90766613 -33.47419144 19.90293327 -35 23 C-36.32 23 -37.64 23 -39 23 C-39.38198106 18.64229765 -38.43372082 16.48707114 -35.9375 12.9375 C-35.36902344 12.10089844 -34.80054688 11.26429687 -34.21484375 10.40234375 C-28.79734559 4.52622141 -23.38954173 3.38847739 -15.75 2.875 C-14.16087177 2.75492118 -12.57226927 2.62760992 -10.984375 2.4921875 C-10.29053711 2.44433105 -9.59669922 2.39647461 -8.88183594 2.34716797 C-5.13459566 1.65586339 -4.20882229 0 0 0 Z " fill="#D79D00" transform="translate(409,97)"/>
<path d="M0 0 C1.65 0.33 3.3 0.66 5 1 C4.67 13.87 4.34 26.74 4 40 C5.98 40 7.96 40 10 40 C13.80460495 41.90230247 15.58826133 43.1407193 17.4375 47 C17.97996586 49.89315123 18.22888798 51.35316436 17 54 C13.23720983 56.50852678 11.54357834 56.1343518 7.2265625 55.55078125 C4.08679271 54.77410136 2.22866526 53.29831105 0 51 C-1.44962183 48.10075634 -1.22126481 45.47699645 -1.31640625 42.2421875 C-1.33718735 41.57913605 -1.35796844 40.91608459 -1.37937927 40.23294067 C-1.44479231 38.11373306 -1.50372105 35.994401 -1.5625 33.875 C-1.60569309 32.43878919 -1.64930764 31.00259098 -1.69335938 29.56640625 C-1.80046499 26.04440406 -1.90175575 22.52226175 -2 19 C-5.81034126 22.47777402 -5.81034126 22.47777402 -7.16796875 27.2421875 C-7.17441406 28.11101562 -7.18085938 28.97984375 -7.1875 29.875 C-7.20167969 30.73867187 -7.21585938 31.60234375 -7.23046875 32.4921875 C-6.98630923 35.14897416 -6.23313906 36.67019577 -5 39 C-5 39.99 -5 40.98 -5 42 C-6.65 42 -8.3 42 -10 42 C-14.93317314 27.92034275 -14.93317314 27.92034275 -13 22 C-11.32848408 19.0427026 -9.40418227 16.49169495 -7.25 13.87109375 C-3.53071375 9.29172255 -1.11629178 5.82952372 0 0 Z " fill="#D69C00" transform="translate(155,70)"/>
<path d="M0 0 C-0.44942118 8.53900249 -3.17491446 15.99999141 -6 24 C-6.67073032 25.99864086 -7.33887092 27.99816265 -8 30 C-6.824375 30.6496875 -6.824375 30.6496875 -5.625 31.3125 C-3 33 -3 33 -1 36 C-0.67212706 39.14758022 -0.51697705 41.16812713 -2.125 43.9375 C-4 45 -4 45 -6.875 45 C-10.84424611 43.72984125 -12.52446775 42.34924952 -15 39 C-15.43385501 33.73860913 -14.497619 29.56205668 -12.8828125 24.5703125 C-12.6655954 23.89451141 -12.4483783 23.21871033 -12.22457886 22.52243042 C-11.76712404 21.10742342 -11.30466092 19.69402653 -10.83740234 18.28222656 C-10.12143757 16.11421259 -9.42495423 13.94060277 -8.73046875 11.765625 C-6.20193888 3.98972686 -6.20193888 3.98972686 -5 1 C-3 0 -3 0 0 0 Z " fill="#D29900" transform="translate(274,51)"/>
<path d="M0 0 C1.65 0 3.3 0 5 0 C4.49199876 7.03331291 2.88090663 12.96772133 0.4375 19.5625 C0.10814453 20.47580078 -0.22121094 21.38910156 -0.56054688 22.33007812 C-1.36494371 24.55674182 -2.17816299 26.77972744 -3 29 C-1.824375 29.6496875 -1.824375 29.6496875 -0.625 30.3125 C2 32 2 32 4 35 C4.3125 38.5625 4.3125 38.5625 4 42 C1 44 1 44 -1.875 44 C-5.23616645 42.92442674 -7.06009731 41.63277936 -9.15991211 38.7722168 C-12.15724579 32.44915805 -7.02465166 22.33103419 -5 16.25 C-4.26985087 14.02636402 -3.54064384 11.80241842 -2.8125 9.578125 C-2.48894531 8.60262695 -2.16539062 7.62712891 -1.83203125 6.62207031 C-1.13475726 4.42467516 -0.52538891 2.2435168 0 0 Z " fill="#D29900" transform="translate(195,24)"/>
<path d="M0 0 C-0.18383789 2.3371582 -0.18383789 2.3371582 -1 5 C-3.19311523 6.45385742 -3.19311523 6.45385742 -6.05859375 7.60546875 C-7.59676758 8.24452148 -7.59676758 8.24452148 -9.16601562 8.89648438 C-10.24560547 9.32251953 -11.32519531 9.74855469 -12.4375 10.1875 C-14.56277381 11.05212607 -16.68655191 11.92044056 -18.80859375 12.79296875 C-19.75532959 13.1696167 -20.70206543 13.54626465 -21.67749023 13.93432617 C-24.12730552 14.89544579 -24.12730552 14.89544579 -26 17 C-25.96761518 19.00785911 -25.93468563 21.01571874 -25.89453125 23.0234375 C-26 25 -26 25 -27.125 27.5 C-29 29 -29 29 -32 29.5 C-35 29 -35 29 -36.875 27.375 C-38.32894222 24.30556642 -38.41241465 22.36805295 -38 19 C-35.87229382 14.22581828 -32.94766185 12.57749275 -28.3125 10.625 C-27.65983154 10.33681396 -27.00716309 10.04862793 -26.3347168 9.75170898 C-24.9472428 9.14086411 -23.55692521 8.53644382 -22.1640625 7.93798828 C-19.96140475 6.98327133 -17.77699574 5.99432867 -15.59375 4.99609375 C-14.16697753 4.35087464 -12.7399024 3.70632432 -11.3125 3.0625 C-10.6419458 2.75586426 -9.9713916 2.44922852 -9.28051758 2.13330078 C-5.87778723 0.62800533 -3.79432387 0 0 0 Z " fill="#D49A00" transform="translate(471,96)"/>
</svg>
