<?xml version="1.0" encoding="UTF-8"?>
<svg version="1.1" xmlns="http://www.w3.org/2000/svg" width="512" height="512">
<path d="M0 0 C4.03912638 0.05513075 8.07325811 0.05156774 12.11237717 0.0183506 C13.13023014 0.01007602 13.13023014 0.01007602 14.1686458 0.00163427 C15.54883556 -0.0098804 16.92902402 -0.02155219 18.30921113 -0.03337902 C31.13584865 -0.13510058 43.95310235 -0.01957019 56.77819669 0.17543417 C67.69123639 0.3362527 78.59048543 0.30828675 89.50327682 0.14235878 C102.29507004 -0.05205929 115.0787233 -0.12522358 127.87178898 -0.01559973 C129.24578673 -0.00413671 130.6197857 0.00718074 131.99378586 0.0183506 C132.66912823 0.02390452 133.3444706 0.02945844 134.0402779 0.03518066 C138.71152989 0.06576392 143.37729768 0.01311167 148.04816818 -0.07091331 C174.43045923 -0.47699132 198.4053786 0.31160951 218.31284714 19.57595253 C237.57719015 39.48342107 238.36579098 63.45834043 237.95971298 89.84063148 C237.93631159 91.14149319 237.91291019 92.44235489 237.88879967 93.78263664 C237.83366891 97.82176302 237.83723193 101.85589475 237.87044907 105.89501381 C237.87596546 106.57358246 237.88148184 107.25215111 237.8871654 107.95128244 C237.89868007 109.3314722 237.91035185 110.71166066 237.92217869 112.09184778 C238.02390024 124.9184853 237.90836985 137.73573899 237.7133655 150.56083333 C237.55254697 161.47387304 237.58051292 172.37312208 237.74644089 183.28591347 C237.94085895 196.07770669 238.01402325 208.86135994 237.90439939 221.65442562 C237.89293638 223.02842337 237.88161893 224.40242234 237.87044907 225.7764225 C237.86211819 226.78943606 237.86211819 226.78943606 237.85361901 227.82291454 C237.82303575 232.49416653 237.875688 237.15993433 237.95971298 241.83080482 C238.36579098 268.21309588 237.57719015 292.18801524 218.31284714 312.09548378 C198.4053786 331.3598268 174.43045923 332.14842763 148.04816818 331.74234962 C146.74730648 331.71894823 145.44644478 331.69554684 144.10616302 331.67143631 C140.06703664 331.61630556 136.03290492 331.61986857 131.99378586 331.65308571 C131.31521721 331.6586021 130.63664856 331.66411849 129.93751723 331.66980204 C128.55732747 331.68131671 127.17713901 331.6929885 125.79695189 331.70481533 C112.97031437 331.80653689 100.15306067 331.6910065 87.32796633 331.49600214 C76.41492663 331.33518361 65.51567759 331.36314956 54.6028862 331.52907753 C41.81109298 331.7234956 29.02743973 331.79665989 16.23437405 331.68703604 C14.8603763 331.67557302 13.48637733 331.66425557 12.11237717 331.65308571 C11.43703479 331.64753179 10.76169242 331.64197787 10.06588513 331.63625565 C5.39463314 331.60567239 0.72886534 331.65832464 -3.94200516 331.74234962 C-30.32429621 332.14842763 -54.29921557 331.3598268 -74.20668411 312.09548378 C-93.47102713 292.18801524 -94.25962796 268.21309588 -93.85354996 241.83080482 C-93.83014856 240.52994312 -93.80674717 239.22908142 -93.78263664 237.88879967 C-93.72750589 233.84967329 -93.73106891 229.81554156 -93.76428604 225.7764225 C-93.76980243 225.09785385 -93.77531882 224.4192852 -93.78100237 223.72015387 C-93.79251705 222.33996411 -93.80418883 220.95977565 -93.81601566 219.57958853 C-93.91773722 206.75295101 -93.80220683 193.93569732 -93.60720247 181.11060297 C-93.44638394 170.19756327 -93.47434989 159.29831423 -93.64027786 148.38552284 C-93.83469593 135.59372962 -93.90786022 122.81007637 -93.79823637 110.01701069 C-93.78677336 108.64301294 -93.77545591 107.26901397 -93.76428604 105.89501381 C-93.75873212 105.21967144 -93.7531782 104.54432906 -93.74745598 103.84852177 C-93.71687272 99.17726978 -93.76952498 94.51150198 -93.85354996 89.84063148 C-94.25962796 63.45834043 -93.47102713 39.48342107 -74.20668411 19.57595253 C-53.27001414 -0.6843428 -27.5665703 -0.49589912 0 0 Z M-48.88441849 139.21071815 C-50.88040412 142.26340206 -51.0732338 145.47521638 -51.09218216 149.05007362 C-51.09856201 149.87127693 -51.10494186 150.69248024 -51.11151505 151.5385685 C-51.11262787 152.41779976 -51.11374069 153.29703102 -51.11488724 154.20290565 C-51.11821564 155.11524971 -51.12154404 156.02759377 -51.1249733 156.96758461 C-51.13003078 158.89579197 -51.13238199 160.82400807 -51.13222122 162.75222206 C-51.1344053 165.69296223 -51.15256689 168.63332569 -51.17152786 171.5739994 C-51.17446256 173.45030021 -51.17644684 175.32660279 -51.17738724 177.20290565 C-51.18457275 178.07808846 -51.19175827 178.95327126 -51.19916153 179.85497475 C-51.18167476 184.55831404 -50.88148709 188.45414673 -48.94691849 192.83571815 C-43.78421412 196.70774643 -36.09890605 195.99526789 -29.92738724 196.0036869 C-29.06938019 196.0070153 -28.21137314 196.0103437 -27.32736588 196.01377296 C-25.51785693 196.01881819 -23.70833875 196.02118204 -21.89882278 196.02102089 C-19.15362818 196.02320289 -16.40883877 196.04137188 -13.66371536 196.06032753 C-11.89744068 196.06326299 -10.13116411 196.06524676 -8.36488724 196.0661869 C-7.15037132 196.07696518 -7.15037132 196.07696518 -5.91131973 196.0879612 C-0.47344749 196.06653361 4.88275227 195.63925949 10.05308151 193.83571815 C12.77876172 190.95428479 13.02040653 189.231739 13.34605026 185.2849369 C13.31124557 184.04356972 13.27644089 182.80220253 13.24058151 181.52321815 C13.2135112 180.26896034 13.18644089 179.01470253 13.15855026 177.7224369 C13.12374557 176.76981972 13.08894089 175.81720253 13.05308151 174.83571815 C11.19683151 174.34071815 11.19683151 174.34071815 9.30308151 173.83571815 C8.25894089 173.55728065 8.25894089 173.55728065 7.19370651 173.27321815 C4.7640629 172.70222467 4.7640629 172.70222467 1.05308151 172.83571815 C1.05308151 176.79571815 1.05308151 180.75571815 1.05308151 184.83571815 C-12.14691849 184.83571815 -25.34691849 184.83571815 -38.94691849 184.83571815 C-38.94691849 171.96571815 -38.94691849 159.09571815 -38.94691849 145.83571815 C-25.74691849 145.83571815 -12.54691849 145.83571815 1.05308151 145.83571815 C1.05308151 149.46571815 1.05308151 153.09571815 1.05308151 156.83571815 C2.66183151 156.69134315 4.27058151 156.54696815 5.92808151 156.39821815 C6.83300339 156.31700722 7.73792526 156.23579628 8.67026901 156.1521244 C11.06419012 155.96582531 11.06419012 155.96582531 13.05308151 154.83571815 C13.13468899 152.94061117 13.1925461 151.04447312 13.24058151 149.14821815 C13.2753862 148.09247597 13.31019089 147.03673378 13.34605026 145.9489994 C12.99622277 142.23149925 12.59408952 140.59936686 10.05308151 137.83571815 C4.10992687 135.74966161 -2.06078756 135.53868022 -8.29457474 135.57009315 C-9.15070862 135.5681797 -10.0068425 135.56626625 -10.88891983 135.56429482 C-12.68470431 135.56294375 -14.48049891 135.56656413 -16.27626419 135.57497597 C-19.00590031 135.58570433 -21.73488042 135.57503702 -24.46449661 135.56228065 C-26.22035742 135.56360218 -27.97621783 135.56616444 -29.73207474 135.57009315 C-30.53750214 135.56604469 -31.34292953 135.56199623 -32.17276382 135.55782509 C-37.85189091 135.6042516 -44.10900173 135.82171271 -48.88441849 139.21071815 Z M44.05308151 135.83571815 C44.05308151 155.63571815 44.05308151 175.43571815 44.05308151 195.83571815 C48.01308151 195.83571815 51.97308151 195.83571815 56.05308151 195.83571815 C56.05308151 187.91571815 56.05308151 179.99571815 56.05308151 171.83571815 C59.08753464 171.87052284 62.12198776 171.90532753 65.24839401 171.9411869 C68.19727768 171.96460369 71.14615086 171.98280821 74.0950737 172.00051308 C76.13971745 172.01557103 78.18432906 172.03602172 80.22886276 172.06203651 C83.17295403 172.09855126 86.11661709 172.11547466 89.06089401 172.1286869 C89.97049881 172.14417076 90.88010361 172.15965462 91.81727219 172.17560768 C96.97519909 172.176966 100.62488987 171.79173712 105.05308151 168.83571815 C108.15221812 164.18701325 107.46165914 159.43026043 107.49058151 153.96071815 C107.52345261 152.87146034 107.5563237 151.78220253 107.59019089 150.6599369 C107.65892325 144.26590858 107.65892325 144.26590858 104.90073776 138.64040565 C98.72946449 134.72939296 91.15949969 135.70495404 84.09214401 135.7380619 C83.07595993 135.73906898 82.05977585 135.74007607 81.01279831 135.74111366 C77.23454782 135.7463264 73.45631347 135.76028763 69.67808151 135.77321815 C56.99370651 135.80415565 56.99370651 135.80415565 44.05308151 135.83571815 Z M128.05308151 135.83571815 C128.00334952 142.20370811 127.9672055 148.57158299 127.94321823 154.93972206 C127.93320984 157.10250253 127.91959901 159.26526965 127.90220261 161.42800331 C127.87772607 164.55092114 127.86654648 167.67365883 127.85776901 170.79665565 C127.84744644 171.75123665 127.83712387 172.70581764 127.82648849 173.68932533 C127.82549962 179.71307594 127.8262458 186.16225612 130.05308151 191.83571815 C135.61294997 196.9767366 143.51017635 195.99443007 150.64292526 196.0036869 C151.99795906 196.0086795 151.99795906 196.0086795 153.38036728 196.01377296 C155.28225321 196.01881329 157.1841479 196.02118219 159.0860405 196.02102089 C161.97819838 196.02320879 164.86997525 196.04139927 167.76206589 196.06032753 C169.61818439 196.06326188 171.47430468 196.0652464 173.33042526 196.0661869 C174.61359886 196.07696518 174.61359886 196.07696518 175.92269516 196.0879612 C181.72837173 196.06611639 188.09576549 195.93445856 192.99058151 192.46071815 C195.17765844 189.11577698 195.17626568 185.602122 195.1666069 181.69997597 C195.16653137 180.67921974 195.16645584 179.65846352 195.16637802 178.60677528 C195.16121674 177.51185768 195.15605545 176.41694008 195.15073776 175.28884315 C195.14932281 174.16250465 195.14790787 173.03616615 195.14645004 171.87569618 C195.14085351 168.2790098 195.12830161 164.68238572 195.11558151 161.08571815 C195.11056607 158.64691697 195.10600324 156.20811481 195.10190964 153.7693119 C195.0908852 147.79142333 195.07362291 141.8135813 195.05308151 135.83571815 C191.09308151 135.83571815 187.13308151 135.83571815 183.05308151 135.83571815 C183.05308151 152.00571815 183.05308151 168.17571815 183.05308151 184.83571815 C169.19308151 184.83571815 155.33308151 184.83571815 141.05308151 184.83571815 C141.05308151 168.66571815 141.05308151 152.49571815 141.05308151 135.83571815 C136.76308151 135.83571815 132.47308151 135.83571815 128.05308151 135.83571815 Z " fill="#F7BB2E" transform="translate(183.94691848754883,90.16428184509277)"/>
<path d="M0 0 C1.44069853 -0.00853686 1.44069853 -0.00853686 2.91050208 -0.01724619 C3.97312117 -0.01842606 5.03574025 -0.01960594 6.13055992 -0.02082157 C7.2536847 -0.02590939 8.37680947 -0.03099721 9.53396833 -0.03623921 C13.32327484 -0.05202139 17.1125622 -0.06050394 20.90189171 -0.06893253 C22.91922735 -0.07564861 24.93655895 -0.08315107 26.95389135 -0.09077286 C35.78469119 -0.12412099 44.61550272 -0.14562396 53.44634491 -0.16397271 C55.74572234 -0.16876687 58.04509929 -0.17375031 60.34447622 -0.17877793 C74.62078012 -0.20975089 88.89708805 -0.23643893 103.17341614 -0.25319672 C106.48134557 -0.25714628 109.78927493 -0.26114926 113.09720421 -0.2652216 C114.33047449 -0.26673414 114.33047449 -0.26673414 115.58865933 -0.26827724 C128.90426441 -0.28528016 142.21968351 -0.32638367 155.53519781 -0.37724458 C169.2039292 -0.42902535 182.87256498 -0.45813968 196.54139364 -0.4653936 C204.21675357 -0.47005559 211.89180908 -0.48480341 219.56707191 -0.5251379 C226.10471752 -0.55945206 232.64200381 -0.57337188 239.1797343 -0.56071376 C242.51478989 -0.55488935 245.84847121 -0.56200861 249.18351555 -0.5888834 C252.80272444 -0.61648939 256.42002769 -0.60708695 260.03925133 -0.58844852 C261.08848609 -0.60524345 262.13772084 -0.62203838 263.2187506 -0.63934225 C271.55781262 -0.53201488 275.76813691 2.39942206 281.49710655 8.1944952 C282.2241378 9.09554989 282.2241378 9.09554989 282.96585655 10.0148077 C286.56399401 14.31121385 290.47086434 18.21531535 294.46585655 22.1398077 C296.13389892 23.80509753 297.80042583 25.47190601 299.46585655 27.1398077 C300.44494033 28.11905725 301.42410996 29.09822096 302.40335655 30.0773077 C304.44502322 32.11897437 306.48668989 34.16064103 308.52835655 36.2023077 C309.27037315 36.94420345 309.27037315 36.94420345 310.02737999 37.701087 C311.36682542 39.04075976 312.70543689 40.38126619 314.04398155 41.72183895 C315.65336501 43.32862663 317.26793182 44.93023994 318.88773155 46.52652645 C319.6560128 47.28578426 320.42429405 48.04504208 321.21585655 48.8273077 C321.9944503 49.59429989 322.77304405 50.36129208 323.57523155 51.15152645 C326.36547361 54.08589258 326.59230421 55.731973 326.60845757 59.67395115 C326.61476551 60.63441683 326.62107345 61.59488252 326.62757254 62.58445323 C326.63036553 64.17838186 326.63036553 64.17838186 326.63321495 65.80451107 C326.63900834 66.92763584 326.64480172 68.05076062 326.65077066 69.20791948 C326.66890719 72.99722304 326.67972432 76.78651161 326.69046593 80.57584286 C326.69840542 82.59317879 326.70712307 84.61051028 326.71595031 86.6278425 C326.75788569 96.22815741 326.78506839 105.82849735 326.80960655 115.4288702 C326.81158145 116.18646553 326.81355635 116.94406085 326.8155911 117.72461361 C326.85475455 132.76551705 326.88846324 147.80642874 326.91067314 162.84736729 C326.91564253 166.15529677 326.92068684 169.46322612 326.92581749 172.77115536 C326.9277235 174.00442564 326.9277235 174.00442564 326.92966801 175.26261048 C326.95102326 188.57824703 327.00001232 201.89363663 327.06006163 215.20914896 C327.12119577 228.87787836 327.15586299 242.5464804 327.16514635 256.21534479 C327.17105686 263.89075555 327.18880511 271.56574818 327.23653221 279.24102306 C327.27714762 285.77869912 327.29400566 292.31588884 327.27987939 298.85368545 C327.2734145 302.18890984 327.2820567 305.52226147 327.31375313 308.8574667 C327.34633575 312.4768997 327.3357377 316.09374382 327.31436729 319.71320248 C327.33407506 320.76243724 327.35378284 321.81167199 327.37408781 322.89270175 C327.27545354 329.50791841 325.90422498 332.87372259 321.18707716 337.55997962 C320.61907436 338.08132289 320.05107156 338.60266615 319.46585655 339.1398077 C318.72310478 339.92224346 317.98035301 340.70467922 317.21509361 341.51082516 C316.570653 342.15304516 315.92621239 342.79526516 315.26224327 343.45694637 C314.51812187 344.20099224 313.77400047 344.94503811 313.00732994 345.71163082 C312.2279406 346.48585888 311.44855125 347.26008694 310.64554405 348.05777645 C309.41301399 349.28818409 309.41301399 349.28818409 308.15558434 350.54344845 C305.55303505 353.1404475 302.94702002 355.73393611 300.34085655 358.3273077 C298.58411361 360.07902767 296.82760106 361.83097872 295.0713253 363.58316708 C291.15700452 367.48759768 287.24175685 371.39108411 283.3202877 375.28833675 C281.78394209 376.82222992 280.26190029 378.37043457 278.74368858 379.9222784 C277.99200401 380.65406307 277.24031944 381.38584774 276.46585655 382.1398077 C275.82127652 382.83465173 275.17669649 383.52949575 274.51258373 384.24539566 C269.9364865 387.09074846 265.72975993 386.70244257 260.44038963 386.66792965 C259.31470158 386.67628631 258.18901353 386.68464297 257.02921373 386.69325286 C253.24904686 386.71627173 249.46947014 386.71061087 245.68924522 386.70499325 C242.98229057 386.71314075 240.27537314 386.72718874 237.56844139 386.74083614 C230.97368892 386.7701965 224.37908944 386.77748559 217.78427836 386.77626064 C212.42308075 386.77542827 207.06193153 386.78128812 201.70074463 386.79188633 C184.84108125 386.82456881 167.98156678 386.83354682 151.12187634 386.82479659 C137.82580019 386.81881608 124.53009293 386.84920247 111.23410877 386.89641931 C97.57881168 386.94453347 83.92369216 386.96659329 70.26830846 386.96110851 C62.60304513 386.95853277 54.93813504 386.96650494 47.2729454 387.00217915 C40.74627386 387.03231539 34.22013933 387.03804841 27.69343921 387.01237013 C24.3643058 386.99995511 21.03700576 387.00251964 17.7078228 387.02807903 C14.09505627 387.05393665 10.48496596 387.03664124 6.8722744 387.00850582 C5.825086 387.02616723 4.7778976 387.04382864 3.69897622 387.06202525 C-2.8874145 386.95112692 -6.25420931 385.5878107 -10.92131782 380.8919493 C-11.45355027 380.31374257 -11.98578273 379.73553584 -12.53414345 379.1398077 C-13.87145767 377.86535038 -13.87145767 377.86535038 -15.23578835 376.56514645 C-16.03219231 375.76953808 -16.82859627 374.97392971 -17.64913368 374.154212 C-18.56625633 373.24024151 -19.48337898 372.32627102 -20.42829323 371.38460445 C-21.39990268 370.41120633 -22.37138101 369.43767731 -23.3427372 368.46402645 C-24.36009345 367.44734531 -25.37759798 366.43081253 -26.39524269 365.41442013 C-28.51047003 363.30065597 -30.62390579 361.18512154 -32.73604774 359.0682745 C-35.44508917 356.35349249 -38.15865542 353.64328435 -40.87354374 350.93435097 C-42.9676559 348.84384451 -45.05939036 346.75097209 -47.15040207 344.65736485 C-48.15082901 343.65627093 -49.15199904 342.65591904 -50.15392303 341.65632343 C-51.54666937 340.26610844 -52.93588175 338.87235574 -54.32491493 337.47843075 C-55.11574974 336.68680035 -55.90658455 335.89516994 -56.72138405 335.07955074 C-59.44378959 332.16644093 -59.6608237 330.49088048 -59.67674446 326.60566425 C-59.68620637 325.16496573 -59.68620637 325.16496573 -59.69585943 323.69516218 C-59.69772143 322.63254309 -59.69958343 321.569924 -59.70150185 320.47510433 C-59.70729523 319.35197956 -59.71308862 318.22885478 -59.71905756 317.07169592 C-59.73719408 313.28239236 -59.74801122 309.49310379 -59.75875282 305.70377254 C-59.76669231 303.68643661 -59.77540997 301.66910513 -59.78423721 299.6517729 C-59.82617259 290.05145799 -59.85335529 280.45111806 -59.87789345 270.8507452 C-59.87986835 270.09314988 -59.88184325 269.33555455 -59.88387799 268.5550018 C-59.92304144 253.51409835 -59.95675013 238.47318666 -59.97896004 223.43224812 C-59.98392942 220.12431863 -59.98897373 216.81638928 -59.99410439 213.50846004 C-59.99537506 212.68627985 -59.99664573 211.86409966 -59.99795491 211.01700492 C-60.01931015 197.70136837 -60.06829921 184.38597877 -60.12834853 171.07046644 C-60.18948267 157.40173704 -60.22414989 143.733135 -60.23343325 130.06427062 C-60.23934375 122.38885985 -60.25709201 114.71386723 -60.30481911 107.03859234 C-60.34543452 100.50091628 -60.36229256 93.96372657 -60.34816629 87.42592995 C-60.34170139 84.09070556 -60.35034359 80.75735393 -60.38204002 77.4221487 C-60.41462264 73.8027157 -60.40402459 70.18587158 -60.38265419 66.56641293 C-60.40236196 65.51717817 -60.42206973 64.46794341 -60.44237471 63.38691366 C-60.34404199 56.79192176 -58.99081115 53.42414756 -54.28699476 48.75192362 C-53.70855382 48.21992537 -53.13011289 47.68792711 -52.53414345 47.1398077 C-51.25968613 45.80249348 -51.25968613 45.80249348 -49.95948219 44.4381628 C-48.76606964 43.24355686 -48.76606964 43.24355686 -47.54854774 42.02481747 C-46.63457726 41.10769482 -45.72060677 40.19057217 -44.7789402 39.24565792 C-43.80554207 38.27404847 -42.83201306 37.30257013 -41.8583622 36.33121395 C-40.84168106 35.3138577 -39.82514828 34.29635317 -38.80875587 33.27870846 C-36.69499171 31.16348112 -34.57945729 29.05004536 -32.46261024 26.9379034 C-29.74782824 24.22886198 -27.0376201 21.51529572 -24.32868671 18.80040741 C-22.23818026 16.70629525 -20.14530784 14.61456079 -18.05170059 12.52354908 C-17.05060668 11.52312214 -16.05025479 10.52195211 -15.05065918 9.52002811 C-13.66044419 8.12728178 -12.26669149 6.7380694 -10.87276649 5.34903622 C-10.08113609 4.55820141 -9.28950569 3.7673666 -8.47388649 2.9525671 C-5.56012129 0.22954908 -3.88602978 0.01339626 0 0 Z M-39.53414345 63.1398077 C-45.96171839 80.07865289 -45.58450572 98.6214759 -45.21677761 116.47567848 C-45.11920021 121.33778752 -45.10941655 126.19374315 -45.15440559 131.05655575 C-45.16084138 131.76033273 -45.16727717 132.46410972 -45.17390798 133.18921328 C-45.18734254 134.62092985 -45.20095963 136.05264471 -45.21475682 137.48435783 C-45.33327883 150.77303408 -45.19892058 164.04936017 -44.97114143 177.33600426 C-44.78351332 188.62832296 -44.81614549 199.90250306 -45.00972939 211.1944952 C-45.23685857 224.44856246 -45.32175771 237.69193309 -45.19401431 250.94767666 C-45.1806416 252.37280274 -45.16743789 253.79793042 -45.15440559 255.22305965 C-45.14468624 256.27361357 -45.14468624 256.27361357 -45.13477053 257.3453908 C-45.0991716 262.17698586 -45.159057 267.00144373 -45.25854683 271.83194637 C-45.77632798 299.59801619 -43.94470558 323.35563535 -24.60547197 344.75968874 C-5.21311836 364.73826236 14.88128884 370.47689543 42.16561323 370.9377417 C46.8528009 370.95217213 51.53458667 370.88909048 56.22057574 370.79067973 C61.12413335 370.69034302 66.02157852 370.67818095 70.92590714 370.72113132 C71.63552356 370.72727839 72.34513999 370.73342545 73.07625995 370.73975879 C74.51981623 370.75262068 75.96337083 370.76567208 77.4069237 370.77891044 C90.80622396 370.89232137 104.19323235 370.75353024 117.59039675 370.52107916 C128.97994228 370.32932812 140.35204916 370.35500077 151.74149132 370.53995419 C165.1071594 370.75689659 178.46261891 370.83551483 191.82974809 370.70559007 C193.26637115 370.69196567 194.7029957 370.6784991 196.13962173 370.6651926 C196.84565994 370.65857232 197.55169815 370.65195204 198.27913146 370.64513114 C203.15306224 370.60824564 208.02036088 370.66426143 212.89333344 370.75848103 C240.31447958 371.23658195 264.46251223 369.76870904 285.68507683 350.64071047 C305.38014226 331.5275344 310.69101034 311.39082663 311.14861923 284.55528241 C311.1652778 279.86434627 311.10655696 275.17848613 311.01319114 270.48862638 C310.91800339 265.58224592 310.90835978 260.68167797 310.95230293 255.77463436 C310.95858549 255.06488244 310.96486804 254.35513052 310.97134098 253.62387097 C310.98445545 252.18007323 310.99774832 250.73627709 311.01121722 249.29248261 C311.12696029 235.88679327 310.9956806 222.49276432 310.7734022 209.08899331 C310.59024352 197.69321803 310.62209725 186.31457147 310.8110714 174.91910458 C311.0327057 161.54875806 311.11571291 148.18851526 310.99096859 134.81658649 C310.97791404 133.37938617 310.96502471 131.94218434 310.95230293 130.50498104 C310.94597764 129.79864784 310.93965234 129.09231465 310.93313537 128.36457741 C310.89836085 123.48809612 310.95690403 118.61834723 311.05396461 113.74289608 C311.54828474 86.31184888 310.10720516 62.15151457 290.96708477 40.92026198 C271.86185869 21.23824125 251.72741883 15.90841888 224.90452164 15.43385464 C220.21647471 15.41427865 215.53347195 15.47008693 210.84643694 15.5607114 C205.94242768 15.65312227 201.04422325 15.66041161 196.13962173 15.6144228 C195.43015854 15.60785152 194.72069534 15.60128024 193.98973326 15.59450984 C192.54650124 15.58082276 191.10327084 15.56696418 189.6600421 15.5529364 C176.25914396 15.43206984 162.86986598 15.55894729 149.47076868 15.77653553 C138.08130744 15.95557323 126.70952528 15.91676011 115.32059288 15.7191534 C101.95639723 15.48735281 88.60270602 15.39803204 75.23672384 15.52060717 C73.79978651 15.53341009 72.36284759 15.54603656 70.92590714 15.55848408 C70.21971465 15.56466866 69.51352216 15.57085325 68.78592991 15.57722524 C63.91273181 15.61071976 59.0467153 15.5482876 54.17467499 15.44596958 C14.09267984 14.68109936 -20.67710803 24.09681704 -39.53414345 63.1398077 Z " fill="#F0B62F" transform="translate(122.53414344787598,62.86019229888916)"/>
<path d="M0 0 C11.55 0 23.1 0 35 0 C35.04125 3.320625 35.0825 6.64125 35.125 10.0625 C35.14320801 11.09511963 35.16141602 12.12773926 35.18017578 13.19165039 C35.26011572 26.55838139 35.26011572 26.55838139 30.5 31.4375 C24.59175952 36.22762185 15.12070093 34.4068972 8 34 C8 33.34 8 32.68 8 32 C7.1028125 31.9071875 7.1028125 31.9071875 6.1875 31.8125 C3.06907553 30.65422805 2.43175258 28.93168385 1 26 C0.02415635 22.87763126 -0.11662758 20.05994401 -0.09765625 16.796875 C-0.09515869 15.91354492 -0.09266113 15.03021484 -0.09008789 14.12011719 C-0.08098389 13.00797852 -0.07187988 11.89583984 -0.0625 10.75 C-0.041875 7.2025 -0.02125 3.655 0 0 Z " fill="#FECA62" transform="translate(353,464)"/>
<path d="M0 0 C11.55 0 23.1 0 35 0 C35.061875 3.485625 35.12375 6.97125 35.1875 10.5625 C35.22846802 12.18973999 35.22846802 12.18973999 35.27026367 13.84985352 C35.32747716 20.53768017 34.76477345 25.57168092 30.4375 30.9375 C29 32 29 32 27 32 C27 32.66 27 33.32 27 34 C8.93396018 35.03234513 8.93396018 35.03234513 4.5 31.4375 C-0.26541221 26.55295248 -0.21838931 19.58132162 -0.18017578 13.19165039 C-0.16196777 12.15903076 -0.14375977 11.12641113 -0.125 10.0625 C-0.08375 6.741875 -0.0425 3.42125 0 0 Z " fill="#FECA62" transform="translate(124,464)"/>
<path d="M0 0 C18.06603982 -1.03234513 18.06603982 -1.03234513 22.5 2.5625 C27.26541221 7.44704752 27.21838931 14.41867838 27.18017578 20.80834961 C27.16196777 21.84096924 27.14375977 22.87358887 27.125 23.9375 C27.08375 27.258125 27.0425 30.57875 27 34 C15.45 34 3.9 34 -8 34 C-8.061875 30.514375 -8.12375 27.02875 -8.1875 23.4375 C-8.21481201 22.35267334 -8.24212402 21.26784668 -8.27026367 20.15014648 C-8.32747716 13.46231983 -7.76477345 8.42831908 -3.4375 3.0625 C-2 2 -2 2 0 2 C0 1.34 0 0.68 0 0 Z " fill="#D29900" transform="translate(361,14)"/>
<path d="M0 0 C0 0.66 0 1.32 0 2 C0.598125 2.061875 1.19625 2.12375 1.8125 2.1875 C4.93092447 3.34577195 5.56824742 5.06831615 7 8 C7.97584365 11.12236874 8.11662758 13.94005599 8.09765625 17.203125 C8.09515869 18.08645508 8.09266113 18.96978516 8.09008789 19.87988281 C8.08098389 20.99202148 8.07187988 22.10416016 8.0625 23.25 C8.041875 26.7975 8.02125 30.345 8 34 C-3.55 34 -15.1 34 -27 34 C-27.04125 30.679375 -27.0825 27.35875 -27.125 23.9375 C-27.14320801 22.90488037 -27.16141602 21.87226074 -27.18017578 20.80834961 C-27.26011572 7.44161861 -27.26011572 7.44161861 -22.5 2.5625 C-16.59175952 -2.22762185 -7.12070093 -0.4068972 0 0 Z " fill="#D29900" transform="translate(151,14)"/>
<path d="M0 0 C3.485625 -0.061875 6.97125 -0.12375 10.5625 -0.1875 C12.18973999 -0.22846802 12.18973999 -0.22846802 13.84985352 -0.27026367 C21.34359876 -0.33437169 25.76814352 0.62619706 31.8984375 5.12890625 C34.80646122 9.10176393 34.7426536 12.13331135 34.625 16.9375 C34.64433594 17.72318359 34.66367187 18.50886719 34.68359375 19.31835938 C34.64831133 23.53460907 34.18708958 25.68997608 31.9609375 29.37890625 C25.30048054 35.27490443 18.60090165 35.41701084 10 35.1875 C6.7 35.125625 3.4 35.06375 0 35 C0 23.45 0 11.9 0 0 Z " fill="#FECA62" transform="translate(464,353)"/>
<path d="M0 0 C5.2284375 0.0928125 5.2284375 0.0928125 10.5625 0.1875 C10.5625 11.7375 10.5625 23.2875 10.5625 35.1875 C5.6125 35.2803125 5.6125 35.2803125 0.5625 35.375 C-0.97277344 35.41596802 -0.97277344 35.41596802 -2.5390625 35.45776367 C-10.14679363 35.52621559 -15.60361044 34.69612783 -21.3984375 29.56640625 C-24.02194544 25.2190224 -24.18500814 22.10291426 -24.0625 17.125 C-24.08183594 16.33544922 -24.10117187 15.54589844 -24.12109375 14.73242188 C-24.0867542 10.63571378 -23.81024027 8.69672695 -21.3359375 5.31640625 C-14.19727143 0.0730464 -8.6444009 -0.21763475 0 0 Z " fill="#FECA62" transform="translate(37.4375,352.8125)"/>
<path d="M0 0 C3.3 -0.061875 6.6 -0.12375 10 -0.1875 C11.53527344 -0.22846802 11.53527344 -0.22846802 13.1015625 -0.27026367 C20.70929363 -0.33871559 26.16611044 0.49137217 31.9609375 5.62109375 C34.58444544 9.9684776 34.74750814 13.08458574 34.625 18.0625 C34.64433594 18.85205078 34.66367187 19.64160156 34.68359375 20.45507812 C34.6492542 24.55178622 34.37274027 26.49077305 31.8984375 29.87109375 C24.75977143 35.1144536 19.2069009 35.40513475 10.5625 35.1875 C5.3340625 35.0946875 5.3340625 35.0946875 0 35 C0 23.45 0 11.9 0 0 Z " fill="#DFA301" transform="translate(464,124)"/>
<path d="M0 0 C3.3 0.061875 6.6 0.12375 10 0.1875 C10 11.7375 10 23.2875 10 35.1875 C6.514375 35.249375 3.02875 35.31125 -0.5625 35.375 C-2.18973999 35.41596802 -2.18973999 35.41596802 -3.84985352 35.45776367 C-11.34359876 35.52187169 -15.76814352 34.56130294 -21.8984375 30.05859375 C-24.80646122 26.08573607 -24.7426536 23.05418865 -24.625 18.25 C-24.64433594 17.46431641 -24.66367187 16.67863281 -24.68359375 15.86914062 C-24.64831133 11.65289093 -24.18708958 9.49752392 -21.9609375 5.80859375 C-15.30048054 -0.08740443 -8.60090165 -0.22951084 0 0 Z " fill="#EAAB02" transform="translate(38,123.8125)"/>
<path d="M0 0 C1.18529297 -0.04253906 1.18529297 -0.04253906 2.39453125 -0.0859375 C6.54761492 -0.09975808 9.28117792 0.18368487 12.5703125 2.84375 C16.48164341 6.91057725 17.37439987 8.9365132 17.3203125 14.48046875 C17.31531738 15.52871826 17.31032227 16.57696777 17.30517578 17.65698242 C17.28696777 18.98705322 17.26875977 20.31712402 17.25 21.6875 C17.20875 25.915625 17.1675 30.14375 17.125 34.5 C5.905 34.5 -5.315 34.5 -16.875 34.5 C-16.9575 30.313125 -17.04 26.12625 -17.125 21.8125 C-17.16141602 20.50063721 -17.19783203 19.18877441 -17.23535156 17.8371582 C-17.2453418 16.79390381 -17.25533203 15.75064941 -17.265625 14.67578125 C-17.28657227 13.61270752 -17.30751953 12.54963379 -17.32910156 11.4543457 C-16.65306994 7.05614215 -14.15279319 4.84256611 -11.1796875 1.71875 C-7.55700402 -0.19697415 -4.03618754 -0.01304099 0 0 Z " fill="#D29900" transform="translate(255.875,13.5)"/>
<path d="M0 0 C11.22 0 22.44 0 34 0 C34.0825 4.00125 34.165 8.0025 34.25 12.125 C34.28641602 13.37555176 34.32283203 14.62610352 34.36035156 15.91455078 C34.42363847 22.25038635 34.42227604 26.28393639 30 31 C29.16082031 31.91265625 29.16082031 31.91265625 28.3046875 32.84375 C24.66823717 34.66813864 21.13731674 34.51296387 17.125 34.5 C16.33480469 34.52835937 15.54460937 34.55671875 14.73046875 34.5859375 C10.57738508 34.59975808 7.84382208 34.31631513 4.5546875 31.65625 C0.64335659 27.58942275 -0.24939987 25.5634868 -0.1953125 20.01953125 C-0.19031738 18.97128174 -0.18532227 17.92303223 -0.18017578 16.84301758 C-0.16196777 15.51294678 -0.14375977 14.18287598 -0.125 12.8125 C-0.08375 8.584375 -0.0425 4.35625 0 0 Z " fill="#FECA62" transform="translate(239,464)"/>
<path d="M0 0 C11.22 0 22.44 0 34 0 C34.0825 4.00125 34.165 8.0025 34.25 12.125 C34.28641602 13.37555176 34.32283203 14.62610352 34.36035156 15.91455078 C34.42363847 22.25038635 34.42227604 26.28393639 30 31 C29.16082031 31.91265625 29.16082031 31.91265625 28.3046875 32.84375 C24.66823717 34.66813864 21.13731674 34.51296387 17.125 34.5 C16.33480469 34.52835937 15.54460937 34.55671875 14.73046875 34.5859375 C10.65640469 34.59949512 7.83391455 34.32180478 4.5546875 31.78125 C0.62073947 27.49841973 -0.25673613 24.00482838 -0.1953125 18.26171875 C-0.19031738 17.29967529 -0.18532227 16.33763184 -0.18017578 15.34643555 C-0.16196777 14.13898682 -0.14375977 12.93153809 -0.125 11.6875 C-0.08375 7.830625 -0.0425 3.97375 0 0 Z " fill="#FECA62" transform="translate(296,464)"/>
<path d="M0 0 C4.00125 -0.0825 8.0025 -0.165 12.125 -0.25 C13.37555176 -0.28641602 14.62610352 -0.32283203 15.91455078 -0.36035156 C22.25038635 -0.42363847 26.28393639 -0.42227604 31 4 C31.6084375 4.55945313 32.216875 5.11890625 32.84375 5.6953125 C34.66813864 9.33176283 34.51296387 12.86268326 34.5 16.875 C34.52835937 17.66519531 34.55671875 18.45539063 34.5859375 19.26953125 C34.59962619 23.38298299 34.3190859 26.16099254 31.71875 29.4453125 C27.51544801 33.39496695 24.89660996 34.25404704 19.140625 34.1953125 C18.13547852 34.19031738 17.13033203 34.18532227 16.09472656 34.18017578 C14.19158691 34.15286377 14.19158691 34.15286377 12.25 34.125 C8.2075 34.08375 4.165 34.0425 0 34 C0 22.78 0 11.56 0 0 Z " fill="#FEBB10" transform="translate(464,239)"/>
<path d="M0 0 C1.00514648 0.00499512 2.01029297 0.00999023 3.04589844 0.01513672 C4.94903809 0.04244873 4.94903809 0.04244873 6.890625 0.0703125 C12.954375 0.1321875 12.954375 0.1321875 19.140625 0.1953125 C19.140625 11.4153125 19.140625 22.6353125 19.140625 34.1953125 C15.139375 34.2778125 11.138125 34.3603125 7.015625 34.4453125 C5.76507324 34.48172852 4.51452148 34.51814453 3.22607422 34.55566406 C-3.10976135 34.61895097 -7.14331139 34.61758854 -11.859375 30.1953125 C-12.4678125 29.63585937 -13.07625 29.07640625 -13.703125 28.5 C-15.52751364 24.86354967 -15.37233887 21.33262924 -15.359375 17.3203125 C-15.38773438 16.53011719 -15.41609375 15.73992187 -15.4453125 14.92578125 C-15.45900119 10.81232951 -15.1784609 8.03431996 -12.578125 4.75 C-8.37482301 0.80034555 -5.75598496 -0.05873454 0 0 Z " fill="#FEBE2D" transform="translate(28.859375,238.8046875)"/>
<path d="M0 0 C1.17852539 -0.03577148 1.17852539 -0.03577148 2.38085938 -0.07226562 C6.47427168 -0.06198928 9.23869071 0.26422168 12.50390625 2.84765625 C16.46066616 7.04605036 17.31655181 9.66542234 17.2578125 15.421875 C17.25281738 16.42702148 17.24782227 17.43216797 17.24267578 18.46777344 C17.22446777 19.7365332 17.20625977 21.00529297 17.1875 22.3125 C17.14625 26.355 17.105 30.3975 17.0625 34.5625 C5.8425 34.5625 -5.3775 34.5625 -16.9375 34.5625 C-16.999375 30.72625 -17.06125 26.89 -17.125 22.9375 C-17.15231201 21.73915527 -17.17962402 20.54081055 -17.20776367 19.30615234 C-17.26351175 12.16680168 -16.76040895 7.66511002 -11.80859375 2.22265625 C-7.81978362 -0.08379859 -4.53098201 -0.06287893 0 0 Z " fill="#D29900" transform="translate(312.9375,13.4375)"/>
<path d="M0 0 C11.22 0 22.44 0 34 0 C34.0825 3.815625 34.165 7.63125 34.25 11.5625 C34.28641602 12.75174072 34.32283203 13.94098145 34.36035156 15.16625977 C34.44083704 22.87663908 33.49783208 27.06695379 28.3046875 32.90625 C24.65460391 34.63849306 21.11473601 34.51289091 17.125 34.5 C16.33480469 34.52835937 15.54460937 34.55671875 14.73046875 34.5859375 C10.61701701 34.59962619 7.83900746 34.3190859 4.5546875 31.71875 C0.60503305 27.51544801 -0.25404704 24.89660996 -0.1953125 19.140625 C-0.19031738 18.13547852 -0.18532227 17.13033203 -0.18017578 16.09472656 C-0.16196777 14.8259668 -0.14375977 13.55720703 -0.125 12.25 C-0.08375 8.2075 -0.0425 4.165 0 0 Z " fill="#FECA62" transform="translate(182,464)"/>
<path d="M0 0 C0.79857422 -0.01998047 1.59714844 -0.03996094 2.41992188 -0.06054688 C6.27633432 -0.05735184 8.54473557 0.14032991 11.94140625 2.08984375 C17.76876913 8.53965055 17.4389879 14.52044685 17.25 22.8125 C17.188125 26.64875 17.12625 30.485 17.0625 34.4375 C5.8425 34.4375 -5.3775 34.4375 -16.9375 34.4375 C-17.02 30.43625 -17.1025 26.435 -17.1875 22.3125 C-17.22391602 21.06194824 -17.26033203 19.81139648 -17.29785156 18.52294922 C-17.36113847 12.18711365 -17.35977604 8.15356361 -12.9375 3.4375 C-12.10025391 2.52291016 -12.10025391 2.52291016 -11.24609375 1.58984375 C-7.5915274 -0.23434758 -4.02662081 -0.03557657 0 0 Z " fill="#D29900" transform="translate(198.9375,13.5625)"/>
<path d="M0 0 C5.754375 -0.12375 5.754375 -0.12375 11.625 -0.25 C12.82334473 -0.28641602 14.02168945 -0.32283203 15.25634766 -0.36035156 C21.3625029 -0.4239253 25.26288291 -0.2738659 30 4 C30.7734375 4.55816406 31.546875 5.11632812 32.34375 5.69140625 C34.90493113 9.26135447 34.58258109 12.65360591 34.5 16.9375 C34.51546875 17.73607422 34.5309375 18.53464844 34.546875 19.35742188 C34.5213574 23.20738974 34.29231188 25.49190128 32.34375 28.87890625 C25.90029058 34.71023703 19.9132669 34.37640161 11.625 34.1875 C7.78875 34.125625 3.9525 34.06375 0 34 C0 22.78 0 11.56 0 0 Z " fill="#FEC656" transform="translate(464,296)"/>
<path d="M0 0 C0.96953613 0.00249756 1.93907227 0.00499512 2.93798828 0.00756836 C4.79012939 0.02122437 4.79012939 0.02122437 6.6796875 0.03515625 C10.5984375 0.05578125 14.5171875 0.07640625 18.5546875 0.09765625 C18.5546875 11.31765625 18.5546875 22.53765625 18.5546875 34.09765625 C12.83125 34.22140625 12.83125 34.22140625 6.9921875 34.34765625 C5.80294678 34.38407227 4.61370605 34.42048828 3.38842773 34.45800781 C-4.30770776 34.53834461 -8.52671836 33.61227161 -14.33984375 28.3984375 C-17.13484491 22.5812796 -16.72831567 14.31954794 -15.4453125 8.09765625 C-11.72408761 2.25845529 -6.7110954 -0.03532155 0 0 Z " fill="#FEC960" transform="translate(29.4453125,295.90234375)"/>
<path d="M0 0 C5.7234375 -0.12375 5.7234375 -0.12375 11.5625 -0.25 C12.75174072 -0.28641602 13.94098145 -0.32283203 15.16625977 -0.36035156 C22.86239526 -0.44068836 27.08140586 0.48538464 32.89453125 5.69921875 C35.68953241 11.51637665 35.28300317 19.77810831 34 26 C31.40734939 30.06828622 28.21598924 31.89200538 24 34 C22.18658158 34.08471364 20.37005839 34.10721083 18.5546875 34.09765625 C17.58515137 34.09515869 16.61561523 34.09266113 15.61669922 34.09008789 C14.38193848 34.08098389 13.14717773 34.07187988 11.875 34.0625 C5.996875 34.0315625 5.996875 34.0315625 0 34 C0 22.78 0 11.56 0 0 Z " fill="#FCB804" transform="translate(464,182)"/>
<path d="M0 0 C3.83625 0.061875 7.6725 0.12375 11.625 0.1875 C11.625 11.4075 11.625 22.6275 11.625 34.1875 C5.870625 34.31125 5.870625 34.31125 0 34.4375 C-1.19834473 34.47391602 -2.39668945 34.51033203 -3.63134766 34.54785156 C-9.7375029 34.6114253 -13.63788291 34.4613659 -18.375 30.1875 C-19.1484375 29.62933594 -19.921875 29.07117188 -20.71875 28.49609375 C-23.27993113 24.92614553 -22.95758109 21.53389409 -22.875 17.25 C-22.89046875 16.45142578 -22.9059375 15.65285156 -22.921875 14.83007812 C-22.8963574 10.98011026 -22.66731188 8.69559872 -20.71875 5.30859375 C-14.27529058 -0.52273703 -8.2882669 -0.18890161 0 0 Z " fill="#FEBA05" transform="translate(36.375,181.8125)"/>
<path d="M0 0 C5.23296526 -0.04585851 10.46523624 -0.08569905 15.69824219 -0.10986328 C17.47919067 -0.11993431 19.26012257 -0.13359185 21.04101562 -0.15087891 C23.59769783 -0.17507913 26.15416185 -0.18647184 28.7109375 -0.1953125 C29.90944839 -0.21079636 29.90944839 -0.21079636 31.13217163 -0.22659302 C33.0895722 -0.22699226 35.04643077 -0.12241069 37 0 C39 2 39 2 39.265625 4.96875 C39.26046875 6.1340625 39.2553125 7.299375 39.25 8.5 C39.25773437 10.24796875 39.25773437 10.24796875 39.265625 12.03125 C39 15 39 15 37 17 C34.20315203 17.17525055 31.5067192 17.23143189 28.7109375 17.1953125 C27.48330185 17.19106766 27.48330185 17.19106766 26.23086548 17.18673706 C23.61209607 17.17552532 20.99366636 17.15041929 18.375 17.125 C16.60156743 17.11497147 14.82812951 17.1058454 13.0546875 17.09765625 C8.70288825 17.07728266 4.35182519 17.03813673 0 17 C0 11.39 0 5.78 0 0 Z " fill="#FEBB0B" transform="translate(240,236)"/>
</svg>
