<svg version="1.2" xmlns="http://www.w3.org/2000/svg" viewBox="0 0 42 32" width="42" height="32"><defs><linearGradient id="P" gradientUnits="userSpaceOnUse"/><linearGradient id="g1" x2="1" href="#P" gradientTransform="matrix(18.87,32.354,-36.41,21.236,3.699,4.898)"><stop offset=".26" stop-color="#ffdb6e"/><stop offset="1" stop-color="#ffbc5e"/></linearGradient><linearGradient id="g2" x2="1" href="#P" gradientTransform="matrix(1.612,.499,-0.979,3.165,1.177,18.736)"><stop offset=".26" stop-color="#ffdb6e"/><stop offset="1" stop-color="#ffbc5e"/></linearGradient><linearGradient id="g3" x2="1" href="#P" gradientTransform="matrix(1.612,.499,-0.979,3.165,1.177,18.736)"><stop offset=".26" stop-color="#ffdb6e"/><stop offset="1" stop-color="#ffbc5e"/></linearGradient><linearGradient id="g4" x2="1" href="#P" gradientTransform="matrix(24.415,35.709,-38.427,26.273,3.267,.9)"><stop offset=".26" stop-color="#ffdb6e"/><stop offset="1" stop-color="#ffbc5e"/></linearGradient><linearGradient id="g5" x2="1" href="#P" gradientTransform="matrix(24.415,35.709,-38.427,26.273,3.267,.9)"><stop offset=".26" stop-color="#ffdb6e"/><stop offset="1" stop-color="#ffbc5e"/></linearGradient><linearGradient id="g6" x2="1" href="#P" gradientTransform="matrix(13.39,14.793,-14.793,13.391,14.121,12.223)"><stop offset=".26" stop-color="#ffdb6e"/><stop offset="1" stop-color="#ffbc5e"/></linearGradient><linearGradient id="g7" x2="1" href="#P" gradientTransform="matrix(13.39,14.793,-14.793,13.391,14.121,12.223)"><stop offset=".26" stop-color="#ffdb6e"/><stop offset="1" stop-color="#ffbc5e"/></linearGradient><linearGradient id="g8" x2="1" href="#P" gradientTransform="matrix(9.287,10.26,-10.26,9.287,16.229,14.6)"><stop offset=".26" stop-color="#ffdb6e"/><stop offset="1" stop-color="#ffbc5e"/></linearGradient><linearGradient id="g9" x2="1" href="#P" gradientTransform="matrix(9.287,10.26,-10.26,9.287,16.229,14.6)"><stop offset=".26" stop-color="#ffdb6e"/><stop offset="1" stop-color="#ffbc5e"/></linearGradient></defs><style>.a{opacity:.1;fill:url(#g1)}.b{fill:url(#g2);stroke:url(#g3);stroke-width:.4}.c{fill:url(#g4);stroke:url(#g5);stroke-width:.4}.d{fill:url(#g6);stroke:url(#g7);stroke-width:.4}.e{fill:url(#g8);stroke:url(#g9);stroke-width:.4}</style><path fill-rule="evenodd" class="a" d="m1.5 6.9c0-1.1 0.9-2 2-2h34.8c1.1 0 2 0.9 2 2v21c0 1.1-0.9 2-2 2h-14.1c4.2-1.4 7.3-5.3 7.3-10 0-5.8-4.7-10.5-10.5-10.5-5.8 0-10.5 4.7-10.5 10.5 0 4.7 3.1 8.6 7.3 10h-14.3c-1.1 0-2-0.9-2-2zm14.5 13c0-2.8 2.2-5 5-5 2.8 0 5 2.2 5 5 0 2.7-2.2 5-5 5-2.8 0-5-2.3-5-5z"/><path class="b" d="m2 21.6c0 0.2-0.2 0.4-0.4 0.4-0.3 0-0.5-0.2-0.5-0.4v-2.4c0-0.3 0.2-0.5 0.5-0.5 0.2 0 0.4 0.2 0.4 0.5z"/><path fill-rule="evenodd" class="c" d="m41 7v20.8c0 1.2-1 2.2-2.3 2.2h-12.9q0 0 0 0c-1.5 0.7-3.1 1.1-4.8 1.1-1.7 0-3.3-0.4-4.8-1.1h-12.9c-1.3 0-2.3-1-2.3-2.2v-3.7c0-0.3 0.3-0.6 0.6-0.6 0.3 0 0.6 0.3 0.6 0.6v2.3h9.7c-1.3-1.8-2-4-2-6.4 0-3.7 1.7-6.9 4.4-8.9h-4.6c-0.3 0.9-1.1 1.6-2.2 1.6-1 0-1.9-0.7-2.1-1.6h-3.2v5.5c0 0.4-0.3 0.6-0.6 0.6-0.3 0-0.6-0.2-0.6-0.6v-9.6c0-1.3 1-2.3 2.3-2.3h1.4v-1.4c0-0.8 0.6-1.4 1.4-1.4h6.1c0.8 0 1.5 0.6 1.5 1.4v1.4h1.3v-0.6c0-0.8 0.7-1.4 1.4-1.4h1.2c0.8 0 1.4 0.6 1.4 1.4v0.6h8.3v-0.3c0-0.7 0.7-1.4 1.5-1.4h0.2v-0.7c0-0.8 0.6-1.4 1.4-1.4h2.8c0.8 0 1.4 0.6 1.4 1.4v0.7h0.3c0.8 0 1.4 0.7 1.4 1.4v0.3h2.4c1.3 0 2.3 1 2.3 2.3zm-10.8-4.7v0.7h3.3v-0.7c0-0.1-0.1-0.2-0.3-0.2h-2.8c-0.1 0-0.2 0.1-0.2 0.2zm-1.7 2.1v0.3h6.6v-0.3c0-0.1-0.1-0.2-0.2-0.2h-6.1c-0.2 0-0.3 0.1-0.3 0.2zm-12.3 0.3h1.6v-0.6c0-0.1-0.1-0.2-0.2-0.2h-1.2c-0.1 0-0.2 0.1-0.2 0.2zm-10.4 0h6.7v-1.4c0-0.2-0.1-0.3-0.3-0.3h-6.1c-0.1 0-0.3 0.1-0.3 0.3zm2.8 5.7c0-0.5-0.5-1-1.1-1-0.6 0-1 0.5-1 1 0 0.6 0.4 1.1 1 1.1 0.6 0 1.1-0.5 1.1-1.1zm7.7-0.5c1.4-0.7 3-1.1 4.7-1.1 1.7 0 3.3 0.4 4.7 1.1h5.8v-2.2c0-0.3 0.2-0.6 0.5-0.6h5.5c0.3 0 0.6 0.3 0.6 0.6v2.2h1.7v-3c0-0.6-0.5-1.1-1.1-1.1h-35.4c-0.6 0-1.1 0.5-1.1 1.1v3h3.2c0.2-1 1.1-1.7 2.1-1.7 1.1 0 1.9 0.7 2.2 1.7zm20.6 0v-1.6h-4.3v1.6zm-22.6 18.9q-0.7-0.6-1.4-1.3h-10.7v0.2c0 0.6 0.5 1.1 1.1 1.1zm6.7 1.1c5.5 0 9.9-4.5 9.9-10 0-1.6-0.4-3.2-1.1-4.6-0.2-0.3-0.1-0.6 0.2-0.8 0.3-0.1 0.7 0 0.8 0.3q0.7 1.2 1 2.6h1.6c0.9 0 1.6 0.7 1.6 1.6v1.5c0 0.8-0.7 1.5-1.6 1.5h-1.5c-0.3 1.6-1 3.1-1.8 4.3h9.7v-15.3h-12.2q0.9 0.7 1.7 1.6c0.2 0.2 0.2 0.6-0.1 0.8-0.2 0.2-0.6 0.2-0.8-0.1-1.9-2.1-4.6-3.3-7.4-3.3-5.5 0-10 4.4-10 9.9 0 5.5 4.5 10 10 10zm11.1-10q0 0.5-0.1 1h1.4c0.2 0 0.4-0.2 0.4-0.4v-1.5c0-0.2-0.2-0.4-0.4-0.4h-1.4q0.1 0.7 0.1 1.3zm7.7 7.8v-0.2h-10.7q-0.7 0.7-1.5 1.3h11.1c0.6 0 1.1-0.5 1.1-1.1z"/><path fill-rule="evenodd" class="d" d="m13.2 20c0-4.3 3.5-7.8 7.8-7.8 4.3 0 7.8 3.5 7.8 7.8 0 4.3-3.5 7.7-7.8 7.7-4.3 0-7.8-3.4-7.8-7.7zm1 0c0 3.7 3 6.8 6.8 6.8 3.8 0 6.8-3.1 6.8-6.8 0-3.8-3-6.9-6.8-6.9-3.8 0-6.8 3.1-6.8 6.9z"/><path fill-rule="evenodd" class="e" d="m15.6 20c0-3 2.4-5.4 5.4-5.4 3 0 5.4 2.4 5.4 5.4 0 2.9-2.4 5.4-5.4 5.4-3 0-5.4-2.5-5.4-5.4zm0.9 0c0 2.4 2 4.4 4.5 4.4 2.5 0 4.5-2 4.5-4.4 0-2.5-2-4.5-4.5-4.5-2.5 0-4.5 2-4.5 4.5z"/></svg>