<?xml version="1.0" encoding="UTF-8"?>
<svg version="1.1" xmlns="http://www.w3.org/2000/svg" width="100" height="100">
<path d="M0 0 C12.02455575 7.47196504 19.31545202 17.85600807 22.55078125 31.6796875 C24.09874673 46.14402863 21.83179603 59.13237842 12.55078125 70.6796875 C5.37704832 79.41362693 -5.09238891 85.67832495 -16.49780273 86.89892578 C-31.81491286 87.73007332 -43.56998613 84.79412166 -55.5703125 74.9375 C-63.72865131 67.50400415 -69.18353143 56.56773448 -69.78515625 45.48046875 C-70.09975075 29.85272768 -66.49119898 18.19930896 -55.82421875 6.4921875 C-41.11397066 -7.65336777 -17.55171103 -9.46168792 0 0 Z M-52.62109375 17.36328125 C-59.14666083 25.63178826 -61.27505161 35.36428436 -60.44921875 45.6796875 C-58.41882608 56.27929649 -52.92038038 64.99418388 -44.44921875 71.6796875 C-34.55416004 77.28642484 -24.45720139 79.52845549 -13.32421875 76.4921875 C-4.07116909 73.36928324 4.25221446 67.501168 9.12890625 58.89453125 C13.93596368 48.63118737 15.19067348 38.93214596 11.51953125 28.0546875 C7.16482406 17.37863116 -0.29121523 10.09157033 -10.8359375 5.58984375 C-26.55482655 0.11525309 -41.45947678 5.78420223 -52.62109375 17.36328125 Z " fill="#F0B62B" transform="translate(73.44921875,9.3203125)"/>
<path d="M0 0 C4.43713201 1.17247001 6.57774575 3.46947542 9.4375 7.0625 C11.81335822 11.81421643 11.64074076 16.82719043 11 22 C9.3544242 26.7635089 7.17432416 29.21711723 3 32 C-0.90948863 33.8975487 -3.98609906 34.22008573 -8.3125 34.125 C-9.38113281 34.10695312 -10.44976562 34.08890625 -11.55078125 34.0703125 C-12.76314453 34.03550781 -12.76314453 34.03550781 -14 34 C-13.98839844 35.07121094 -13.97679687 36.14242187 -13.96484375 37.24609375 C-13.95546701 38.64322743 -13.94636669 40.04036299 -13.9375 41.4375 C-13.92912109 42.14455078 -13.92074219 42.85160156 -13.91210938 43.58007812 C-13.90346412 45.38693559 -13.94779989 47.19387603 -14 49 C-15 50 -15 50 -18.5 50.125 C-22 50 -22 50 -23 49 C-23.13851404 46.04038492 -23.21321937 43.10584728 -23.23828125 40.14453125 C-23.246353 39.2501384 -23.25442474 38.35574554 -23.26274109 37.43424988 C-23.27660227 35.5352066 -23.28731528 33.63613819 -23.29516602 31.73706055 C-23.31232635 28.84179781 -23.35618714 25.94769237 -23.40039062 23.05273438 C-23.41052184 21.20834174 -23.4190366 19.36393938 -23.42578125 17.51953125 C-23.44328934 16.65681107 -23.46079742 15.79409088 -23.47883606 14.90522766 C-23.45930469 9.4497239 -22.67479852 6.30255757 -19 2 C-13.61282705 -1.59144863 -6.28858183 -0.49679796 0 0 Z M-14 11 C-14.24360073 14.12814514 -14.24360073 14.12814514 -14.125 17.625 C-14.10695313 18.81351563 -14.08890625 20.00203125 -14.0703125 21.2265625 C-14.04710937 22.14179687 -14.02390625 23.05703125 -14 24 C-6.14398161 24.81698569 -6.14398161 24.81698569 0.8125 21.9375 C2.36411552 18.0992932 2.1708535 15.95163055 1 12 C-0.40130685 9.86424561 -0.40130685 9.86424561 -3 9 C-9.05204711 8.19021441 -9.05204711 8.19021441 -14 11 Z " fill="#F2B41F" transform="translate(56,25)"/>
<path d="M0 0 C0.5775 0.226875 1.155 0.45375 1.75 0.6875 C0.6671875 1.30625 0.6671875 1.30625 -0.4375 1.9375 C-3.22969862 3.67486803 -5.72012585 5.59131857 -8.25 7.6875 C-6.86345583 3.41232214 -5.12511737 -0.71182186 0 0 Z " fill="#CF9807" transform="translate(42.25,25.3125)"/>
</svg>
