<?xml version="1.0" standalone="no"?>
<!DOCTYPE svg PUBLIC "-//W3C//DTD SVG 20010904//EN"
 "http://www.w3.org/TR/2001/REC-SVG-20010904/DTD/svg10.dtd">
<svg version="1.0" xmlns="http://www.w3.org/2000/svg"
 width="3430.000000pt" height="3430.000000pt" viewBox="0 0 3430.000000 3430.000000"
 preserveAspectRatio="xMidYMid meet">

<g transform="translate(0.000000,3430.000000) scale(0.100000,-0.100000)"
fill="#000000" stroke="none">
<path d="M10145 33623 c-2491 -128 -4810 -1158 -6570 -2918 -1626 -1626 -2633
-3733 -2874 -6015 -48 -454 -46 -89 -46 -7540 0 -7451 -2 -7086 46 -7540 241
-2283 1248 -4389 2874 -6015 1407 -1407 3184 -2357 5121 -2739 590 -116 1091
-170 1734 -185 556 -14 13551 -6 13770 8 840 54 1526 172 2265 387 3135 916
5644 3333 6678 6434 280 839 437 1665 498 2615 15 239 25 13161 10 13700 -11
403 -26 657 -56 925 -254 2268 -1257 4352 -2870 5965 -1614 1614 -3711 2622
-5970 2870 -486 53 109 49 -7525 50 -3864 1 -7052 0 -7085 -2z m8523 -5068
c-3 -13 -2 -22 2 -20 14 9 22 -28 25 -110 2 -44 6 -88 10 -97 8 -19 8 -96 1
-248 -3 -75 -2 -98 5 -80 8 19 12 22 19 10 7 -11 11 -7 20 16 7 16 16 37 21
46 5 10 9 23 9 30 0 7 10 24 21 38 l20 25 -6 -35 -6 -35 19 22 c11 12 23 19
27 15 5 -4 5 -2 1 5 -9 16 28 53 52 53 13 0 18 -7 18 -22 -1 -17 4 -22 17 -20
10 2 17 -3 17 -12 0 -9 9 -21 20 -28 11 -7 20 -20 20 -29 0 -8 3 -19 8 -23 4
-4 7 -24 7 -44 0 -33 3 -37 23 -34 20 3 23 0 18 -16 -8 -25 10 -38 22 -16 8
14 12 12 30 -11 12 -15 22 -38 22 -51 0 -12 3 -29 6 -38 11 -28 24 -6 24 40 0
24 5 44 10 44 6 0 10 -18 10 -40 0 -26 8 -51 21 -69 12 -16 18 -34 15 -40 -8
-13 41 -34 56 -25 7 4 8 2 4 -4 -4 -6 0 -28 9 -48 19 -47 11 -58 -9 -13 l-15
34 6 -40 c3 -22 6 -47 6 -55 0 -8 6 -22 13 -31 8 -8 16 -44 19 -79 5 -59 4
-62 -15 -57 -11 3 -18 1 -14 -4 3 -5 12 -9 20 -9 17 0 19 -16 3 -26 -8 -4 -8
-9 0 -17 17 -17 13 -25 -11 -30 -23 -4 -23 -4 -2 -12 12 -3 27 -18 33 -31 15
-33 14 -33 -10 -27 l-20 6 20 -38 c14 -27 17 -43 11 -55 -5 -10 -7 -19 -5 -21
8 -8 24 -135 30 -234 9 -153 25 -315 35 -354 18 -74 41 -157 50 -181 5 -14 11
-63 15 -110 3 -47 12 -107 21 -135 8 -27 17 -95 21 -150 3 -55 11 -109 18
-120 28 -45 5 -677 -27 -742 -6 -12 -8 -33 -6 -47 3 -14 1 -26 -3 -26 -5 0 -9
-6 -9 -12 0 -26 -71 -155 -105 -192 -19 -21 -35 -44 -35 -52 0 -7 -4 -15 -9
-19 -5 -3 -17 -29 -27 -58 -9 -28 -22 -63 -29 -77 -17 -34 -42 -100 -50 -130
-3 -14 -10 -34 -15 -45 -5 -11 -14 -42 -20 -70 -6 -27 -12 -55 -13 -61 -2 -7
-8 -18 -13 -25 -15 -19 -25 -48 -30 -88 -2 -18 -9 -41 -14 -51 -6 -10 -10 -26
-10 -34 0 -9 -9 -35 -20 -59 -10 -23 -35 -91 -55 -152 -19 -60 -43 -123 -52
-139 -10 -18 -11 -26 -3 -21 9 6 10 3 1 -14 -7 -11 -18 -21 -26 -21 -8 0 -15
-6 -15 -14 0 -8 -12 -24 -26 -35 -14 -11 -23 -25 -20 -30 9 -14 -32 -58 -60
-65 -13 -4 -24 -12 -24 -20 0 -18 -37 -49 -49 -41 -6 3 -11 1 -11 -5 0 -7 -7
-10 -15 -6 -9 3 -24 -3 -35 -14 -11 -11 -23 -19 -26 -19 -13 3 -43 -25 -37
-35 4 -5 -4 -2 -18 7 -26 19 -43 22 -34 7 3 -5 1 -10 -4 -10 -6 0 -11 -7 -11
-15 0 -23 -28 -18 -53 8 -27 29 -83 46 -74 23 4 -9 1 -18 -5 -22 -7 -5 -8 -2
-3 6 6 10 4 12 -9 7 -14 -6 -16 -3 -11 14 4 13 3 19 -2 16 -6 -4 -16 5 -23 18
-15 28 -28 32 -36 10 -4 -8 -12 -15 -19 -15 -7 0 -16 -6 -18 -12 -4 -9 -6 -8
-6 2 -1 9 4 21 11 28 9 9 9 12 -4 12 -8 0 -27 9 -41 20 -14 11 -32 20 -41 20
-21 0 -42 50 -25 61 7 4 13 21 13 38 1 23 -3 31 -17 31 -22 0 -34 -29 -16 -40
7 -5 10 -13 5 -17 -10 -11 -38 28 -32 44 3 7 1 13 -4 13 -6 0 -10 -11 -10 -24
0 -24 0 -24 -32 7 -27 27 -31 39 -29 75 2 40 1 42 -17 31 -12 -8 -17 -19 -14
-32 4 -14 1 -18 -9 -13 -8 3 -22 9 -31 12 -10 4 -18 14 -18 23 0 14 2 14 10 1
5 -8 10 -10 10 -5 0 17 -39 75 -51 75 -12 0 5 -27 26 -42 5 -4 6 -10 1 -15 -4
-4 -12 0 -17 9 -5 9 -16 24 -25 33 -8 8 -11 15 -5 15 25 0 8 20 -21 25 -36 7
-85 41 -74 52 3 4 16 -3 29 -15 30 -28 37 -28 35 3 -2 15 -9 25 -18 25 -9 0
-28 14 -43 31 -17 20 -31 28 -39 22 -9 -6 -6 -9 10 -11 12 -2 20 -7 17 -12 -3
-5 -19 -7 -35 -3 -17 3 -30 1 -30 -4 0 -5 -16 -9 -35 -9 -23 0 -32 3 -25 10
15 15 12 26 -9 26 -10 0 -22 -7 -25 -16 -3 -8 -10 -13 -15 -9 -6 3 -8 12 -4
20 3 8 0 15 -6 15 -6 0 -12 -4 -12 -10 -1 -5 -2 -16 -3 -22 0 -7 -17 -14 -36
-15 -19 -2 -41 -10 -50 -19 -13 -14 -13 -14 3 -8 20 7 23 -9 4 -25 -11 -8 -17
-5 -27 17 -11 22 -14 24 -17 10 -3 -10 -9 -18 -14 -18 -6 0 -8 -9 -4 -20 5
-16 3 -19 -12 -13 -10 4 -21 11 -24 16 -3 4 -13 1 -22 -7 -8 -9 -19 -16 -24
-16 -39 0 -40 -165 -1 -250 30 -66 35 -79 48 -142 21 -93 -2 -165 -61 -195
-18 -10 -20 -13 -6 -13 16 0 16 -1 0 -19 -99 -110 -129 -141 -137 -141 -5 0
-17 -10 -28 -22 -19 -22 -20 -23 -34 -4 -7 11 -17 16 -21 13 -4 -4 -1 -13 5
-19 18 -18 16 -44 -2 -29 -10 8 -16 8 -25 -2 -6 -8 -8 -17 -4 -20 3 -4 0 -7
-7 -7 -8 0 -24 -12 -36 -27 -19 -25 -24 -26 -48 -15 -14 6 -26 8 -26 3 0 -5 6
-11 13 -14 7 -3 5 -7 -8 -12 -48 -17 -104 -49 -109 -62 -3 -8 -10 -11 -16 -8
-5 3 -10 2 -10 -2 0 -5 -10 -9 -21 -10 -12 -1 -30 -10 -42 -20 -19 -18 -20
-18 -6 5 13 21 11 25 -31 62 -58 51 -86 66 -135 69 -22 2 -42 7 -43 12 -3 6
-10 5 -18 -2 -10 -8 -22 -8 -43 -1 -16 6 -32 7 -36 4 -3 -4 -23 -7 -43 -8 -20
-1 -31 0 -24 3 6 2 12 9 12 14 0 4 -7 6 -15 3 -8 -4 -15 -12 -15 -19 0 -15
-48 -27 -56 -14 -3 5 -15 9 -27 9 -13 0 -40 19 -65 45 -26 27 -48 42 -57 38
-8 -3 -15 0 -15 6 0 6 -13 17 -30 26 -21 11 -28 20 -23 33 3 9 3 14 -1 10 -4
-3 -20 -3 -36 2 -18 5 -32 4 -39 -3 -8 -8 -11 -8 -11 1 0 6 -7 9 -15 6 -8 -4
-15 -2 -15 3 0 5 -8 9 -17 10 -20 1 -85 25 -93 34 -3 3 -12 8 -21 11 -9 4 -22
27 -29 53 -9 31 -17 44 -26 41 -7 -3 -16 -1 -20 5 -8 13 37 79 54 79 6 0 12 7
12 15 0 18 27 20 33 3 2 -8 15 -1 33 20 31 35 55 39 94 17 34 -19 40 -19 40 6
0 18 2 20 15 9 9 -7 14 -19 11 -26 -4 -11 3 -12 32 -8 20 3 39 10 40 15 2 5 8
9 13 9 13 0 11 -44 -3 -58 -10 -10 -10 -15 1 -21 21 -13 44 -2 31 14 -7 8 -7
15 -1 19 5 4 2 21 -9 43 -10 20 -16 43 -13 49 2 7 -4 27 -13 46 -10 18 -18 40
-18 48 -1 8 -8 16 -16 16 -8 1 -19 3 -25 4 -5 1 -12 2 -15 2 -3 0 -6 17 -7 39
-3 43 3 48 24 22 13 -16 13 -16 4 4 -14 27 -14 46 -1 38 6 -3 10 0 10 8 0 8
-8 14 -17 13 -10 0 -19 7 -21 18 -3 14 0 17 12 13 11 -5 16 -1 16 13 0 11 6
29 13 41 10 17 9 22 -6 30 -13 8 -17 21 -15 49 1 21 -4 45 -11 54 -11 14 -11
16 4 16 12 0 16 6 12 20 -3 10 0 21 7 24 7 3 6 8 -4 15 -9 7 -10 11 -3 11 6 0
15 -4 18 -10 3 -5 15 -10 25 -10 10 0 22 -5 26 -11 4 -8 -1 -9 -16 -4 -18 6
-22 4 -17 -8 3 -8 0 -20 -6 -26 -8 -8 -7 -16 6 -28 16 -16 17 -16 17 5 0 23
20 32 20 10 0 -7 5 -5 11 5 8 13 7 27 -1 48 -7 16 -10 43 -6 59 5 29 -7 42
-17 18 -3 -7 -6 -1 -6 15 -1 18 4 27 15 27 11 0 14 6 8 23 -6 22 -6 22 20 -3
22 -20 29 -22 36 -10 5 8 12 11 15 8 4 -4 -2 -17 -14 -29 -11 -12 -18 -26 -15
-31 9 -15 46 41 41 62 -3 11 0 20 6 20 7 0 2 8 -9 18 -12 9 -26 26 -32 37 -10
19 -7 21 26 19 20 0 43 1 50 4 14 5 16 32 2 32 -5 0 -10 -7 -10 -15 0 -8 -5
-15 -11 -15 -7 0 -9 10 -5 25 6 25 -8 36 -17 13 -3 -8 -6 -7 -6 4 -1 9 4 20 9
23 6 3 10 15 10 26 0 10 5 19 11 19 5 0 8 -4 4 -9 -3 -5 -1 -12 5 -16 5 -3 15
6 20 20 5 14 14 23 20 20 5 -3 10 -1 10 4 0 6 -7 11 -15 11 -22 0 -18 27 5 33
12 3 20 14 20 26 0 15 5 19 18 15 16 -5 15 -5 -1 6 -12 8 -16 18 -11 32 5 16
3 19 -14 14 -27 -9 -48 17 -27 34 12 10 18 10 30 0 11 -10 18 -9 30 3 8 9 15
20 15 26 0 6 5 11 10 11 6 0 10 5 10 11 0 6 -9 8 -21 4 -20 -7 -20 -6 -4 19
10 15 30 35 45 46 25 18 27 25 23 59 -4 30 -1 44 12 58 12 11 14 18 6 21 -7 2
-8 8 -3 15 5 7 12 25 16 41 4 15 10 26 13 22 3 -3 18 14 33 37 33 50 117 133
126 124 4 -3 18 3 32 13 13 11 33 20 43 20 10 0 22 8 28 18 9 16 12 15 33 -5
19 -20 20 -23 5 -23 -20 0 -21 -4 -7 -31 9 -15 7 -19 -7 -19 -12 0 -14 -3 -7
-8 9 -5 7 -29 -6 -92 -15 -72 -16 -86 -4 -93 8 -4 14 -14 14 -21 0 -25 52 -59
91 -59 23 0 37 -4 36 -11 -1 -6 17 -15 40 -20 30 -7 42 -14 40 -25 -1 -11 5
-15 21 -13 15 2 22 -2 22 -12 0 -9 -5 -16 -12 -16 -9 0 -9 -3 0 -12 8 -8 15
-8 24 0 18 14 40 0 33 -20 -4 -9 1 -18 12 -22 9 -4 14 -4 10 0 -8 8 11 34 25
34 5 0 6 -5 2 -12 -5 -8 -2 -9 9 -5 11 4 17 1 17 -9 0 -11 6 -13 21 -9 18 6
20 5 10 -14 -10 -17 -9 -21 4 -21 9 0 13 5 10 10 -3 6 -1 10 4 10 6 0 11 -8
11 -17 0 -15 2 -16 10 -3 7 11 10 12 10 2 0 -9 7 -11 21 -7 14 5 19 3 15 -3
-4 -6 2 -16 13 -21 27 -15 34 -14 27 4 -5 13 -1 12 19 -2 13 -10 25 -21 25
-25 0 -5 7 -8 16 -8 10 0 14 -5 10 -15 -4 -13 -2 -14 14 -5 17 9 20 8 20 -10
0 -22 15 -27 24 -7 3 9 9 7 19 -5 17 -22 28 -23 21 -3 -9 23 29 19 51 -5 11
-13 25 -18 37 -14 10 3 18 1 18 -4 0 -5 -9 -12 -20 -15 -11 -3 -20 -11 -20
-19 0 -10 3 -9 10 2 7 11 12 12 21 3 8 -8 18 -9 29 -3 13 7 22 4 35 -10 10
-11 28 -20 41 -20 18 0 21 -4 16 -22 -5 -21 -4 -20 19 3 21 21 24 22 27 7 3
-13 11 -17 35 -14 17 2 33 9 35 16 3 8 7 8 11 2 6 -11 25 -15 54 -13 10 1 17
10 18 24 1 21 2 19 15 -23 4 -12 9 -10 23 9 15 19 21 22 38 13 11 -6 23 -9 26
-6 3 3 11 7 19 8 7 2 25 8 39 14 15 6 34 10 43 8 19 -3 34 -16 18 -16 -7 0
-12 -4 -12 -10 0 -24 29 -8 32 18 3 25 7 27 46 28 44 1 74 14 32 14 -22 0 -22
1 -6 19 10 11 28 21 40 23 13 2 22 11 24 25 2 14 8 20 18 16 10 -4 14 2 14 20
0 14 5 29 10 32 6 4 8 11 4 16 -3 6 0 10 7 8 26 -3 39 1 39 12 0 6 -7 9 -15 5
-8 -3 -15 -3 -15 0 0 13 32 64 40 64 6 0 10 6 10 13 0 8 10 19 23 26 21 11 27
26 27 79 0 12 5 22 10 22 14 0 12 44 -2 58 -9 9 -9 12 -1 12 7 0 15 -5 19 -11
4 -7 9 -8 17 0 7 7 6 15 -3 26 -10 12 -10 15 4 15 9 0 16 -7 16 -16 0 -11 6
-14 23 -8 34 10 34 14 4 40 -15 13 -24 24 -20 24 4 0 1 5 -7 11 -11 7 -6 9 18
4 l34 -7 -17 26 c-10 14 -13 26 -7 26 6 0 14 -5 17 -10 4 -6 11 -8 16 -4 6 4
4 15 -5 29 -15 23 -6 45 19 45 21 0 45 34 35 50 -5 8 -6 19 -2 25 3 5 -1 5 -9
-2 -11 -9 -14 -7 -15 13 -1 13 1 24 5 24 4 0 13 12 19 26 8 16 17 22 25 18 6
-4 1 5 -13 21 -18 21 -20 27 -8 22 22 -8 34 9 12 17 -14 5 -14 7 0 22 9 8 16
21 16 29 0 7 6 16 13 18 9 4 9 8 -1 15 -9 6 -13 24 -11 48 3 32 1 38 -14 36
-21 -4 -23 14 -1 22 21 8 8 26 -20 26 -19 0 -22 4 -18 30 2 17 8 30 13 30 5 0
9 5 9 10 0 14 -16 12 -33 -4 -12 -13 -43 -20 -74 -17 -7 1 -10 8 -7 16 4 10 0
15 -14 15 -11 0 -29 3 -39 7 -14 6 -11 9 15 13 18 3 32 7 31 10 -1 3 3 15 9
27 11 20 10 22 -20 25 l-33 4 28 12 c15 6 30 19 33 27 4 8 15 15 26 15 11 0
22 8 25 20 3 11 12 20 20 20 8 0 12 3 9 8 -2 4 14 6 36 3 l41 -3 -58 56 c-46
44 -54 56 -38 56 12 0 23 7 27 15 4 12 -3 15 -29 15 -28 0 -35 -4 -35 -20 0
-19 -26 -28 -55 -19 -22 6 -90 -2 -96 -12 -4 -7 -9 -7 -12 -1 -4 5 -27 8 -51
7 -25 -1 -43 1 -41 5 2 3 -9 7 -24 8 -19 1 -28 -3 -28 -13 0 -8 6 -15 14 -15
7 0 13 -5 13 -11 0 -6 11 -8 28 -4 21 4 29 2 29 -8 0 -11 -8 -12 -41 -5 -22 5
-56 6 -76 3 -20 -3 -48 -2 -62 4 -22 8 -26 8 -21 -4 3 -8 11 -15 18 -15 8 0
17 -5 21 -11 7 -12 -57 -9 -66 3 -3 4 -23 3 -43 -3 -21 -5 -43 -7 -50 -3 -7 5
-5 0 3 -11 14 -17 13 -18 -5 -11 -27 10 -24 10 -73 1 -30 -5 -39 -11 -30 -16
10 -7 8 -9 -6 -9 -11 0 -27 -7 -37 -16 -15 -14 -23 -14 -54 -4 -27 9 -40 9
-48 1 -8 -8 -8 -11 2 -11 7 0 9 -5 6 -11 -4 -6 -14 -8 -22 -5 -9 4 -11 2 -7
-6 5 -8 -2 -9 -24 -5 -23 5 -32 3 -32 -7 0 -8 -9 -12 -25 -11 -14 2 -25 -1
-25 -6 0 -5 -9 -9 -20 -9 -11 0 -20 7 -20 15 0 20 -84 13 -106 -9 -24 -24 -74
-17 -74 10 0 8 -5 14 -11 14 -6 0 -9 -6 -6 -12 2 -7 7 -24 11 -38 7 -24 7 -24
-9 -5 -8 11 -22 28 -30 38 -8 9 -15 22 -15 27 0 6 -4 10 -9 10 -5 0 -11 14
-15 31 -4 20 -13 33 -26 36 -13 3 -19 11 -16 19 7 18 -30 39 -38 21 -4 -6 -4
-1 -1 13 2 14 5 33 5 42 0 11 5 15 14 12 8 -3 17 -1 21 5 3 6 2 11 -3 11 -4 0
-17 9 -29 19 -11 11 -29 21 -39 24 -11 2 2 3 28 0 42 -3 47 -2 41 14 -4 10
-13 22 -21 27 -12 7 -12 10 -1 17 11 8 10 12 -5 21 -19 11 -19 11 0 25 16 12
17 15 4 23 -20 13 -40 13 -40 0 0 -5 -4 -10 -10 -10 -5 0 -7 7 -4 15 4 8 15
15 25 15 10 0 19 6 19 13 0 9 2 9 8 0 6 -9 13 -3 26 18 10 17 15 33 12 36 -3
3 -8 -2 -12 -11 -3 -9 -13 -16 -22 -16 -12 0 -13 3 -4 12 15 15 16 31 0 22 -6
-4 -8 -3 -5 3 4 6 20 13 37 16 26 6 30 11 30 41 0 29 3 33 20 29 26 -7 26 13
-1 28 -14 7 -19 17 -16 30 3 10 2 19 -3 19 -4 0 -10 -10 -14 -22 -4 -18 -13
-23 -38 -24 l-33 -2 28 11 c15 6 27 16 27 22 0 6 17 19 37 29 l38 18 -28 23
c-32 28 -34 35 -8 35 22 0 39 19 19 21 -7 1 -17 1 -23 -1 -5 -1 -4 4 3 11 14
15 17 33 4 25 -5 -3 -15 6 -22 19 -7 14 -17 25 -22 25 -4 0 -8 9 -8 20 0 30
14 24 27 -11 l12 -30 20 20 c23 23 28 55 9 48 -7 -2 -12 -12 -12 -21 1 -9 -2
-16 -7 -16 -15 0 -10 20 12 51 11 16 15 29 9 29 -6 0 -13 -6 -16 -14 -9 -23
-33 -28 -27 -5 4 13 0 19 -13 20 -17 1 -17 2 -1 6 21 6 22 19 1 31 -11 6 -14
14 -8 23 5 8 7 21 6 30 -2 9 8 21 20 28 l23 12 -22 -5 c-13 -2 -23 0 -23 5 0
5 5 9 10 9 6 0 10 9 10 20 0 13 9 22 26 26 19 5 23 11 18 23 -4 9 -7 28 -6 44
1 19 -4 27 -15 27 -12 0 -14 -3 -7 -10 6 -6 8 -24 6 -41 l-5 -31 -18 28 c-15
24 -19 26 -25 11 -3 -9 -10 -14 -16 -11 -5 3 -4 12 3 20 16 19 19 77 5 86 -8
5 -8 10 1 19 6 6 9 19 6 28 -3 10 -2 12 4 5 4 -6 15 -13 24 -16 13 -5 16 -1
15 17 0 13 -4 21 -8 18 -5 -2 -8 6 -8 19 -1 23 -1 23 -25 -4 -13 -16 -27 -28
-30 -28 -12 0 -3 19 25 50 35 40 37 47 10 55 -24 7 -27 47 -6 64 11 9 20 10
35 1 18 -9 21 -8 20 12 0 13 -3 17 -6 11 -9 -23 -20 -13 -21 18 -1 26 2 30 18
26 16 -4 18 -2 11 12 -5 9 -6 32 -2 51 6 30 10 34 41 34 37 1 40 5 39 34 0 14
-2 14 -9 -3 -6 -13 -9 -15 -9 -5 -1 13 -2 13 -11 0 -10 -16 -60 -22 -60 -7 0
4 -5 5 -11 1 -8 -4 -8 -9 -1 -13 18 -11 7 -44 -17 -53 -14 -5 -20 -4 -16 2 3
6 -2 10 -12 11 -18 1 -17 1 26 15 11 4 11 8 -2 22 -15 17 -14 19 13 36 28 16
44 44 18 31 -7 -4 -2 3 12 14 15 13 20 21 11 21 -11 0 -10 5 4 20 10 11 23 20
30 20 7 0 20 9 30 20 10 11 14 20 9 20 -5 0 -2 5 6 10 8 5 10 10 3 10 -14 0
-10 33 5 38 9 3 9 9 2 23 -8 13 -7 19 1 19 6 0 13 -9 16 -19 6 -22 29 -35 45
-25 7 5 6 11 -3 18 -24 19 -19 43 7 38 16 -3 24 0 24 10 0 15 -39 38 -65 38
-22 0 -29 22 -11 35 9 7 26 11 36 8 11 -3 20 0 20 6 0 6 -9 11 -20 11 -11 0
-20 4 -20 9 0 13 49 20 53 7 6 -17 41 7 45 30 1 10 13 24 27 30 20 10 24 9 29
-8 2 -11 9 -17 15 -14 6 4 8 13 4 21 -5 14 38 58 59 61 5 1 14 2 21 3 8 1 7 4
-3 11 -13 9 -13 11 0 20 8 5 23 10 32 10 9 0 24 3 34 7 11 4 15 3 11 -4 -5 -8
6 -7 36 0 24 7 35 13 25 15 -40 8 -4 32 47 32 17 0 17 -2 5 -10 -13 -9 -13
-10 0 -9 34 0 194 46 198 57 2 6 10 8 19 5 10 -4 14 -2 9 5 -4 6 16 26 49 48
63 41 125 112 125 140 -1 15 -7 12 -33 -17 -23 -26 -41 -36 -62 -37 -17 0 -35
-1 -40 -2 -24 -5 -46 1 -40 11 4 5 12 8 18 6 6 -2 19 5 28 14 23 23 42 59 31
59 -5 0 -14 -10 -20 -22 -10 -22 -11 -21 -11 8 -1 31 24 55 31 32 3 -7 9 -6
18 4 11 12 19 13 32 5 23 -15 31 -4 34 46 2 23 3 45 3 49 1 8 41 -2 41 -11 0
-4 -4 -11 -9 -16 -4 -6 -11 -32 -15 -60 -6 -47 -5 -49 9 -28 26 38 54 47 76
27 18 -16 19 -16 19 3 0 27 10 35 26 22 17 -14 24 1 27 64 4 60 14 69 23 22 7
-38 7 -38 20 -14 7 13 13 32 14 42 0 9 4 25 9 35 5 9 13 26 16 37 5 13 9 16
12 7 4 -10 8 -10 19 -1 11 9 16 6 23 -12 5 -13 11 -18 12 -11 4 27 19 62 26
62 3 0 3 -11 1 -25z m-365 -151 c3 -18 -3 -30 -21 -44 -13 -11 -30 -20 -36
-20 -6 0 4 10 23 22 38 24 27 35 -19 19 -18 -6 -30 -6 -30 0 0 5 6 9 14 9 15
0 29 27 21 39 -2 5 6 6 19 4 16 -3 26 -14 29 -29z m117 -35 c0 -14 -17 -10
-23 5 -4 10 -1 13 9 9 7 -3 14 -9 14 -14z m-285 -109 c-4 -6 5 -10 19 -10 35
0 33 -17 -3 -22 -21 -3 -28 -1 -24 9 3 7 0 13 -7 13 -6 0 -8 5 -5 10 3 6 11
10 16 10 6 0 7 -4 4 -10z m-129 -65 c1 -9 -6 -15 -17 -15 -17 0 -17 3 -7 20
13 20 21 19 24 -5z m151 -20 c15 2 36 6 46 10 10 4 17 3 17 -5 0 -7 8 -9 23
-5 22 6 6 -6 -58 -47 -11 -7 -24 -19 -30 -25 -5 -7 -49 -27 -98 -44 -74 -26
-95 -30 -135 -23 -26 4 -40 9 -31 11 11 3 15 11 12 24 -3 11 -2 19 3 18 5 -1
17 1 27 6 12 5 22 2 30 -8 11 -15 16 -14 52 3 23 12 30 18 15 14 -37 -9 -60
-7 -76 7 -12 9 -9 15 13 32 34 27 111 47 140 36 12 -4 35 -6 50 -4z m-483
-250 c3 -9 0 -15 -9 -15 -9 0 -12 6 -9 15 4 8 7 15 9 15 2 0 5 -7 9 -15z m-94
-89 c0 -2 -7 -7 -16 -10 -8 -3 -12 -2 -9 4 6 10 25 14 25 6z m2209 -232 c27
-34 26 -38 -4 -52 -15 -7 -25 -20 -25 -32 0 -12 -4 -19 -8 -16 -5 3 -16 -26
-26 -63 -19 -74 -21 -56 33 -336 21 -109 69 -274 88 -305 l20 -32 12 64 c7 35
17 68 21 73 4 6 10 21 13 35 2 14 5 -25 6 -87 1 -100 -1 -113 -18 -125 -16
-11 -21 -31 -25 -103 -12 -176 -21 -430 -15 -433 9 -4 -2 -176 -12 -186 -5 -6
-9 -20 -9 -32 0 -13 -4 -26 -10 -29 -6 -4 -10 -102 -10 -262 l0 -256 -70 -76
c-38 -42 -88 -95 -111 -119 -86 -90 -112 -25 -63 160 14 57 26 120 25 141 -1
20 3 37 9 37 13 0 13 56 -1 82 -9 16 -8 19 2 13 9 -6 10 -2 4 16 -4 13 -9 80
-11 149 -3 107 -1 135 17 195 12 39 33 83 45 98 13 16 24 36 24 46 0 10 11 28
25 41 17 16 27 39 31 72 4 27 11 51 15 54 5 3 9 25 9 49 0 24 5 45 11 47 7 2
5 29 -6 83 -24 121 -25 126 -33 121 -5 -3 -16 10 -26 28 -15 29 -22 33 -56 32
-22 -1 -44 -6 -51 -13 -19 -19 -48 -2 -60 35 -13 40 -7 233 10 292 5 19 12 55
15 80 9 70 24 149 41 225 32 135 44 200 45 233 0 26 4 32 21 32 16 0 19 4 14
20 -3 10 -1 28 5 40 10 19 13 19 40 5 15 -8 38 -27 49 -41z m-2359 16 c0 -5
-4 -10 -9 -10 -6 0 -13 5 -16 10 -3 6 1 10 9 10 9 0 16 -4 16 -10z m-3504
-166 c-4 -11 -2 -15 8 -11 10 4 13 1 9 -9 -7 -19 -19 -18 -27 2 -9 23 -7 34 5
34 6 0 8 -7 5 -16z m-36 -28 c0 -11 -19 -15 -25 -6 -3 5 1 10 9 10 9 0 16 -2
16 -4z m-30 -36 c0 -5 -4 -10 -10 -10 -5 0 -10 5 -10 10 0 6 5 10 10 10 6 0
10 -4 10 -10z m85 -59 c-8 -7 -56 10 -50 18 3 5 16 4 29 -2 14 -7 23 -14 21
-16z m-78 0 c10 -16 9 -18 -13 -18 -27 0 -26 -1 -18 21 8 21 17 20 31 -3z
m-43 -48 c-2 -29 1 -53 5 -53 10 0 57 52 64 71 7 20 63 21 59 1 -1 -7 8 -22
20 -32 13 -11 17 -19 10 -20 -9 0 -10 -5 -2 -19 7 -14 7 -22 -1 -26 -6 -4 -13
2 -16 14 -6 25 -23 18 -23 -10 0 -26 -10 -24 -37 8 -23 26 -24 26 -37 7 -18
-25 -11 -36 20 -28 14 4 24 2 24 -5 0 -6 10 -12 23 -12 17 -1 16 -3 -8 -8 -16
-4 -36 -3 -43 2 -9 7 -18 5 -30 -6 -17 -18 -17 -18 28 -21 24 -2 22 -96 -3
-118 -13 -12 -17 -23 -11 -35 7 -16 8 -16 11 4 2 12 11 24 18 27 11 4 13 -2 9
-23 -4 -16 -1 -37 5 -48 9 -15 10 -11 11 22 0 59 10 86 29 83 13 -2 16 6 16
43 0 25 6 53 12 61 7 8 9 19 5 23 -4 5 -2 6 3 2 7 -3 10 -41 8 -98 -4 -89 -10
-119 -20 -91 -6 17 -23 15 -23 -3 0 -8 5 -15 10 -15 14 0 12 -30 -2 -35 -7 -3
-14 -19 -14 -36 -1 -17 -7 -35 -15 -40 -11 -7 -10 -9 5 -9 15 0 17 -5 13 -30
-8 -40 5 -45 38 -14 15 14 29 24 31 22 8 -9 -10 -48 -22 -48 -8 0 -14 -9 -13
-22 1 -17 2 -19 6 -5 2 9 12 17 21 17 11 0 13 -3 5 -8 -21 -13 -26 -58 -8 -76
15 -14 15 -16 1 -16 -9 0 -16 5 -16 11 0 5 -4 8 -9 5 -16 -10 0 -46 21 -46 18
0 18 -1 -2 -22 -29 -32 -27 -58 3 -30 27 26 39 28 31 7 -4 -8 -1 -15 5 -15 7
0 14 7 17 15 4 8 10 12 16 9 5 -3 -4 -20 -21 -37 -32 -30 -55 -31 -30 -1 12
15 12 17 -1 12 -8 -2 -22 -16 -30 -31 -12 -22 -13 -28 -1 -39 12 -11 13 -10 8
5 -5 13 -1 17 18 17 24 0 55 23 55 41 0 5 7 9 15 9 8 0 15 5 15 10 0 6 5 10
11 10 8 0 8 -5 -1 -15 -10 -12 -10 -18 0 -30 8 -9 8 -15 2 -15 -6 0 -12 6 -15
13 -8 20 -35 -24 -29 -47 5 -18 3 -19 -10 -8 -19 15 -27 2 -23 -38 1 -14 3
-31 4 -39 1 -11 5 -10 16 5 14 18 14 18 15 -4 0 -15 7 -26 20 -29 27 -7 25
-23 -2 -24 -13 0 -17 -3 -10 -6 6 -2 10 -9 6 -14 -3 -5 4 -9 16 -9 11 0 23 -7
26 -15 4 -8 15 -15 25 -15 20 0 26 -15 9 -25 -5 -3 -10 -2 -10 3 0 6 -21 9
-46 9 -41 0 -45 -2 -39 -21 4 -12 9 -31 12 -43 7 -30 23 -29 23 1 0 13 7 29
15 36 13 11 15 8 15 -14 0 -16 -4 -25 -10 -21 -5 3 -10 -1 -10 -9 0 -9 7 -16
15 -16 8 0 15 7 15 15 0 8 5 15 10 15 6 0 10 -12 10 -26 0 -16 -4 -23 -11 -18
-8 4 -9 0 -4 -15 5 -16 3 -20 -9 -15 -11 4 -19 -2 -26 -17 -9 -22 -10 -21 -6
9 5 27 2 32 -14 32 -23 0 -24 -6 -5 -40 9 -16 10 -29 4 -37 -7 -7 -6 -13 1
-18 5 -3 10 -1 10 5 0 12 39 49 53 50 4 0 7 -9 7 -20 0 -11 5 -20 10 -20 6 0
10 7 10 15 0 8 7 15 15 15 12 0 13 -4 3 -25 -6 -14 -17 -25 -23 -25 -21 0 -26
-42 -8 -62 25 -28 8 -33 -28 -7 -20 14 -30 17 -27 8 5 -15 -19 -38 -39 -39 -7
0 -13 7 -13 16 0 8 5 12 10 9 6 -3 10 -1 10 4 0 6 -10 11 -23 11 -21 0 -23 -4
-21 -42 2 -58 3 -60 14 -53 6 4 9 14 8 23 -2 11 5 18 19 20 12 2 27 10 33 18
7 8 18 14 26 14 9 0 7 -10 -8 -39 -20 -38 -60 -67 -85 -62 -9 1 -13 -11 -13
-34 0 -19 5 -35 11 -35 8 0 8 -5 -1 -15 -7 -8 -16 -13 -20 -10 -5 3 -11 1 -15
-5 -3 -5 1 -10 9 -10 9 0 16 -5 16 -10 0 -7 -14 -8 -37 -4 -34 6 -37 6 -25 -9
8 -9 11 -21 7 -27 -3 -5 -1 -10 4 -10 6 0 11 5 11 10 0 5 3 9 8 9 4 -1 9 0 12
1 3 1 18 4 33 6 25 4 28 2 22 -16 -4 -11 -2 -20 4 -20 6 0 11 7 11 15 0 9 6
12 15 9 8 -4 15 -10 15 -16 0 -5 -4 -7 -9 -4 -4 3 -16 -3 -26 -14 -25 -27 -36
-25 -31 5 5 29 -1 31 -29 9 -17 -13 -18 -16 -5 -24 12 -8 9 -10 -12 -10 -74 0
-73 0 -74 -26 -4 -58 -15 -92 -34 -100 -20 -9 -20 -9 0 -22 17 -10 20 -10 20
3 0 8 4 15 9 15 16 0 42 -31 35 -42 -4 -7 -9 -6 -14 2 -4 7 -13 9 -19 6 -17
-11 -13 -26 7 -27 14 0 14 -2 -3 -9 -30 -13 -36 -12 -33 6 2 10 -2 19 -8 21
-15 5 -13 -155 2 -165 19 -13 23 -39 8 -67 -16 -31 -19 -69 -4 -60 10 6 15
-14 11 -49 0 -10 9 -27 21 -37 11 -11 18 -22 14 -26 -3 -4 -11 -2 -18 5 -7 7
-17 8 -30 1 -22 -12 -25 -34 -3 -25 8 3 25 1 37 -4 13 -5 18 -9 11 -9 -7 -1
-12 -13 -12 -28 1 -16 -1 -50 -4 -76 -3 -31 0 -50 7 -53 17 -7 16 -114 -1
-114 -8 0 -11 5 -8 10 9 15 -2 12 -19 -6 -15 -14 -17 -14 -23 2 -4 11 1 22 13
32 17 13 17 14 1 9 -10 -4 -19 -1 -21 6 -14 47 -17 51 -25 38 -6 -9 -10 -5
-13 13 -5 23 -3 24 10 14 13 -11 14 -10 3 9 -7 14 -17 20 -26 17 -8 -4 -15 -2
-15 4 0 6 6 13 13 15 6 3 2 6 -10 6 -15 1 -24 9 -27 24 -8 35 -17 100 -17 120
0 9 -4 17 -9 17 -5 0 -9 20 -8 45 0 30 4 42 12 38 6 -4 4 2 -4 12 -9 11 -10
16 -2 11 18 -11 15 12 -8 44 -19 27 -19 27 0 45 11 10 20 25 20 34 0 14 -2 14
-10 1 -5 -8 -10 -10 -11 -5 0 6 -4 1 -8 -9 -5 -12 -8 6 -9 48 -1 37 -5 73 -10
79 -11 14 -34 225 -26 238 3 5 0 9 -6 9 -10 0 -10 37 0 180 1 8 -1 47 -4 87
-3 43 1 95 9 130 8 33 12 88 10 128 -3 39 -4 129 -3 200 2 141 1 241 -4 466
-3 129 -1 149 15 166 21 24 22 52 1 67 -13 10 -11 12 13 11 25 0 28 -4 26 -30
-1 -17 0 -24 3 -17 3 6 12 12 19 12 25 0 35 33 17 53 -15 17 -15 19 1 28 21
12 23 33 1 25 -10 -4 -13 -2 -8 6 5 7 2 9 -7 6 -10 -4 -14 2 -14 18 0 13 3 24
8 24 18 0 22 -4 19 -22 -2 -10 1 -18 6 -18 16 0 23 30 12 50 -8 15 -7 19 8 17
16 -1 18 -9 16 -54z m3463 5 c-3 -8 -6 -5 -6 6 -1 11 2 17 5 13 3 -3 4 -12 1
-19z m-3427 3 c0 -6 -4 -13 -10 -16 -5 -3 -10 1 -10 9 0 9 5 16 10 16 6 0 10
-4 10 -9z m-155 -30 c-3 -6 -11 -11 -17 -11 -6 0 -6 6 2 15 14 17 26 13 15 -4z
m234 -143 c6 -18 4 -26 -11 -37 -11 -7 -22 -10 -26 -6 -4 4 -1 10 5 12 8 3 11
14 7 29 -8 31 14 32 25 2z m3361 -8 c0 -5 -5 -10 -11 -10 -5 0 -7 5 -4 10 3 6
8 10 11 10 2 0 4 -4 4 -10z m-3310 -175 c-7 -8 -17 -12 -23 -8 -6 4 -3 9 9 14
27 11 28 11 14 -6z m45 -5 c-3 -5 -11 -10 -16 -10 -6 0 -7 5 -4 10 3 6 11 10
16 10 6 0 7 -4 4 -10z m15 -26 c0 -3 -7 -12 -15 -21 -20 -19 -32 -9 -15 12 12
15 30 20 30 9z m-60 -13 c0 -6 -4 -13 -10 -16 -5 -3 -10 1 -10 9 0 9 5 16 10
16 6 0 10 -4 10 -9z m10 -28 c0 -5 -5 -15 -10 -23 -9 -13 -11 -13 -20 0 -8 13
-1 21 28 29 1 1 2 -2 2 -6z m3309 -38 c0 -19 -1 -19 -11 3 -6 12 -15 22 -20
22 -4 0 -8 5 -8 10 0 6 8 5 20 -2 11 -7 20 -22 19 -33z m-3239 6 c0 -5 -7 -11
-15 -15 -15 -5 -20 5 -8 17 9 10 23 9 23 -2z m3 -56 c-7 -21 -13 -19 -13 6 0
11 4 18 10 14 5 -3 7 -12 3 -20z m3167 -25 c0 -5 -2 -10 -4 -10 -3 0 -8 5 -11
10 -3 6 -1 10 4 10 6 0 11 -4 11 -10z m-3201 -40 c4 0 11 4 17 9 5 4 16 0 27
-10 9 -11 13 -19 7 -19 -5 0 -10 -7 -10 -15 0 -10 -6 -12 -17 -8 -16 6 -16 5
-4 -10 8 -10 12 -20 9 -22 -3 -3 -10 1 -17 8 -14 18 -4 47 16 47 8 0 11 5 8
10 -4 7 -13 7 -25 0 -15 -8 -21 -6 -29 9 -6 10 -7 22 -3 26 4 4 8 0 10 -9 2
-9 7 -16 11 -16z m-662 -22 c-3 -7 -5 -2 -5 12 0 14 2 19 5 13 2 -7 2 -19 0
-25z m750 0 c-3 -8 -6 -5 -6 6 -1 11 2 17 5 13 3 -3 4 -12 1 -19z m-746 -71
c-7 -7 -12 -5 -17 7 -4 11 -1 21 7 27 17 11 26 -18 10 -34z m3941 -82 c0 -5
-5 -11 -11 -13 -6 -2 -11 4 -11 13 0 9 5 15 11 13 6 -2 11 -8 11 -13z m-3172
-62 c-11 -17 -11 -17 -6 0 3 10 7 26 7 35 1 15 2 15 6 0 2 -10 -1 -25 -7 -35z
m3110 33 c0 -8 -4 -18 -10 -21 -5 -3 -10 3 -10 14 0 12 5 21 10 21 6 0 10 -6
10 -14z m-3190 -37 c0 -6 -4 -7 -10 -4 -5 3 -10 11 -10 16 0 6 5 7 10 4 6 -3
10 -11 10 -16z m45 11 c3 -5 1 -10 -4 -10 -6 0 -11 5 -11 10 0 6 2 10 4 10 3
0 8 -4 11 -10z m3202 4 c-3 -3 -12 -4 -19 -1 -8 3 -5 6 6 6 11 1 17 -2 13 -5z
m-3180 -41 c5 -14 -31 -23 -48 -12 -11 7 -10 9 4 9 9 0 17 5 17 11 0 13 22 7
27 -8z m3170 -9 c-3 -3 -12 -4 -19 -1 -8 3 -5 6 6 6 11 1 17 -2 13 -5z m-67
-64 c0 -5 -7 -7 -15 -4 -8 4 -12 10 -9 15 6 11 24 2 24 -11z m-3091 -12 c0
-13 -3 -17 -6 -10 -2 6 -11 12 -19 12 -9 0 -12 5 -9 10 12 19 35 10 34 -12z
m3048 16 c-3 -3 -12 -4 -19 -1 -8 3 -5 6 6 6 11 1 17 -2 13 -5z m-3011 -191
c-10 -10 -19 5 -10 18 6 11 8 11 12 0 2 -7 1 -15 -2 -18z m84 3 c0 -3 -4 -8
-10 -11 -5 -3 -10 -1 -10 4 0 6 5 11 10 11 6 0 10 -2 10 -4z m2985 -16 c3 -6
-1 -7 -9 -4 -18 7 -21 14 -7 14 6 0 13 -4 16 -10z m-3021 -95 c3 -8 -3 -19
-14 -25 -27 -14 -40 -12 -40 6 0 12 6 15 21 11 15 -4 19 -2 15 9 -3 8 -1 14 3
14 5 0 11 -7 15 -15z m3010 0 c4 -13 2 -14 -14 -5 -23 13 -26 20 -6 20 8 0 16
-7 20 -15z m6 -40 c0 -8 -2 -15 -4 -15 -2 0 -6 7 -10 15 -3 8 -1 15 4 15 6 0
10 -7 10 -15z m-3020 -15 c0 -5 -4 -10 -10 -10 -5 0 -10 5 -10 10 0 6 5 10 10
10 6 0 10 -4 10 -10z m2990 -90 c-24 -15 -36 -11 -14 4 10 8 21 12 24 10 2 -3
-2 -9 -10 -14z m-3073 4 c-3 -3 -12 -4 -19 -1 -8 3 -5 6 6 6 11 1 17 -2 13 -5z
m4308 -44 c3 -5 1 -10 -4 -10 -6 0 -11 5 -11 10 0 6 2 10 4 10 3 0 8 -4 11
-10z m175 -40 c0 -4 -19 -7 -42 -7 -30 0 -37 2 -23 7 26 9 65 10 65 0z m-1300
-51 c0 -5 -4 -9 -10 -9 -5 0 -10 7 -10 16 0 8 5 12 10 9 6 -3 10 -10 10 -16z
m8 -41 c-3 -7 -11 -13 -18 -13 -7 0 -15 6 -17 13 -3 7 4 12 17 12 13 0 20 -5
18 -12z m569 6 c-3 -3 -12 -4 -19 -1 -8 3 -5 6 6 6 11 1 17 -2 13 -5z m-527
-54 c0 -5 -8 -10 -17 -10 -15 0 -16 2 -3 10 19 12 20 12 20 0z m-3300 -30 c0
-5 -2 -10 -4 -10 -3 0 -8 5 -11 10 -3 6 -1 10 4 10 6 0 11 -4 11 -10z m-120
-31 c-7 -11 -14 -18 -17 -15 -8 8 5 36 17 36 7 0 7 -6 0 -21z m4480 -9 c12 -8
11 -10 -7 -10 -13 0 -23 5 -23 10 0 13 11 13 30 0z m-4494 -57 c-11 -11 -17 4
-9 23 7 18 8 18 11 1 2 -10 1 -21 -2 -24z m4546 -32 c-2 -8 1 -17 7 -20 15
-10 0 -50 -94 -256 -13 -27 -26 -60 -30 -72 -7 -25 -82 -103 -99 -103 -6 0
-21 -3 -34 -6 -18 -5 -21 -3 -16 10 6 16 4 16 -31 2 -38 -16 -90 -22 -69 -8
16 9 12 61 -6 90 -9 13 -25 22 -39 22 -35 0 -18 12 23 16 19 2 52 12 73 23
l38 21 -55 -3 c-40 -1 -54 1 -52 11 1 7 -8 12 -20 12 -13 0 -29 4 -36 9 -10 6
-5 12 20 21 29 10 31 13 13 19 -19 8 -19 8 3 15 27 9 18 30 -9 23 -11 -3 -19
-2 -19 2 0 9 57 52 90 68 18 9 20 12 6 10 -30 -3 -29 18 0 32 25 11 26 11 14
-4 -11 -13 -3 -12 41 5 30 12 65 24 79 27 14 3 30 10 36 15 41 32 172 47 166
19z m-259 -38 c-7 -2 -19 -2 -25 0 -7 3 -2 5 12 5 14 0 19 -2 13 -5z m-4326
-45 c-3 -8 -6 -5 -6 6 -1 11 2 17 5 13 3 -3 4 -12 1 -19z m13 -38 c0 -5 -7
-10 -15 -10 -8 0 -15 5 -15 10 0 6 7 10 15 10 8 0 15 -4 15 -10z m-3 -52 c-3
-8 -6 -5 -6 6 -1 11 2 17 5 13 3 -3 4 -12 1 -19z m633 -33 c0 -8 7 -15 15 -15
9 0 12 -6 9 -15 -5 -13 -11 -11 -30 10 -28 30 -29 35 -9 35 8 0 15 -7 15 -15z
m-610 -155 c0 -5 -4 -10 -10 -10 -5 0 -10 5 -10 10 0 6 5 10 10 10 6 0 10 -4
10 -10z m4127 -54 c-16 -18 -31 -8 -16 10 6 7 15 11 20 8 5 -3 3 -11 -4 -18z
m293 -86 c13 -9 13 -10 0 -10 -8 0 -22 5 -30 10 -13 9 -13 10 0 10 8 0 22 -5
30 -10z m-4400 -237 c0 -5 -5 -15 -10 -23 -8 -12 -10 -11 -10 8 0 12 5 22 10
22 6 0 10 -3 10 -7z m-30 -45 c0 -5 -4 -8 -10 -8 -5 0 -10 10 -10 23 0 18 2
19 10 7 5 -8 10 -18 10 -22z m30 -88 c0 -5 -2 -10 -4 -10 -3 0 -8 5 -11 10 -3
6 -1 10 4 10 6 0 11 -4 11 -10z m15 -80 c3 -5 -1 -10 -10 -10 -9 0 -13 5 -10
10 3 6 8 10 10 10 2 0 7 -4 10 -10z m2400 -60 c-3 -5 -10 -10 -16 -10 -5 0 -9
5 -9 10 0 6 7 10 16 10 8 0 12 -4 9 -10z m-41 -76 c9 -23 7 -34 -4 -34 -5 0
-10 10 -10 23 0 18 -2 19 -10 7 -5 -8 -10 -10 -10 -4 0 26 25 32 34 8z m1494
-43 c3 -8 -1 -12 -9 -9 -7 2 -15 10 -17 17 -3 8 1 12 9 9 7 -2 15 -10 17 -17z
m92 10 c0 -5 -7 -11 -15 -15 -15 -5 -20 5 -8 17 9 10 23 9 23 -2z m-1620 -121
c0 -5 -4 -10 -10 -10 -5 0 -10 5 -10 10 0 6 5 10 10 10 6 0 10 -4 10 -10z
m-130 -150 c0 -5 -4 -10 -10 -10 -5 0 -10 5 -10 10 0 6 5 10 10 10 6 0 10 -4
10 -10z m-97 -125 c-3 -9 -8 -14 -10 -11 -3 3 -2 9 2 15 9 16 15 13 8 -4z
m1727 -50 c0 -8 -4 -15 -10 -15 -5 0 -10 7 -10 15 0 8 5 15 10 15 6 0 10 -7
10 -15z m-130 -15 c0 -5 -5 -10 -11 -10 -5 0 -7 5 -4 10 3 6 8 10 11 10 2 0 4
-4 4 -10z m-1504 -368 c1 -7 0 -8 -3 -2 -2 5 -9 8 -14 4 -5 -3 -9 0 -9 6 0 15
23 7 26 -8z m-139 -68 c-3 -3 -12 -4 -19 -1 -8 3 -5 6 6 6 11 1 17 -2 13 -5z
m163 -24 c-8 -5 -19 -10 -25 -10 -5 0 -3 5 5 10 8 5 20 10 25 10 6 0 3 -5 -5
-10z m2290 -44 c0 -2 -9 -2 -20 1 -11 3 -20 9 -20 15 0 5 9 4 20 -2 11 -6 20
-12 20 -14z m-1090 -246 c0 -5 -4 -10 -10 -10 -5 0 -10 5 -10 10 0 6 5 10 10
10 6 0 10 -4 10 -10z m75 0 c3 -5 -1 -10 -9 -10 -9 0 -16 5 -16 10 0 6 4 10 9
10 6 0 13 -4 16 -10z m-81 -63 c-3 -10 -11 -17 -18 -17 -6 0 -20 -14 -30 -31
-12 -21 -24 -29 -39 -27 -12 1 -27 -1 -33 -5 -7 -4 -14 0 -17 8 -4 8 2 16 14
20 16 5 18 10 9 20 -14 17 4 57 23 50 6 -3 23 4 36 14 23 18 25 18 43 1 11
-10 16 -24 12 -33z m42 39 c20 -21 17 -28 -6 -14 -11 7 -20 16 -20 20 0 12 10
9 26 -6z m58 -12 c9 -3 16 -16 15 -28 0 -19 -1 -19 -11 4 l-11 25 -7 -30 c-6
-25 -8 -27 -14 -12 -8 16 -2 47 8 47 2 0 11 -3 20 -6z m-52 -36 c8 -21 -2 -38
-22 -38 -16 0 -17 3 -7 25 13 27 22 31 29 13z m-42 -58 c0 -5 -4 -10 -10 -10
-5 0 -10 5 -10 10 0 6 5 10 10 10 6 0 10 -4 10 -10z m-2 -501 c1 -8 -7 -25
-18 -37 -24 -26 -14 -29 18 -6 16 11 21 22 17 35 -5 14 -2 19 13 19 11 0 23
-6 26 -12 5 -10 7 -10 12 0 9 19 26 14 19 -7 -4 -14 1 -20 21 -25 14 -4 35 -4
47 -1 19 5 19 4 -3 -9 -24 -15 -24 -15 -4 -16 12 0 24 -7 28 -15 3 -8 12 -15
21 -15 23 0 18 -34 -10 -60 -14 -13 -25 -29 -25 -36 0 -20 19 -27 35 -14 22
18 18 3 -5 -22 -11 -12 -20 -29 -20 -38 0 -8 -9 -22 -20 -30 -11 -8 -20 -22
-20 -32 0 -13 -8 -18 -31 -18 -16 0 -28 4 -25 9 3 5 -5 11 -19 13 -16 4 -25 0
-28 -11 -3 -9 -5 -6 -6 9 -2 31 -33 70 -56 70 -13 0 -15 -6 -10 -32 l6 -33
-15 28 c-8 15 -12 35 -9 44 4 9 -1 19 -12 26 -17 9 -16 11 6 28 23 18 24 19 3
19 -16 0 -23 8 -27 28 -3 15 -2 32 3 37 4 6 10 22 12 38 5 24 3 27 -16 22 -21
-6 -21 -6 -1 10 12 10 30 14 47 11 29 -6 48 21 26 36 -10 7 -9 9 2 5 8 -2 16
-10 18 -18z m1092 -10576 c81 -14 270 -71 317 -95 12 -6 20 -15 17 -20 -3 -4
2 -8 11 -8 9 0 14 -4 10 -9 -3 -5 4 -13 16 -16 11 -4 19 -9 16 -11 -2 -3 -15
0 -29 5 -15 5 -30 5 -41 0 -12 -7 -36 -2 -81 16 -86 34 -252 79 -336 90 -14 2
-46 6 -72 10 -54 7 -74 24 -31 26 15 1 34 1 42 0 7 -2 10 2 6 8 -18 31 8 32
155 4z m-337 -10 c-13 -2 -33 -2 -45 0 -13 2 -3 4 22 4 25 0 35 -2 23 -4z m81
-1 c2 -4 -5 -9 -17 -9 -17 -2 -19 0 -7 7 18 12 18 12 24 2z m-934 -6 c0 -2 -7
-7 -16 -10 -8 -3 -12 -2 -9 4 6 10 25 14 25 6z m27 -18 c-3 -8 -6 -5 -6 6 -1
11 2 17 5 13 3 -3 4 -12 1 -19z m293 17 c-8 -2 -51 -9 -95 -15 -178 -25 -343
-69 -600 -161 -82 -29 -287 -125 -342 -159 -12 -8 -25 -11 -29 -8 -11 11 6 28
29 28 18 0 19 2 7 10 -12 8 -10 10 8 10 15 0 21 4 16 12 -5 8 -2 9 9 5 10 -4
17 -2 17 4 0 6 9 9 19 6 14 -3 18 -1 14 9 -3 8 0 14 7 14 6 0 8 5 5 10 -3 6
-1 10 4 10 6 0 11 -5 11 -11 0 -6 5 -7 13 -2 6 4 21 6 32 5 17 -2 17 -1 5 7
-13 9 -13 11 1 11 9 0 20 7 23 16 4 10 14 14 25 11 11 -2 31 5 47 19 16 13 24
23 18 24 -6 0 -17 -6 -23 -14 -12 -14 -71 -28 -71 -17 0 6 118 53 243 97 69
25 84 27 149 20 25 -3 36 0 31 7 -4 6 2 8 15 5 24 -7 28 2 10 20 -8 8 -8 12
-1 12 6 0 16 -7 23 -15 11 -13 15 -13 21 -3 7 10 9 10 9 1 0 -7 5 -13 11 -13
5 0 8 4 5 8 -3 5 15 8 40 7 32 -2 44 1 40 10 -3 8 2 11 12 9 9 -2 40 0 67 4
47 8 208 14 175 7z m-440 -35 c-34 -11 -60 -11 -35 0 11 5 29 8 40 8 16 0 15
-2 -5 -8z m1080 -135 c21 -17 70 -28 70 -15 0 5 -5 10 -12 10 -6 0 -9 2 -7 5
10 9 47 -8 43 -20 -5 -13 35 -25 82 -25 13 0 24 -3 24 -7 0 -5 13 -8 30 -9 16
-1 27 3 23 9 -12 20 84 -5 152 -40 39 -20 72 -36 75 -37 3 -1 4 -4 3 -8 -2 -4
4 -5 11 -2 20 8 58 -14 50 -28 -4 -7 -3 -8 5 -4 6 4 23 -2 37 -13 15 -12 23
-21 18 -21 -5 0 -1 -5 9 -11 9 -5 17 -14 17 -19 0 -6 -8 -10 -17 -11 -11 0
-13 -3 -5 -6 6 -2 12 -9 12 -14 0 -4 -7 -6 -15 -3 -9 4 -15 0 -15 -9 0 -8 6
-18 13 -20 7 -4 6 -6 -5 -6 -9 -1 -18 4 -20 10 -2 6 -27 14 -56 17 -29 2 -52
9 -52 14 0 5 -4 6 -10 3 -13 -8 -90 13 -90 25 0 5 -7 7 -15 4 -8 -4 -15 -1
-15 6 0 6 -5 8 -10 5 -6 -4 -17 -2 -24 4 -7 6 -21 9 -30 5 -9 -3 -16 -1 -16 5
0 7 -10 9 -27 5 -23 -4 -25 -3 -13 6 12 9 8 11 -18 6 -42 -7 -122 13 -115 30
4 12 -50 23 -129 27 -20 0 -34 5 -31 11 4 5 -3 7 -15 4 -12 -4 -20 -3 -18 0 5
9 -282 7 -363 -3 -41 -5 -61 -4 -57 3 3 5 -5 10 -19 10 -14 0 -25 -4 -25 -9 0
-4 -14 -3 -30 3 -17 5 -43 7 -58 3 -25 -7 -25 -8 -7 -15 12 -4 -7 -6 -45 -5
-36 1 -74 6 -85 10 -18 8 -19 7 -5 -10 10 -13 11 -16 2 -11 -27 16 -77 13 -90
-6 -13 -18 -48 -26 -37 -8 3 6 -1 10 -9 10 -9 0 -13 -6 -10 -14 6 -16 -15 -22
-68 -21 -22 0 -38 -5 -38 -12 0 -7 -9 -9 -22 -5 -21 5 -21 6 -2 13 16 6 15 8
-9 8 -15 1 -45 -12 -68 -28 -47 -35 -94 -48 -114 -31 -11 9 -16 7 -24 -9 -8
-14 -8 -21 2 -25 6 -2 -4 -3 -23 0 -27 3 -31 2 -15 -5 20 -10 20 -10 0 -10
-12 -1 -27 -7 -34 -13 -10 -9 -12 -10 -7 -1 10 18 -29 34 -66 28 -33 -6 -33
-6 -10 11 13 9 26 13 29 10 4 -3 14 1 24 10 10 9 25 14 34 11 9 -4 15 -1 15 9
0 10 6 14 14 11 8 -3 22 3 31 14 13 13 26 17 44 13 17 -4 22 -2 13 3 -17 12
27 33 71 34 25 0 28 2 13 8 -16 6 -10 10 30 21 27 8 58 15 69 17 79 12 95 16
95 24 0 5 25 9 55 9 30 0 55 4 55 9 0 9 92 29 153 33 20 1 37 5 37 8 0 6 26 8
128 11 42 1 82 6 88 10 7 6 22 5 38 -1 14 -5 26 -6 26 -2 0 8 73 8 87 -1 5 -3
15 -2 23 3 8 5 22 4 33 -2 15 -8 18 -7 12 3 -6 9 -4 10 11 4 24 -11 93 -10
105 2 12 12 91 4 109 -12z m37 -1 c-3 -3 -12 -4 -19 -1 -8 3 -5 6 6 6 11 1 17
-2 13 -5z m-1537 -12 c0 -10 -45 -32 -63 -32 -9 1 31 26 61 39 1 1 2 -3 2 -7z
m-220 -162 c0 -9 -31 -30 -44 -30 -8 0 27 38 37 39 4 1 7 -3 7 -9z m4668 -21
c2 -10 1 -11 -5 -2 -10 13 -28 5 -34 -16 -4 -11 -8 -10 -22 4 -17 16 -17 18 0
30 20 15 55 5 61 -16z m-3958 -3 c0 -3 -4 -8 -10 -11 -5 -3 -10 -1 -10 4 0 6
5 11 10 11 6 0 10 -2 10 -4z m-825 -56 c-3 -5 -16 -15 -28 -21 -22 -12 -22
-12 -3 10 19 21 43 30 31 11z m1776 -40 c55 -11 109 -20 119 -20 27 0 257 -78
299 -101 l36 -20 -32 5 c-19 3 -33 1 -33 -4 0 -6 -10 -11 -22 -11 -21 -1 -21
-2 -3 -6 11 -3 24 -9 30 -14 15 -15 -21 -11 -66 7 -30 13 -37 19 -27 26 10 8
9 9 -4 5 -9 -3 -70 7 -135 22 -219 53 -289 62 -484 62 -180 1 -390 -18 -467
-42 -25 -8 -37 -8 -48 2 -14 12 -14 14 0 25 14 10 13 12 -9 12 -13 0 -22 -4
-19 -9 3 -5 -3 -8 -13 -7 -38 3 -61 -3 -66 -16 -3 -8 0 -17 8 -20 8 -3 12 0 9
7 -5 14 28 20 64 12 36 -9 25 -20 -30 -32 -43 -9 -54 -8 -61 3 -4 8 -13 14
-20 14 -8 0 -8 -3 2 -9 9 -6 2 -10 -23 -13 -28 -3 -35 -1 -31 9 2 8 0 11 -5 8
-6 -3 -10 -15 -10 -26 0 -12 4 -17 11 -14 5 4 25 9 42 11 31 3 30 3 -7 -11
-47 -18 -84 -11 -65 11 6 8 9 17 5 21 -3 3 -6 1 -6 -6 0 -8 -7 -11 -15 -7 -9
3 -19 -3 -26 -16 -7 -13 -14 -17 -18 -10 -4 6 -17 8 -31 5 -22 -6 -23 -7 -4
-14 14 -5 9 -7 -17 -7 -20 1 -41 -2 -47 -6 -7 -4 -12 -5 -12 -2 0 11 173 83
280 115 287 87 688 113 951 61z m-1396 0 c4 -6 11 -8 16 -5 5 4 9 1 9 -4 0
-14 -27 -14 -35 -1 -3 5 -20 -4 -37 -21 -24 -22 -34 -26 -40 -17 -6 10 -8 10
-8 0 0 -8 -19 -31 -42 -52 -34 -30 -49 -37 -76 -35 -18 1 -30 0 -28 -3 10 -9
-23 -32 -38 -26 -20 8 -21 24 -1 24 8 0 20 9 27 20 7 11 18 20 25 20 6 0 13 5
15 11 2 6 15 12 30 12 17 2 24 6 20 16 -4 11 -1 13 13 7 11 -4 21 -2 26 5 4 6
18 12 33 12 14 0 23 3 20 8 -3 5 0 9 6 9 6 0 9 4 6 9 -4 5 0 12 6 14 22 9 47
7 53 -3z m62 -6 c-3 -3 -12 -4 -19 -1 -8 3 -5 6 6 6 11 1 17 -2 13 -5z m268
-163 c-6 -5 -25 10 -25 20 0 5 6 4 14 -3 8 -7 12 -15 11 -17z m-641 -27 c3 -8
2 -12 -4 -9 -6 3 -10 10 -10 16 0 14 7 11 14 -7z m-172 -116 c-7 -7 -12 -8
-12 -2 0 14 12 26 19 19 2 -3 -1 -11 -7 -17z m-47 -48 c3 -5 1 -10 -4 -10 -6
0 -11 5 -11 10 0 6 2 10 4 10 3 0 8 -4 11 -10z m206 -114 c-9 -10 -8 -15 4
-20 19 -7 19 -17 -1 -42 -15 -18 -15 -18 -5 3 14 28 14 30 -2 36 -7 3 -22 -2
-32 -10 -16 -13 -17 -14 -3 -10 10 3 20 1 24 -5 5 -8 -3 -9 -25 -5 -23 5 -30
3 -25 -5 4 -6 3 -9 -2 -5 -5 3 -18 -1 -28 -9 -18 -12 -17 -13 12 -10 46 6 48
-18 5 -53 -27 -23 -39 -27 -45 -18 -7 9 -8 8 -7 -3 3 -33 -1 -42 -18 -36 -10
4 -14 4 -10 0 4 -4 -12 -29 -36 -55 -74 -84 -87 -102 -87 -120 0 -16 -4 -17
-26 -9 -48 19 -59 4 -26 -33 17 -20 16 -20 -15 -14 -21 4 -33 3 -33 -4 0 -6
-8 -8 -17 -4 -12 4 -15 3 -8 -4 6 -6 27 -6 55 -1 25 4 48 6 52 4 5 -3 8 0 8 5
0 6 -7 11 -15 11 -8 0 -15 5 -15 10 0 6 9 10 20 10 13 0 20 -7 20 -20 0 -13 7
-20 19 -20 10 0 21 9 24 20 4 15 0 20 -14 20 -23 0 -25 23 -4 40 8 7 15 10 15
6 0 -15 4 -22 21 -34 10 -7 16 -19 13 -26 -3 -9 5 -15 23 -19 39 -7 40 -2 7
27 l-29 25 27 -1 c15 -1 24 -6 22 -10 -3 -4 2 -8 11 -8 10 0 13 -5 9 -12 -5
-7 -2 -9 8 -5 20 7 58 -31 41 -41 -7 -4 -11 -17 -11 -28 2 -16 10 -20 42 -21
l41 -2 -27 15 c-27 14 -41 42 -15 30 6 -3 20 -9 30 -12 9 -4 17 -16 18 -28 0
-11 3 -16 5 -10 3 7 14 10 25 7 18 -5 18 -6 2 -18 -12 -9 -24 -10 -35 -4 -23
12 -28 11 -28 -7 0 -8 -4 -13 -9 -10 -5 4 -7 -2 -4 -12 4 -17 33 -27 33 -12 0
4 7 7 15 7 10 0 13 -7 9 -24 -4 -13 -2 -23 5 -23 6 0 8 6 5 13 -3 8 3 20 12
28 15 12 16 12 10 -9 -7 -22 7 -31 19 -12 4 6 12 4 21 -5 9 -8 22 -15 30 -15
9 0 14 -11 14 -29 0 -39 9 -61 25 -61 7 0 16 -6 19 -12 3 -7 3 4 0 25 -5 32
-4 37 12 36 11 0 14 -3 7 -6 -7 -2 -13 -9 -13 -15 0 -6 7 -8 15 -4 8 3 14 2
14 -2 -4 -28 3 -31 55 -26 51 6 55 5 58 -17 3 -21 4 -22 20 -6 21 22 25 21 31
-4 4 -15 11 -20 21 -16 12 5 16 -1 17 -21 1 -17 3 -20 6 -9 2 9 9 17 14 17 5
0 9 7 9 15 0 8 7 15 15 15 9 0 12 -6 8 -17 -4 -11 -3 -14 5 -9 7 4 12 2 12 -6
0 -11 2 -11 9 0 9 15 111 6 111 -10 0 -6 6 -8 14 -5 8 3 22 -1 33 -8 10 -8 26
-15 36 -15 9 0 26 -9 37 -20 17 -17 18 -21 5 -26 -20 -8 -19 -24 0 -24 23 0
27 -19 15 -75 -6 -28 -11 -60 -11 -72 1 -14 -10 -29 -27 -40 -15 -10 -33 -23
-40 -30 -7 -7 -18 -13 -23 -13 -6 0 -7 -5 -3 -11 5 -9 -1 -10 -20 -5 -17 4
-25 3 -22 -3 6 -10 -61 -34 -73 -26 -4 2 -47 6 -96 8 -50 3 -103 11 -120 17
-16 7 -46 14 -65 17 -19 4 -46 13 -60 22 -20 14 -23 14 -15 1 7 -13 6 -13 -7
-2 -9 7 -20 12 -24 11 -5 -1 -17 1 -27 6 -10 4 -23 2 -32 -5 -8 -7 -23 -9 -37
-4 -13 4 -35 7 -49 6 -14 -1 -34 6 -45 15 -10 10 -23 18 -29 19 -29 2 -73 27
-69 39 4 9 -8 15 -38 20 -24 4 -58 15 -76 26 -41 24 -39 24 -46 -5 -5 -21 -11
-23 -51 -22 -31 2 -49 8 -59 21 -10 15 -17 17 -27 8 -8 -6 -26 -9 -41 -7 -19
2 -28 -2 -28 -12 0 -8 -4 -14 -10 -14 -5 0 -10 6 -10 13 0 11 -13 12 -62 5
-35 -5 -73 -7 -85 -5 -13 2 -23 0 -23 -4 0 -5 -10 -9 -23 -9 -13 0 -28 -5 -33
-10 -18 -18 -133 -43 -147 -32 -7 5 -34 10 -61 11 -26 1 -51 3 -55 5 -3 2 -15
-5 -25 -15 -19 -18 -19 -19 -1 -19 10 0 15 -3 11 -7 -11 -12 -60 -11 -68 0 -4
7 -17 6 -37 -2 -33 -14 -135 -6 -125 10 3 5 0 9 -5 9 -6 0 -11 -4 -11 -9 0 -4
-29 -7 -64 -4 -38 2 -67 -1 -71 -7 -3 -5 -15 -10 -26 -10 -12 0 -23 -10 -29
-25 -11 -28 -18 -29 -74 -14 -61 17 -76 19 -76 8 0 -5 -10 -9 -22 -9 -19 0
-20 2 -8 10 11 7 7 10 -17 10 -71 0 -18 -60 102 -114 66 -31 134 -60 145 -62
3 0 14 -4 25 -8 33 -13 117 -42 166 -57 65 -22 147 -23 193 -4 49 21 62 15 82
-34 19 -47 39 -57 158 -72 57 -7 106 -20 134 -35 25 -13 48 -24 51 -24 12 0
27 55 30 106 2 63 14 107 28 111 13 5 12 -29 -1 -38 -10 -8 2 -139 13 -139 4
0 7 -16 6 -35 0 -19 4 -35 10 -35 14 0 56 -39 90 -83 61 -81 248 -144 490
-163 50 -4 98 -7 108 -5 9 1 17 -2 17 -6 0 -5 28 -9 63 -9 80 0 216 -13 242
-24 11 -4 48 -15 83 -24 35 -9 100 -35 145 -57 120 -60 249 -94 402 -105 44
-3 123 -10 175 -15 52 -5 115 -11 140 -13 25 -2 61 -7 80 -10 19 -4 67 -8 105
-10 76 -4 202 -21 276 -37 25 -6 59 -12 75 -14 16 -2 43 -9 59 -16 38 -15 41
-16 96 -29 25 -6 60 -24 78 -40 33 -30 47 -38 36 -20 -3 6 1 10 9 10 25 0 66
-22 66 -35 0 -7 9 -15 20 -18 13 -3 20 -14 20 -28 0 -22 -1 -22 -13 -4 -15 19
-37 13 -37 -11 0 -8 -9 -14 -20 -14 -11 0 -20 -7 -20 -15 0 -10 -10 -15 -28
-15 -30 0 -105 -34 -96 -43 9 -8 -95 -59 -106 -52 -6 4 -10 0 -10 -7 0 -17
-130 -12 -131 5 0 7 -5 1 -10 -12 -7 -17 -14 -21 -27 -15 -9 4 -38 8 -64 8
-26 1 -53 7 -59 14 -7 6 -22 12 -33 12 -11 0 -27 7 -36 15 -10 9 -35 19 -56
22 -22 3 -46 11 -54 17 -9 7 -50 11 -98 10 -76 -1 -83 1 -79 18 7 25 -6 23
-18 -4 -12 -25 -38 -38 -29 -14 8 20 -3 21 -22 1 -9 -8 -25 -15 -37 -16 -12 0
-31 -2 -41 -4 -11 -2 -28 1 -38 6 -14 7 -24 7 -34 -2 -10 -8 -14 -8 -14 0 0 6
-7 11 -15 11 -8 0 -15 -4 -15 -10 0 -24 -21 -7 -38 30 -10 22 -22 37 -26 33
-4 -4 -16 3 -27 17 -18 23 -20 24 -30 7 -6 -9 -15 -15 -21 -11 -7 4 -6 9 2 14
15 9 2 60 -16 60 -8 0 -14 -5 -14 -11 0 -7 -10 -9 -25 -7 -19 4 -25 1 -23 -10
3 -16 -58 -36 -76 -25 -5 4 -6 1 -2 -5 4 -7 18 -9 32 -6 34 9 31 -14 -3 -27
-26 -10 -27 -12 -8 -19 15 -7 16 -9 4 -9 -9 -1 -22 5 -28 12 -15 18 -145 41
-166 30 -9 -6 -38 -6 -63 -2 -31 4 -49 3 -54 -4 -4 -8 -14 -4 -26 11 -11 12
-24 22 -31 22 -14 0 -15 -37 -1 -45 6 -3 10 -11 10 -17 0 -7 -13 3 -28 20 -31
34 -52 41 -52 17 0 -8 5 -15 10 -15 6 0 10 -7 10 -15 0 -21 -12 -19 -32 4 -13
16 -25 19 -55 14 -21 -3 -44 -12 -50 -21 -11 -14 -15 -14 -31 1 -10 9 -24 17
-31 17 -7 0 -11 6 -8 14 3 8 -1 17 -9 20 -23 9 -24 8 -17 -11 3 -10 2 -15 -2
-10 -5 4 -19 0 -32 -8 -13 -9 -29 -12 -36 -8 -19 12 -61 3 -75 -15 -10 -14
-14 -14 -21 -3 -6 8 -11 9 -15 3 -3 -6 -2 -13 4 -17 12 -7 4 -25 -11 -25 -5 0
-9 7 -9 15 0 9 -9 15 -24 15 -13 0 -26 6 -29 13 -3 8 -14 3 -31 -15 -28 -30
-41 -34 -51 -18 -3 6 1 7 9 4 10 -4 16 -1 16 8 0 16 -55 39 -76 31 -8 -3 -14
-10 -14 -17 0 -7 -4 -6 -9 2 -7 11 -14 11 -42 -3 -19 -10 -38 -23 -42 -29 -6
-7 -7 -4 -3 7 3 10 6 27 6 38 0 16 7 19 53 19 34 0 47 3 38 9 -8 5 -21 7 -30
4 -14 -4 -14 -3 -1 6 8 5 12 11 10 13 -48 31 -75 32 -63 2 4 -10 -2 -17 -16
-21 -16 -4 -20 -11 -16 -24 6 -17 2 -19 -29 -17 l-36 3 23 18 22 19 -26 -6
c-30 -7 -43 2 -29 19 15 18 -14 38 -47 32 -14 -3 -39 0 -55 5 -21 8 -33 7 -41
-1 -19 -19 -27 -12 -27 22 -1 29 -2 30 -14 15 -7 -10 -18 -18 -25 -18 -6 0
-11 -4 -11 -10 0 -5 7 -10 15 -10 8 0 15 -5 15 -11 0 -12 -51 -3 -60 11 -3 5
-38 11 -78 14 -40 3 -82 10 -93 17 -12 6 -37 8 -58 4 -58 -10 -93 -9 -101 5
-5 8 -19 11 -42 6 -23 -4 -45 -1 -67 10 -25 12 -35 13 -46 4 -8 -7 -22 -9 -31
-6 -19 7 -94 -13 -94 -26 0 -5 -4 -7 -9 -4 -5 4 -12 0 -14 -6 -4 -10 -7 -10
-15 0 -5 7 -16 10 -25 6 -11 -4 -17 -1 -18 7 -1 21 -17 -23 -18 -48 -1 -13 7
-24 18 -28 10 -3 22 -18 26 -32 4 -19 9 -23 14 -14 6 10 10 9 15 -4 3 -9 4
-21 1 -26 -7 -11 15 -89 26 -89 4 0 41 -34 83 -75 42 -41 76 -72 76 -67 0 4 9
18 20 32 l20 25 20 -25 c11 -14 20 -19 20 -12 0 7 15 12 40 12 33 0 40 3 40
20 0 18 -6 20 -65 19 -42 -1 -71 4 -82 12 -14 12 -16 12 -11 -1 5 -13 -1 -15
-28 -12 -22 3 -34 10 -34 19 0 20 -64 83 -84 83 -9 0 -16 5 -16 10 0 13 6 13
47 -2 18 -7 33 -18 33 -25 0 -19 28 -27 45 -13 8 6 23 9 35 5 32 -10 90 3 90
20 0 27 18 16 25 -15 4 -16 10 -31 13 -31 15 -3 60 -9 105 -15 26 -3 47 -10
47 -15 0 -5 10 -9 23 -10 18 0 19 -2 5 -7 -10 -4 -14 -12 -10 -17 11 -16 74
-35 114 -35 24 0 44 -8 62 -25 15 -14 36 -25 46 -25 11 0 25 -9 32 -20 7 -11
23 -20 36 -20 15 0 26 -8 32 -24 7 -18 14 -23 29 -19 14 4 21 1 21 -10 0 -8
11 -18 24 -21 26 -6 116 -56 102 -56 -5 0 9 -16 30 -35 21 -19 44 -35 52 -35
8 0 26 -8 40 -18 40 -27 201 -85 218 -78 8 3 12 11 9 16 -4 6 -4 18 -1 26 5
12 17 9 68 -17 35 -17 82 -45 105 -60 23 -16 49 -29 58 -29 9 0 30 -8 48 -17
18 -9 45 -19 61 -21 16 -2 68 -16 115 -32 129 -43 246 -53 503 -47 123 4 243
10 268 15 155 31 224 50 385 104 99 33 182 63 185 67 8 11 77 41 95 41 9 0 13
5 10 10 -3 6 0 10 8 10 8 0 20 7 27 15 7 8 19 15 26 15 8 0 22 7 32 15 9 9 59
43 110 77 79 52 102 62 148 66 35 3 54 1 54 -7 0 -10 -167 -128 -255 -180
-125 -73 -282 -148 -405 -192 -164 -59 -481 -118 -655 -121 -128 -2 -110 -20
77 -78 l138 -42 142 5 c117 4 159 10 233 32 49 15 103 34 120 42 16 9 79 33
138 54 60 20 125 49 146 63 20 14 45 26 54 26 9 0 17 4 17 10 0 11 27 27 55
31 11 2 28 12 39 21 10 9 53 37 95 62 100 61 108 66 147 101 63 57 74 65 83
65 5 0 34 27 64 60 67 74 140 128 187 137 19 3 45 13 57 21 13 8 29 12 37 9
12 -5 12 -11 -3 -39 -18 -36 -153 -178 -168 -178 -5 0 -16 -11 -23 -25 -7 -13
-29 -32 -49 -41 -20 -9 -57 -39 -84 -65 -26 -27 -58 -51 -72 -55 -14 -3 -25
-11 -25 -17 0 -6 -2 -8 -5 -5 -3 3 -20 -9 -38 -26 -19 -17 -47 -38 -63 -46
-16 -8 -42 -24 -59 -36 -52 -37 -357 -191 -415 -209 -84 -26 -123 -65 -72 -71
9 -1 38 -6 64 -12 26 -5 58 -7 71 -5 13 3 41 -2 62 -11 63 -27 104 -21 173 24
34 23 68 38 74 34 7 -4 8 -3 4 4 -4 8 3 16 18 22 14 5 57 30 96 56 39 25 77
44 85 41 10 -4 12 -1 8 10 -5 12 -2 15 10 10 11 -4 25 2 38 16 12 12 19 16 15
10 -4 -7 -5 -13 -1 -13 3 0 9 9 13 19 10 28 135 122 147 110 5 -5 13 -9 19 -9
5 0 6 3 3 7 -4 3 2 13 13 20 11 8 18 18 15 23 -3 5 0 12 6 16 8 5 9 3 4 -6 -5
-9 -4 -11 3 -6 7 4 12 12 12 18 0 6 12 22 28 35 15 14 64 62 110 106 52 51 86
77 90 70 5 -8 12 -7 26 3 11 7 16 17 12 21 -4 4 -11 1 -16 -7 -5 -8 -12 -12
-15 -8 -7 6 12 33 55 78 14 15 41 44 59 66 19 21 39 38 44 36 5 -1 6 2 2 8 -8
12 55 91 67 84 5 -3 8 -2 7 3 -3 15 2 28 15 46 17 22 46 12 46 -15 0 -12 4
-17 12 -12 7 4 8 3 4 -5 -4 -6 -12 -8 -18 -5 -6 4 -14 0 -19 -7 -12 -19 -11
-32 1 -24 6 3 10 1 10 -4 0 -6 -6 -11 -12 -11 -7 0 -23 -16 -36 -35 -12 -19
-27 -34 -33 -32 -6 1 -14 -5 -16 -13 -4 -13 -3 -13 6 0 7 9 11 11 11 3 0 -7
-8 -17 -17 -22 -10 -6 -15 -11 -11 -11 18 0 -101 -130 -119 -130 -7 0 -13 -5
-13 -11 0 -5 5 -7 12 -3 7 4 8 3 4 -4 -4 -7 -14 -12 -22 -12 -8 0 -13 -4 -10
-8 6 -11 -186 -202 -203 -202 -7 0 -9 -5 -5 -12 4 -7 4 -10 -1 -6 -4 4 -15 3
-22 -4 -11 -9 -17 -9 -24 3 -5 8 -9 9 -9 4 0 -6 3 -15 8 -20 4 -6 5 -9 3 -8
-2 2 -11 -6 -18 -17 -8 -11 -19 -18 -24 -15 -5 4 -9 -1 -9 -9 0 -9 -6 -13 -14
-10 -8 3 -17 0 -22 -7 -4 -8 -3 -10 4 -5 7 4 12 3 12 -2 0 -9 -26 -21 -55 -26
-5 -1 -9 -7 -8 -13 3 -17 -18 -31 -52 -35 -34 -3 -59 -23 -50 -38 7 -12 -96
-72 -113 -65 -7 3 -10 0 -7 -5 3 -6 1 -10 -5 -10 -6 0 -18 -7 -27 -15 -8 -8
-19 -13 -24 -10 -5 4 -9 1 -9 -5 0 -7 -7 -9 -16 -6 -8 3 -12 2 -9 -4 3 -6 0
-10 -8 -10 -8 0 -25 -9 -38 -21 -13 -11 -36 -28 -51 -37 -41 -24 -37 -48 9
-50 20 -1 40 -7 45 -14 6 -10 8 -10 8 0 0 10 11 11 48 6 26 -4 65 -7 87 -6
193 9 445 10 450 2 3 -6 15 -10 27 -10 14 0 18 -5 14 -16 -3 -8 -2 -13 3 -10
5 3 14 -1 21 -9 15 -18 56 -20 63 -2 4 8 6 9 6 0 1 -6 -6 -18 -14 -26 -8 -8
-12 -17 -9 -20 3 -3 -11 -11 -30 -18 -20 -7 -36 -17 -36 -21 0 -4 -9 -8 -21
-8 -11 0 -17 4 -14 10 4 6 -3 6 -21 0 -15 -6 -35 -8 -45 -5 -11 4 -19 2 -19
-3 0 -5 -23 -10 -51 -11 -28 0 -73 -7 -100 -15 -45 -14 -49 -14 -50 2 -1 15
-2 15 -6 0 -5 -20 -28 -24 -38 -8 -10 16 -35 12 -35 -6 0 -14 -7 -16 -40 -11
-26 3 -43 1 -50 -8 -13 -16 -70 -25 -70 -12 0 6 -8 3 -18 -6 -10 -10 -24 -17
-32 -17 -7 0 -28 -9 -46 -21 -19 -11 -34 -17 -34 -13 0 4 -9 -1 -20 -11 -11
-10 -17 -22 -14 -26 3 -5 -2 -6 -10 -3 -8 3 -36 -6 -63 -20 -26 -14 -56 -26
-65 -26 -10 0 -18 -3 -18 -7 0 -5 -15 -8 -32 -9 -18 0 -42 -4 -52 -9 -14 -6
-17 -5 -12 3 11 18 -50 19 -68 1 -14 -13 -60 -11 -74 3 -9 9 -12 9 -12 -1 0
-9 -6 -11 -17 -6 -10 4 -45 10 -78 12 -33 3 -66 9 -72 15 -7 6 -23 8 -35 5
-29 -8 -107 12 -136 34 -13 10 -30 15 -39 12 -10 -4 -14 -2 -10 4 8 12 -34 43
-58 43 -9 0 -23 7 -31 15 -9 8 -27 15 -40 15 -14 0 -32 6 -39 14 -10 10 -39
14 -90 15 -53 0 -83 6 -101 18 -16 10 -45 17 -75 16 -27 0 -49 3 -49 8 0 5 -3
8 -7 7 -5 -1 -21 4 -37 11 -22 9 -31 9 -36 1 -4 -7 -18 -10 -31 -8 -13 2 -33
-5 -43 -14 -22 -20 -51 -24 -61 -8 -3 6 -23 10 -44 10 -25 0 -44 7 -56 20 -19
21 -45 27 -45 10 0 -5 -10 -10 -22 -10 -18 0 -20 2 -9 9 25 16 -6 41 -50 41
-22 0 -39 3 -39 8 0 4 -34 7 -76 8 -46 0 -79 5 -83 13 -9 13 -84 23 -188 24
-40 0 -71 5 -70 10 1 5 -11 14 -28 20 -16 5 -33 15 -37 21 -5 8 -8 7 -8 -1 0
-7 -7 -13 -15 -13 -8 0 -15 5 -15 10 0 6 6 10 13 10 9 0 8 3 -2 9 -7 5 -21 6
-31 4 -10 -3 -21 0 -24 6 -9 14 -26 14 -26 1 0 -5 6 -10 14 -10 7 0 16 -8 19
-19 3 -14 0 -17 -13 -14 -10 3 -31 -2 -46 -10 -40 -20 -104 -31 -104 -17 0 7
-6 8 -19 0 -25 -13 -68 -13 -76 0 -3 6 -21 10 -38 10 -41 0 -68 16 -49 29 22
13 10 46 -18 49 -14 2 -30 8 -37 14 -7 5 -17 7 -23 3 -6 -4 -22 0 -35 9 -13 9
-35 16 -47 17 -13 0 -18 3 -11 5 8 4 5 12 -10 27 -26 26 -108 31 -119 7 -5
-12 -8 -11 -13 6 -5 16 -13 20 -31 16 -27 -5 -29 0 -13 30 8 15 8 23 -1 32 -9
8 -14 8 -17 -1 -6 -15 -39 -17 -48 -3 -3 6 2 10 12 11 15 0 15 2 -3 11 -16 7
-21 18 -20 42 1 23 -3 31 -15 30 -11 -1 -14 5 -12 20 6 28 -14 79 -28 71 -16
-10 -69 15 -69 33 0 13 -2 13 -18 -2 -18 -15 -19 -15 -30 9 -6 14 -17 25 -25
25 -17 0 -44 33 -39 48 5 17 -4 15 -22 -4 -15 -14 -16 -13 -16 15 0 30 -5 38
-45 66 -17 12 -17 14 -3 15 9 0 18 -6 21 -12 4 -10 7 -10 18 0 12 11 11 15 -5
27 -19 15 -14 35 10 35 10 0 14 12 14 40 0 32 -4 40 -18 40 -9 0 -23 9 -30 20
-7 11 -17 20 -22 20 -6 0 -10 -9 -10 -20 0 -13 -7 -20 -19 -20 -10 0 -21 -7
-25 -15 -3 -8 -12 -15 -21 -15 -9 0 -15 -9 -15 -25 0 -18 5 -25 20 -25 24 0
27 -15 5 -24 -9 -3 -18 1 -21 9 -4 8 -12 15 -20 15 -7 0 -19 8 -26 18 -7 9
-30 25 -51 34 -20 10 -36 23 -35 30 2 8 -20 18 -54 27 -44 11 -58 20 -58 33 0
12 -7 18 -22 18 -21 -1 -22 -2 -6 -14 10 -7 15 -16 11 -19 -10 -10 -81 -8 -87
2 -8 13 -55 20 -59 8 -2 -7 -15 -6 -37 1 -18 7 -36 9 -39 4 -6 -8 -115 -7
-161 1 -14 2 -32 5 -40 6 -11 2 -9 5 5 11 14 6 0 9 -47 9 -44 1 -68 -3 -71
-11 -4 -8 -6 -7 -6 3 -1 10 -10 17 -23 18 -74 3 -130 14 -117 22 11 7 10 9 -5
9 -14 0 -17 5 -13 21 3 12 3 18 0 15 -3 -3 -19 4 -34 15 -16 11 -34 17 -39 14
-6 -4 -10 -3 -9 2 1 4 1 17 0 28 -1 16 -3 17 -10 6 -8 -12 -12 -12 -24 -2 -9
7 -24 11 -34 9 -15 -2 -17 3 -15 30 3 30 1 33 -17 27 -14 -4 -21 -2 -21 7 0 7
-9 19 -20 26 -11 7 -20 21 -20 32 0 24 -17 26 -42 4 -16 -15 -18 -15 -23 -1
-5 11 -17 14 -50 10 -42 -4 -44 -3 -47 24 -3 27 -5 28 -50 26 -27 -1 -48 3
-48 8 0 5 -11 9 -25 9 -14 0 -25 4 -25 9 0 5 -9 11 -21 14 -12 3 -18 10 -15
15 3 6 -10 12 -28 14 -19 2 -32 0 -30 -4 3 -4 -4 -8 -15 -8 -14 0 -19 5 -15
15 4 9 0 15 -9 15 -9 0 -23 7 -32 16 -18 18 -47 12 -39 -9 6 -16 -55 -33 -65
-19 -3 4 -23 19 -44 31 -25 16 -35 26 -27 31 7 4 -3 10 -24 14 -20 4 -34 11
-31 17 4 5 0 9 -8 9 -8 0 -26 12 -41 26 -29 30 -37 84 -11 84 13 0 13 4 0 38
-16 38 -16 91 -1 372 14 245 21 778 11 788 -3 3 1 12 8 20 9 12 9 16 0 19 -20
7 -15 23 5 17 14 -5 14 -3 -3 12 -17 14 -17 16 -2 11 9 -4 17 -1 17 5 0 7 16
9 45 6 25 -3 45 -2 45 3 0 5 11 9 25 9 14 0 25 -5 25 -11 0 -6 11 -8 28 -5 29
7 101 17 142 20 14 1 38 8 55 15 18 7 31 8 33 3 3 -10 74 -6 102 6 8 3 33 7
55 7 76 2 170 17 177 28 5 8 11 7 23 -3 12 -10 21 -10 41 -1 14 6 29 9 34 6 5
-3 12 -1 15 5 5 8 12 7 23 -2 13 -11 14 -11 8 1 -7 10 -3 12 13 6 12 -4 28 -2
36 5 8 6 22 9 32 6 10 -3 46 0 81 8 35 7 95 14 135 15 40 1 86 6 102 11 17 5
66 11 109 14 44 3 82 10 85 15 4 6 15 10 26 9 11 0 34 5 50 10 72 25 146 43
155 37 5 -3 7 0 4 8 -10 26 40 45 134 52 13 1 27 6 30 12 10 16 176 55 180 43
2 -5 8 -10 13 -10 6 0 8 4 5 8 -3 5 8 9 24 10 39 1 57 12 39 23 -8 4 13 6 46
4 39 -3 55 -2 45 5 -10 6 -5 9 19 8 22 -1 37 5 43 16 5 9 13 14 19 11 5 -4 9
0 9 8 0 8 9 22 20 32 11 10 20 23 20 29 0 6 18 36 40 65 30 39 39 47 38 31 -2
-13 3 -25 11 -28 8 -3 11 0 7 7 -4 6 -2 11 3 11 6 0 11 5 11 11 0 5 -6 7 -12
3 -8 -4 -10 -3 -5 2 5 5 13 9 18 9 5 0 27 20 49 44 22 24 42 42 44 40 4 -3
-82 -125 -124 -176 -6 -7 -10 -16 -10 -21 0 -5 -6 -15 -14 -22 -10 -8 -12 -18
-7 -33 7 -19 17 -22 75 -24 42 -2 66 1 66 8 0 5 8 9 18 7 9 -1 22 1 29 5 6 4
14 3 18 -3 8 -13 45 -13 45 0 0 6 -7 10 -15 10 -8 0 -15 3 -15 6 0 3 7 12 15
20 8 9 15 11 15 5 0 -6 5 -11 10 -11 6 0 10 9 10 20 0 11 4 20 9 20 5 0 11 6
14 13 2 6 2 -1 1 -18 -2 -16 -1 -23 3 -15 9 22 30 40 37 33 3 -4 6 0 6 8 0 12
2 12 10 -1 6 -10 4 -20 -6 -31 -9 -10 -14 -23 -13 -31 3 -28 -1 -47 -13 -51
-7 -2 -1 -3 15 -1 24 3 27 0 27 -27 l0 -30 26 20 c15 12 35 21 45 21 11 0 19
5 19 10 0 6 9 10 21 10 11 0 17 5 14 10 -3 6 0 10 7 10 7 0 24 3 37 7 18 5 22
3 16 -7 -5 -8 -3 -11 6 -8 8 3 16 15 18 29 4 32 40 81 53 73 7 -4 8 -2 4 5 -9
13 110 141 131 141 7 0 12 5 11 10 -2 6 26 33 62 60 70 52 79 58 61 36z m-360
-9 c-1 -4 -4 -7 -8 -6 -3 0 -10 -6 -15 -15 -11 -20 -24 -20 -32 0 -4 11 -2 15
8 11 8 -3 17 1 20 9 6 15 28 16 27 1z m-44 -53 c-3 -3 -12 -4 -19 -1 -8 3 -5
6 6 6 11 1 17 -2 13 -5z m-37 -74 c0 -5 -4 -10 -10 -10 -5 0 -10 5 -10 10 0 6
5 10 10 10 6 0 10 -4 10 -10z m-55 -47 c-14 -14 -27 -24 -30 -22 -9 10 8 48
24 52 30 7 32 -5 6 -30z m590 -373 c3 -5 1 -10 -4 -10 -6 0 -11 5 -11 10 0 6
2 10 4 10 3 0 8 -4 11 -10z m25 -20 c0 -5 -10 -10 -22 -9 -22 0 -22 1 -3 9 11
5 21 9 23 9 1 1 2 -3 2 -9z m-852 -720 c15 -42 4 -98 -21 -106 -12 -4 -23 -1
-28 7 -10 16 -12 113 -2 122 16 17 42 5 51 -23z m3052 -914 c0 -3 -4 -8 -10
-11 -5 -3 -10 -1 -10 4 0 6 5 11 10 11 6 0 10 -2 10 -4z m-3070 -36 c-20 -13
-33 -13 -25 0 3 6 14 10 23 10 15 0 15 -2 2 -10z m3567 -90 c6 -24 23 -27 23
-4 0 14 3 14 15 4 8 -7 15 -8 15 -3 0 5 13 8 29 5 21 -3 28 -8 24 -19 -4 -10
-9 -11 -16 -4 -15 15 -30 14 -21 -1 4 -7 3 -8 -4 -4 -6 4 -20 2 -31 -4 -24
-12 -51 -3 -52 19 0 10 -2 11 -6 4 -8 -21 -22 -15 -16 7 3 11 12 20 20 20 8 0
17 -9 20 -20z m-1777 0 c0 -5 -4 -10 -10 -10 -5 0 -10 5 -10 10 0 6 5 10 10
10 6 0 10 -4 10 -10z m-3843 -42 c-3 -8 -6 -5 -6 6 -1 11 2 17 5 13 3 -3 4
-12 1 -19z m1643 -43 c10 -12 10 -15 -3 -15 -8 0 -17 7 -21 15 -3 8 -2 15 3
15 5 0 14 -7 21 -15z m4401 -8 c-10 -9 -11 -8 -5 6 3 10 9 15 12 12 3 -3 0
-11 -7 -18z m-5803 -53 c8 -38 8 -41 -9 -37 -15 4 -19 14 -17 49 3 50 13 46
26 -12z m-71 -21 c-3 -10 -5 -2 -5 17 0 19 2 27 5 18 2 -10 2 -26 0 -35z
m5913 33 c0 -3 -4 -8 -10 -11 -5 -3 -10 -1 -10 4 0 6 5 11 10 11 6 0 10 -2 10
-4z m-5750 -97 c0 -6 -4 -7 -10 -4 -5 3 -10 11 -10 16 0 6 5 7 10 4 6 -3 10
-11 10 -16z m1200 -284 c0 -8 -2 -15 -4 -15 -2 0 -6 7 -10 15 -3 8 -1 15 4 15
6 0 10 -7 10 -15z m667 -591 c-3 -3 -12 -4 -19 -1 -8 3 -5 6 6 6 11 1 17 -2
13 -5z m74 -32 c-7 -2 -18 1 -23 6 -8 8 -4 9 13 5 13 -4 18 -8 10 -11z m3466
-78 c-3 -3 -12 -4 -19 -1 -8 3 -5 6 6 6 11 1 17 -2 13 -5z m-3172 -14 c3 -6
-1 -7 -9 -4 -18 7 -21 14 -7 14 6 0 13 -4 16 -10z m432 -16 c-3 -3 -12 -4 -19
-1 -8 3 -5 6 6 6 11 1 17 -2 13 -5z m-1967 -8 c0 -2 -7 -6 -15 -10 -8 -3 -15
-1 -15 4 0 6 7 10 15 10 8 0 15 -2 15 -4z m2117 -12 c-3 -3 -12 -4 -19 -1 -8
3 -5 6 6 6 11 1 17 -2 13 -5z m133 -4 c0 -5 -12 -10 -26 -10 -14 0 -23 4 -19
10 3 6 15 10 26 10 10 0 19 -4 19 -10z m2528 -131 c28 -7 31 -11 17 -26 -8 -8
-15 -25 -15 -38 0 -13 -9 -30 -20 -38 -11 -8 -17 -16 -15 -19 3 -3 -1 -8 -10
-11 -10 -4 -15 -1 -15 11 0 10 -3 13 -8 7 -12 -17 -39 -16 -46 2 -6 15 -9 15
-17 3 -9 -12 -10 -12 -5 3 3 10 2 27 -4 37 -7 13 -6 19 5 24 8 3 15 12 15 20
0 23 50 44 83 35 15 -4 31 -9 35 -10z m-3863 -133 c109 -2 147 -8 235 -33 58
-17 130 -37 160 -43 30 -7 67 -18 81 -26 14 -7 58 -24 99 -38 40 -14 80 -32
89 -40 9 -8 45 -26 80 -41 35 -15 110 -49 167 -76 56 -27 107 -49 113 -49 6 0
11 -4 11 -10 0 -5 8 -10 18 -10 10 0 23 -5 29 -11 17 -17 103 -47 228 -80 61
-16 127 -36 148 -44 20 -8 37 -13 37 -10 0 2 29 -11 65 -30 36 -19 70 -35 76
-35 6 0 33 -11 61 -25 27 -14 56 -25 64 -25 8 0 22 -4 32 -9 51 -26 121 -53
147 -57 11 -1 40 -8 65 -14 25 -6 56 -14 70 -17 14 -2 32 -7 40 -10 8 -3 32
-7 53 -8 21 -2 46 -10 55 -18 10 -8 22 -12 29 -10 6 2 14 -1 18 -6 3 -6 -1
-11 -9 -11 -9 0 -16 -2 -16 -4 0 -2 -3 -12 -7 -22 -5 -13 -3 -16 10 -11 11 4
17 1 17 -7 0 -9 -7 -12 -20 -9 -11 3 -20 0 -20 -6 0 -6 -9 -11 -21 -11 -12 0
-23 -8 -26 -18 -3 -12 -12 -18 -26 -17 -12 1 -30 -2 -40 -7 -10 -5 -44 -11
-75 -14 -31 -2 -58 -8 -61 -13 -3 -5 -42 -9 -85 -10 -50 -1 -86 -6 -95 -15
-23 -19 -55 -25 -68 -11 -6 7 -38 15 -72 19 -33 4 -63 11 -66 17 -4 5 -11 7
-16 4 -5 -3 -6 1 -3 9 4 11 0 16 -15 16 -12 0 -21 4 -21 9 0 14 -52 20 -100
11 -28 -5 -50 -4 -57 2 -7 5 -16 7 -22 4 -17 -11 -65 15 -103 55 -20 21 -45
39 -55 39 -11 0 -24 5 -30 11 -17 17 -63 0 -64 -25 -2 -20 -2 -20 -6 2 -7 34
-35 24 -39 -15 -3 -26 0 -33 19 -37 25 -6 -65 1 -103 7 -14 3 -34 8 -44 13
-19 7 -19 8 0 16 15 7 14 8 -7 5 -18 -3 -30 3 -38 15 -10 16 -15 17 -27 8 -11
-10 -14 -9 -14 4 0 9 -3 16 -7 17 -59 5 -89 12 -91 19 -2 6 -15 10 -28 10 -13
0 -24 5 -24 11 0 5 -5 7 -10 4 -6 -4 -16 -2 -23 3 -7 5 -49 12 -95 15 -65 4
-87 9 -97 24 -9 11 -14 13 -15 5 0 -7 -5 -10 -10 -7 -6 4 -8 11 -5 16 4 5 -7
9 -24 9 -16 0 -31 -5 -33 -11 -6 -18 -76 0 -74 19 1 12 -9 18 -34 20 -19 2
-41 10 -47 19 -11 14 -13 14 -13 2 -1 -9 -7 -6 -20 9 -11 14 -24 20 -31 16 -9
-5 -10 -2 -6 9 5 13 -2 18 -29 23 -19 3 -37 10 -40 15 -3 5 -14 9 -25 9 -11 0
-22 7 -25 15 -4 8 -12 15 -20 15 -7 0 -17 12 -20 26 -7 29 -64 69 -179 127
-38 19 -84 42 -101 51 -36 18 -56 55 -60 109 -2 36 -1 38 24 35 23 -2 27 1 24
18 -2 12 4 24 13 27 8 4 15 14 15 23 0 22 60 76 77 70 7 -3 13 -1 13 5 0 5 10
7 23 4 12 -3 81 -7 152 -9z m2728 -13 c-7 -2 -19 -2 -25 0 -7 3 -2 5 12 5 14
0 19 -2 13 -5z m-3475 -719 c13 -1 33 -9 45 -17 12 -8 37 -18 54 -21 62 -14
195 -87 285 -156 14 -11 31 -20 36 -20 6 0 12 -4 14 -8 2 -4 21 -19 43 -32 62
-37 155 -108 205 -156 25 -23 68 -64 96 -90 29 -26 50 -54 47 -61 -3 -7 2 -13
11 -13 9 0 16 -5 16 -11 0 -7 8 -17 17 -24 10 -8 17 -27 17 -53 1 -32 -2 -38
-12 -30 -9 8 -16 8 -24 0 -7 -7 -26 -12 -43 -12 -23 0 -27 -3 -15 -10 13 -9
13 -11 0 -20 -22 -14 -27 -12 -33 11 -5 19 -11 21 -45 15 -31 -5 -43 -2 -57
14 -11 12 -26 18 -35 15 -10 -3 -23 1 -30 10 -7 8 -18 15 -24 15 -7 0 -21 8
-32 19 -11 10 -38 24 -60 30 -21 7 -46 15 -54 18 -8 3 -26 6 -38 7 -13 1 -28
9 -33 19 -6 9 -16 17 -23 17 -17 0 -74 29 -81 41 -4 5 -15 9 -26 9 -11 0 -17
5 -14 10 3 6 -3 10 -14 10 -26 0 -103 75 -99 97 2 10 -2 17 -10 15 -7 -1 -17
9 -23 22 -8 18 -23 27 -49 31 -41 7 -140 91 -140 119 0 8 -5 18 -10 21 -6 4
-8 15 -5 26 4 11 2 19 -4 19 -6 0 -11 7 -11 15 0 9 6 12 15 9 8 -4 15 -1 15 5
0 6 -12 11 -27 12 -24 1 -25 2 -8 8 65 24 85 35 82 45 -9 23 13 47 36 40 12
-4 32 -8 45 -10z"/>
<path d="M18601 28434 c0 -11 3 -14 6 -6 3 7 2 16 -1 19 -3 4 -6 -2 -5 -13z"/>
<path d="M18568 28413 c-20 -5 -26 -67 -8 -78 6 -4 10 5 10 20 0 15 5 35 10
46 6 10 9 18 8 18 -2 -1 -11 -3 -20 -6z"/>
<path d="M18470 28315 c0 -8 5 -15 10 -15 6 0 10 7 10 15 0 8 -4 15 -10 15 -5
0 -10 -7 -10 -15z"/>
<path d="M18565 28280 c3 -5 8 -10 11 -10 2 0 4 5 4 10 0 6 -5 10 -11 10 -5 0
-7 -4 -4 -10z"/>
<path d="M18751 27976 c-12 -31 -27 -56 -33 -56 -5 0 -8 -6 -6 -12 3 -7 -4
-32 -15 -56 -10 -24 -17 -46 -14 -48 6 -6 99 205 95 217 -2 6 -14 -14 -27 -45z"/>
<path d="M19170 27785 c0 -9 6 -12 15 -9 8 4 15 7 15 9 0 2 -7 5 -15 9 -9 3
-15 0 -15 -9z"/>
<path d="M17570 27776 c0 -2 7 -9 15 -16 13 -11 14 -10 9 4 -5 14 -24 23 -24
12z"/>
<path d="M19177 27730 c3 -11 7 -20 8 -20 1 0 5 9 8 20 3 12 0 20 -8 20 -8 0
-11 -8 -8 -20z"/>
<path d="M19210 27731 c0 -12 40 -81 47 -81 7 0 -8 64 -19 78 -12 14 -28 16
-28 3z"/>
<path d="M17570 27704 c0 -14 3 -14 15 -4 8 7 15 14 15 16 0 2 -7 4 -15 4 -8
0 -15 -7 -15 -16z"/>
<path d="M17557 27650 c3 -11 9 -20 14 -20 11 0 11 3 3 24 -9 23 -23 20 -17
-4z"/>
<path d="M17635 27640 c3 -5 8 -10 11 -10 2 0 4 5 4 10 0 6 -5 10 -11 10 -5 0
-7 -4 -4 -10z"/>
<path d="M17468 27603 c7 -3 16 -2 19 1 4 3 -2 6 -13 5 -11 0 -14 -3 -6 -6z"/>
<path d="M17413 27513 c-18 -7 -16 -23 2 -23 8 0 15 7 15 15 0 8 -1 15 -2 14
-2 0 -9 -3 -15 -6z"/>
<path d="M17435 27461 c-3 -5 -1 -12 5 -16 5 -3 10 1 10 9 0 18 -6 21 -15 7z"/>
<path d="M19221 27399 c22 -32 41 -37 30 -7 -4 13 -17 25 -27 27 -17 3 -17 2
-3 -20z"/>
<path d="M17390 27355 c0 -8 5 -15 10 -15 6 0 10 7 10 15 0 8 -4 15 -10 15 -5
0 -10 -7 -10 -15z"/>
<path d="M17310 27186 c0 -20 17 -29 26 -15 4 8 9 7 15 -2 10 -17 23 -5 16 16
-8 19 -57 20 -57 1z"/>
<path d="M17344 27109 c-3 -5 -1 -9 5 -9 5 0 16 -3 25 -6 9 -3 16 -2 16 4 0
13 -38 23 -46 11z"/>
<path d="M17324 26974 c-2 -20 0 -21 12 -9 17 17 17 22 2 28 -8 3 -14 -5 -14
-19z"/>
<path d="M17400 26770 c0 -5 5 -10 11 -10 5 0 7 5 4 10 -3 6 -8 10 -11 10 -2
0 -4 -4 -4 -10z"/>
<path d="M17340 26755 c-11 -13 -10 -18 5 -29 12 -8 16 -19 11 -31 -5 -14 -4
-16 7 -6 8 6 13 21 12 34 -1 12 -3 28 -4 35 -1 17 -16 15 -31 -3z"/>
<path d="M17410 26700 c-8 -5 -12 -12 -9 -15 4 -3 12 1 19 10 14 17 11 19 -10
5z"/>
<path d="M17400 26639 c0 -5 5 -7 10 -4 6 3 10 8 10 11 0 2 -4 4 -10 4 -5 0
-10 -5 -10 -11z"/>
<path d="M17400 26590 c0 -5 5 -10 10 -10 6 0 10 5 10 10 0 6 -4 10 -10 10 -5
0 -10 -4 -10 -10z"/>
<path d="M17491 26574 c0 -11 3 -14 6 -6 3 7 2 16 -1 19 -3 4 -6 -2 -5 -13z"/>
<path d="M17410 26475 c-7 -9 -8 -15 -2 -15 5 0 12 7 16 15 3 8 4 15 2 15 -2
0 -9 -7 -16 -15z"/>
<path d="M17330 26195 c0 -9 -7 -27 -16 -41 -15 -23 -15 -24 1 -18 25 10 47
74 25 74 -5 0 -10 -7 -10 -15z"/>
<path d="M17325 26121 c-3 -5 -1 -12 5 -16 5 -3 10 1 10 9 0 18 -6 21 -15 7z"/>
<path d="M17320 26070 c0 -5 5 -10 10 -10 6 0 10 5 10 10 0 6 -4 10 -10 10 -5
0 -10 -4 -10 -10z"/>
<path d="M17288 25903 c7 -3 16 -2 19 1 4 3 -2 6 -13 5 -11 0 -14 -3 -6 -6z"/>
<path d="M18228 25903 c7 -3 16 -2 19 1 4 3 -2 6 -13 5 -11 0 -14 -3 -6 -6z"/>
<path d="M18638 25903 c7 -3 16 -2 19 1 4 3 -2 6 -13 5 -11 0 -14 -3 -6 -6z"/>
<path d="M17413 25785 c-16 -13 -16 -14 -1 -15 9 0 19 -6 22 -12 3 -7 3 -2 -1
12 -5 22 -4 23 11 11 9 -7 16 -9 16 -3 0 17 -27 21 -47 7z"/>
<path d="M18465 24720 c3 -5 8 -10 11 -10 2 0 4 5 4 10 0 6 -5 10 -11 10 -5 0
-7 -4 -4 -10z"/>
<path d="M16460 24680 c0 -5 5 -10 11 -10 5 0 7 5 4 10 -3 6 -8 10 -11 10 -2
0 -4 -4 -4 -10z"/>
<path d="M18246 24431 c-4 -7 -5 -15 -2 -18 9 -9 19 4 14 18 -4 11 -6 11 -12
0z"/>
<path d="M17762 24328 c2 -6 10 -14 16 -16 7 -2 10 2 6 12 -7 18 -28 22 -22 4z"/>
<path d="M16300 24269 c0 -5 5 -7 10 -4 6 3 10 8 10 11 0 2 -4 4 -10 4 -5 0
-10 -5 -10 -11z"/>
<path d="M17837 24134 c-11 -11 -8 -19 12 -43 11 -13 25 -20 30 -16 16 9 13
25 -2 19 -16 -6 -43 23 -33 33 4 4 12 1 17 -7 9 -13 10 -13 7 -1 -5 17 -21 25
-31 15z"/>
<path d="M16235 24120 c3 -5 8 -10 11 -10 2 0 4 5 4 10 0 6 -5 10 -11 10 -5 0
-7 -4 -4 -10z"/>
<path d="M17800 24096 c0 -14 5 -26 10 -26 6 0 10 9 10 19 0 11 -4 23 -10 26
-6 4 -10 -5 -10 -19z"/>
<path d="M17670 24091 c0 -5 6 -14 14 -20 12 -10 13 -8 9 8 -5 21 -23 30 -23
12z"/>
<path d="M17927 24093 c-10 -9 -9 -53 1 -53 5 0 9 14 10 30 1 32 -1 34 -11 23z"/>
<path d="M17592 24081 c4 -13 18 -16 19 -4 0 4 -5 9 -11 12 -7 2 -11 -2 -8 -8z"/>
<path d="M17717 24083 c-3 -7 -3 -17 2 -40 2 -11 21 20 21 35 0 13 -16 17 -23
5z"/>
<path d="M17640 24070 c0 -5 7 -10 15 -10 8 0 15 5 15 10 0 6 -7 10 -15 10 -8
0 -15 -4 -15 -10z"/>
<path d="M17912 23958 c5 -15 58 -24 58 -10 0 11 -24 22 -47 22 -8 0 -13 -6
-11 -12z"/>
<path d="M18210 23673 c0 -5 4 -14 9 -21 7 -11 9 -11 14 1 3 8 3 18 0 21 -9 8
-23 7 -23 -1z"/>
<path d="M16231 23534 c0 -11 3 -14 6 -6 3 7 2 16 -1 19 -3 4 -6 -2 -5 -13z"/>
<path d="M16260 23520 c0 -5 5 -10 10 -10 6 0 10 5 10 10 0 6 -4 10 -10 10 -5
0 -10 -4 -10 -10z"/>
<path d="M16146 23444 c-4 -9 -4 -19 -2 -21 8 -8 26 8 26 23 0 19 -16 18 -24
-2z"/>
<path d="M16265 23440 c-3 -5 1 -10 10 -10 9 0 13 5 10 10 -3 6 -8 10 -10 10
-2 0 -7 -4 -10 -10z"/>
<path d="M16250 23400 c0 -5 5 -10 10 -10 6 0 10 5 10 10 0 6 -4 10 -10 10 -5
0 -10 -4 -10 -10z"/>
<path d="M16231 23354 c0 -11 3 -14 6 -6 3 7 2 16 -1 19 -3 4 -6 -2 -5 -13z"/>
<path d="M17225 23290 c-3 -5 -1 -10 4 -10 6 0 11 5 11 10 0 6 -2 10 -4 10 -3
0 -8 -4 -11 -10z"/>
<path d="M17146 23192 c-2 -4 -1 -14 5 -22 7 -12 9 -10 9 8 0 23 -5 28 -14 14z"/>
<path d="M18146 28161 c-4 -7 -5 -15 -2 -18 9 -9 19 4 14 18 -4 11 -6 11 -12
0z"/>
<path d="M18035 28150 c-3 -5 -2 -10 4 -10 5 0 13 5 16 10 3 6 2 10 -4 10 -5
0 -13 -4 -16 -10z"/>
<path d="M19834 26169 c-3 -6 -1 -16 5 -22 8 -8 11 -5 11 11 0 24 -5 28 -16
11z"/>
<path d="M19798 26082 c-30 -66 -45 -132 -31 -132 31 0 77 118 65 164 -7 24
-9 22 -34 -32z"/>
<path d="M13905 27289 c-4 -6 -5 -12 -2 -15 7 -7 37 7 37 17 0 13 -27 11 -35
-2z"/>
<path d="M13912 27235 c8 -19 14 -22 20 -13 14 22 9 38 -12 38 -17 0 -18 -3
-8 -25z"/>
<path d="M13780 27073 c0 -21 3 -24 9 -14 5 8 7 20 4 28 -8 21 -13 15 -13 -14z"/>
<path d="M13836 27085 c4 -8 11 -15 16 -15 6 0 5 6 -2 15 -7 8 -14 15 -16 15
-2 0 -1 -7 2 -15z"/>
<path d="M13830 27031 c0 -25 6 -27 13 -6 4 8 2 17 -3 20 -6 4 -10 -3 -10 -14z"/>
<path d="M13950 27030 c0 -5 5 -10 11 -10 5 0 7 5 4 10 -3 6 -8 10 -11 10 -2
0 -4 -4 -4 -10z"/>
<path d="M13910 26909 c0 -11 5 -17 10 -14 6 3 10 13 10 21 0 8 -4 14 -10 14
-5 0 -10 -9 -10 -21z"/>
<path d="M13855 26830 c-3 -5 1 -10 9 -10 9 0 16 5 16 10 0 6 -4 10 -9 10 -6
0 -13 -4 -16 -10z"/>
<path d="M13906 26832 c-3 -6 -1 -14 5 -17 15 -10 25 3 12 16 -7 7 -13 7 -17
1z"/>
<path d="M13867 26753 c-12 -11 -8 -23 8 -23 8 0 15 7 15 15 0 16 -12 20 -23
8z"/>
<path d="M13910 26738 c0 -10 38 -20 50 -13 19 12 10 22 -20 21 -16 -1 -30 -4
-30 -8z"/>
<path d="M13917 26650 c-3 -11 -2 -22 3 -25 4 -3 10 4 13 15 3 11 2 22 -3 25
-4 3 -10 -4 -13 -15z"/>
<path d="M13914 26535 c-2 -21 1 -23 12 -15 7 7 18 9 24 5 15 -9 12 4 -4 21
-21 21 -31 17 -32 -11z"/>
<path d="M13921 26486 c-9 -11 -6 -12 14 -8 14 2 25 8 25 13 0 14 -26 11 -39
-5z"/>
<path d="M13950 26410 c0 -5 5 -10 10 -10 6 0 10 5 10 10 0 6 -4 10 -10 10 -5
0 -10 -4 -10 -10z"/>
<path d="M13990 26335 c0 -8 4 -15 10 -15 5 0 7 7 4 15 -4 8 -8 15 -10 15 -2
0 -4 -7 -4 -15z"/>
<path d="M14080 26330 c0 -5 7 -10 16 -10 8 0 12 5 9 10 -3 6 -10 10 -16 10
-5 0 -9 -4 -9 -10z"/>
<path d="M14000 26279 c0 -11 5 -17 10 -14 6 3 10 13 10 21 0 8 -4 14 -10 14
-5 0 -10 -9 -10 -21z"/>
<path d="M14040 26244 c0 -8 5 -12 10 -9 6 3 10 10 10 16 0 5 -4 9 -10 9 -5 0
-10 -7 -10 -16z"/>
<path d="M14004 26206 c-3 -8 -1 -23 5 -33 8 -15 10 -13 9 15 -1 35 -5 40 -14
18z"/>
<path d="M14052 26100 c19 -26 38 -39 38 -26 0 8 -47 56 -54 56 -4 0 3 -13 16
-30z"/>
<path d="M14124 26080 c0 -11 3 -20 7 -20 10 0 19 27 12 34 -12 11 -19 6 -19
-14z"/>
<path d="M14000 25960 c0 -5 5 -10 11 -10 5 0 7 5 4 10 -3 6 -8 10 -11 10 -2
0 -4 -4 -4 -10z"/>
<path d="M14000 25879 c0 -5 5 -7 10 -4 6 3 10 8 10 11 0 2 -4 4 -10 4 -5 0
-10 -5 -10 -11z"/>
<path d="M13721 25624 c0 -11 3 -14 6 -6 3 7 2 16 -1 19 -3 4 -6 -2 -5 -13z"/>
<path d="M13875 25620 c-3 -5 1 -10 9 -10 9 0 16 5 16 10 0 6 -4 10 -9 10 -6
0 -13 -4 -16 -10z"/>
<path d="M13731 25484 c0 -11 3 -14 6 -6 3 7 2 16 -1 19 -3 4 -6 -2 -5 -13z"/>
<path d="M13852 25440 c0 -14 2 -19 5 -12 2 6 2 18 0 25 -3 6 -5 1 -5 -13z"/>
<path d="M13750 25340 c0 -5 5 -10 11 -10 5 0 7 5 4 10 -3 6 -8 10 -11 10 -2
0 -4 -4 -4 -10z"/>
<path d="M13881 25204 c0 -11 3 -14 6 -6 3 7 2 16 -1 19 -3 4 -6 -2 -5 -13z"/>
<path d="M13870 25160 c0 -5 5 -10 10 -10 6 0 10 5 10 10 0 6 -4 10 -10 10 -5
0 -10 -4 -10 -10z"/>
<path d="M13840 25135 c0 -8 5 -15 10 -15 6 0 10 7 10 15 0 8 -4 15 -10 15 -5
0 -10 -7 -10 -15z"/>
<path d="M13911 24924 c0 -11 3 -14 6 -6 3 7 2 16 -1 19 -3 4 -6 -2 -5 -13z"/>
<path d="M13885 24910 c3 -5 8 -10 11 -10 2 0 4 5 4 10 0 6 -5 10 -11 10 -5 0
-7 -4 -4 -10z"/>
<path d="M17320 23145 c-7 -9 -10 -18 -7 -21 3 -3 10 4 17 15 13 25 8 27 -10
6z"/>
<path d="M18340 12009 c0 -5 5 -7 10 -4 6 3 10 8 10 11 0 2 -4 4 -10 4 -5 0
-10 -5 -10 -11z"/>
<path d="M18753 11916 c9 -7 14 -16 10 -20 -4 -4 1 -4 12 0 15 6 17 4 11 -12
-5 -14 -4 -16 4 -8 16 16 2 41 -28 47 -23 4 -24 4 -9 -7z"/>
<path d="M18720 11900 c0 -5 5 -10 10 -10 6 0 10 5 10 10 0 6 -4 10 -10 10 -5
0 -10 -4 -10 -10z"/>
<path d="M17076 11927 c-27 -12 -28 -13 -10 -27 11 -8 16 -11 12 -6 -4 5 3 17
15 27 26 21 23 23 -17 6z"/>
<path d="M16995 11900 c-16 -7 -11 -9 20 -9 29 -1 36 2 25 9 -17 11 -19 11
-45 0z"/>
<path d="M16945 11880 c-3 -5 1 -10 9 -10 9 0 16 5 16 10 0 6 -4 10 -9 10 -6
0 -13 -4 -16 -10z"/>
<path d="M16895 11859 c-11 -17 1 -21 15 -4 8 9 8 15 2 15 -6 0 -14 -5 -17
-11z"/>
<path d="M17745 11720 c3 -5 8 -10 11 -10 2 0 4 5 4 10 0 6 -5 10 -11 10 -5 0
-7 -4 -4 -10z"/>
<path d="M17500 11710 c-11 -7 -5 -8 20 -4 43 8 51 14 19 14 -13 0 -31 -5 -39
-10z"/>
<path d="M17023 11623 c-13 -5 -19 -33 -7 -33 3 0 12 6 20 14 23 23 17 32 -13
19z"/>
<path d="M17515 11514 c-5 -1 -27 -5 -47 -9 -21 -3 -38 -10 -38 -15 0 -14 47
-12 56 1 4 6 19 9 38 5 17 -3 27 -3 21 2 -5 4 -12 10 -15 13 -3 4 -9 5 -15 3z"/>
<path d="M17550 11516 c0 -2 6 -9 13 -15 10 -8 14 -7 14 4 0 8 -6 15 -14 15
-7 0 -13 -2 -13 -4z"/>
<path d="M17608 11503 c7 -3 16 -2 19 1 4 3 -2 6 -13 5 -11 0 -14 -3 -6 -6z"/>
<path d="M17398 11463 c7 -3 16 -2 19 1 4 3 -2 6 -13 5 -11 0 -14 -3 -6 -6z"/>
<path d="M16363 10946 c-4 -5 -1 -6 5 -2 5 3 12 2 14 -3 1 -5 11 -4 21 4 17
12 16 13 -8 11 -15 0 -29 -5 -32 -10z"/>
<path d="M15591 10834 c0 -11 3 -14 6 -6 3 7 2 16 -1 19 -3 4 -6 -2 -5 -13z"/>
<path d="M15557 10800 c-10 -15 -17 -34 -16 -42 0 -7 5 -2 10 12 7 16 13 21
17 13 6 -9 11 -7 18 5 8 13 8 20 -1 29 -9 8 -16 4 -28 -17z"/>
<path d="M16056 10670 c-16 -5 -17 -8 -4 -12 16 -7 45 7 32 14 -5 3 -18 2 -28
-2z"/>
<path d="M15775 10660 c-3 -5 -1 -10 4 -10 6 0 11 5 11 10 0 6 -2 10 -4 10 -3
0 -8 -4 -11 -10z"/>
<path d="M15990 10634 c0 -3 7 -12 15 -21 8 -8 12 -20 9 -26 -5 -8 -4 -9 3 -2
6 6 14 20 18 33 5 19 3 22 -19 22 -14 0 -26 -3 -26 -6z"/>
<path d="M16313 10575 c0 -14 3 -22 8 -19 5 3 9 11 9 19 0 8 -4 16 -9 19 -5 3
-8 -5 -8 -19z"/>
<path d="M16495 10422 c3 -7 5 -16 5 -18 0 -2 5 -4 11 -4 5 0 7 4 4 10 -4 6 3
9 16 7 12 -1 24 3 26 10 3 7 -9 11 -32 10 -26 -1 -34 -5 -30 -15z"/>
<path d="M16170 10160 c0 -6 7 -13 15 -17 24 -9 27 1 5 15 -13 8 -20 8 -20 2z"/>
<path d="M15049 8823 c-9 -28 -9 -38 0 -41 6 -2 9 -7 6 -12 -3 -4 1 -12 8 -18
10 -9 13 2 12 49 0 32 -3 59 -7 59 -3 0 -12 -17 -19 -37z"/>
<path d="M17780 8760 c0 -11 5 -20 10 -20 6 0 10 9 10 20 0 11 -4 20 -10 20
-5 0 -10 -9 -10 -20z"/>
<path d="M14071 8614 c0 -11 3 -14 6 -6 3 7 2 16 -1 19 -3 4 -6 -2 -5 -13z"/>
<path d="M19680 8564 c0 -8 5 -12 10 -9 6 3 10 10 10 16 0 5 -4 9 -10 9 -5 0
-10 -7 -10 -16z"/>
<path d="M15808 8453 c7 -3 16 -2 19 1 4 3 -2 6 -13 5 -11 0 -14 -3 -6 -6z"/>
<path d="M19465 8309 c-4 -6 -5 -12 -2 -15 2 -3 7 2 10 11 7 17 1 20 -8 4z"/>
<path d="M15510 8289 c0 -5 5 -7 10 -4 6 3 10 8 10 11 0 2 -4 4 -10 4 -5 0
-10 -5 -10 -11z"/>
<path d="M15270 8141 c0 -20 7 -29 30 -38 17 -6 30 -18 30 -27 0 -12 10 -16
43 -15 23 0 36 3 28 6 -20 8 -81 75 -81 89 0 6 -11 12 -25 12 -20 0 -25 -5
-25 -27z"/>
<path d="M19085 7960 c-10 -11 -13 -20 -8 -20 13 0 38 29 31 35 -3 3 -13 -4
-23 -15z"/>
<path d="M15592 7924 l0 -45 31 7 c18 4 38 7 44 7 9 0 10 4 2 14 -6 7 -18 13
-26 13 -10 0 -13 6 -9 17 7 16 -8 33 -30 33 -6 0 -11 -20 -12 -46z"/>
<path d="M15590 7809 c0 -5 5 -7 10 -4 6 3 10 8 10 11 0 2 -4 4 -10 4 -5 0
-10 -5 -10 -11z"/>
<path d="M18865 7800 c3 -5 8 -10 11 -10 2 0 4 5 4 10 0 6 -5 10 -11 10 -5 0
-7 -4 -4 -10z"/>
<path d="M16188 7573 c7 -3 16 -2 19 1 4 3 -2 6 -13 5 -11 0 -14 -3 -6 -6z"/>
<path d="M16630 7540 c0 -5 5 -10 10 -10 6 0 10 5 10 10 0 6 -4 10 -10 10 -5
0 -10 -4 -10 -10z"/>
<path d="M15975 6540 c3 -5 8 -10 11 -10 2 0 4 5 4 10 0 6 -5 10 -11 10 -5 0
-7 -4 -4 -10z"/>
</g>
</svg>
